<?xml version="1.0" standalone="no"?>
<!DOCTYPE svg PUBLIC "-//W3C//DTD SVG 1.1//EN" "http://www.w3.org/Graphics/SVG/1.1/DTD/svg11.dtd" >
<svg xmlns="http://www.w3.org/2000/svg">
<defs>
<font id="5b5e874c5fa34a7d54f697a7a33ffc3c" horiz-adv-x='1024' >
  <font-face 
    font-family="isocteur"
    font-weight="400"
    font-stretch="normal"
    units-per-em="2048"
    panose-1="2 11 6 9 2 2 2 2 2 4"
    ascent="1638"
    descent="-410"
    x-height="924"
    cap-height="1320"
    bbox="-66 -528 1518 1980"
    underline-thickness="132"
    underline-position="-198"
    unicode-range="U+0020-E102"
  />
<missing-glyph 
 />
    <glyph glyph-name=".notdef" 
 />
    <glyph glyph-name=".null" horiz-adv-x="0" 
 />
    <glyph glyph-name="nonmarkingreturn" 
 />
    <glyph glyph-name="space" unicode=" " 
 />
    <glyph glyph-name="exclam" unicode="!" 
d="M660 132q0 66 66 66t66 -66v-66q0 -66 -66 -66t-66 66v66zM660 462v792q0 66 66 66t66 -66v-792q0 -66 -66 -66t-66 66z" />
    <glyph glyph-name="quotedbl" unicode="&#x22;" 
d="M924 1320q66 0 66 -65q0 -9 -2 -17l-66 -264q-12 -50 -64 -50q-66 0 -66 66q0 8 68 280q12 50 64 50zM594 1320q66 0 66 -65q0 -9 -2 -17l-66 -264q-12 -50 -64 -50q-66 0 -66 66q0 8 68 280q12 50 64 50z" />
    <glyph glyph-name="numbersign" unicode="#" 
d="M858 528v264h-264v-264h264zM990 396v-330q0 -66 -66 -66t-66 66v330h-264v-330q0 -66 -66 -66t-66 66v330h-132q-66 0 -66 66t66 66h132v264h-132q-66 0 -66 66t66 66h132v330q0 66 66 66t66 -66v-330h264v330q0 66 66 66t66 -66v-330h132q66 0 66 -66t-66 -66h-132
v-264h132q66 0 66 -66t-66 -66h-132z" />
    <glyph glyph-name="dollar" unicode="$" 
d="M660 1056q-55 0 -93.5 -39t-38.5 -105t65 -102l67 -37v283zM792 264q55 0 94 38.5t39 104.5t-65 102l-68 38v-283zM792 132v-66q0 -66 -66 -66t-66 66v69q-129 14 -231 75q-33 20 -33 58q0 67 67 67q15 0 69 -27t128 -38v351l-129 73q-135 76 -135 230q0 100 72 182
t192 82v66q0 66 66 66t66 -66v-70q124 -15 232 -77q32 -19 32 -51t-19.5 -51.5t-41.5 -19.5t-38 9q-77 45 -165 57v-352l129 -72q135 -75 135 -231q0 -100 -72 -182t-192 -82z" />
    <glyph glyph-name="percent" unicode="%" 
d="M132 66q0 26 17 44l1055 1187q20 23 48 23t48 -19.5t20 -45.5t-17 -45l-1055 -1187q-20 -23 -48 -23t-48 20t-20 46zM396 1321q110 0 187 -77t77 -187t-77 -187t-187 -77t-187 77t-77 187t77 187t187 77zM396 1189q-56 0 -94 -38.5t-38 -92.5t39 -93.5t93 -39.5t93 38.5
t39 94.5t-38 93.5t-94 37.5zM1056 529q110 0 187 -77t77 -187t-77 -187t-187 -77t-187 77t-77 187t77 187t187 77zM1056 397q-56 0 -94 -38.5t-38 -92.5t39 -93.5t93 -39.5t93 38.5t39 94.5t-38 93.5t-94 37.5z" />
    <glyph glyph-name="ampersand" unicode="&#x26;" 
d="M726 1064q0 48 -38 86t-94 38t-94 -39t-38 -85t19 -76l109 -170l113 164q23 34 23 82zM1056 62q0 -23 -19 -42.5t-51 -19.5t-52 31l-89 141l-160 -121q-67 -51 -167 -51t-177 77t-77 173t46 163l198 287l-136 213q-42 65 -42 159t77 171t187 77t187 -77t77 -173t-46 -163
l-145 -210l213 -335l202 152q19 14 40 14q66 0 66 -66q0 -33 -25 -52l-212 -159l95 -150q10 -16 10 -39zM396 258q0 -48 39 -87t89 -39t82 25l168 126l-189 297l-167 -242q-22 -32 -22 -80z" />
    <glyph glyph-name="quotesingle" unicode="'" 
d="M759 1320q66 0 66 -65q0 -9 -2 -17l-66 -264q-12 -50 -64 -50q-66 0 -66 66q0 8 68 280q12 50 64 50z" />
    <glyph glyph-name="parenleft" unicode="(" 
d="M726 660q0 -200 31 -358t66 -258t35 -118t-20 -38t-54 -20t-49 31q-55 118 -98 330t-43 431t43 431t98 330q14 31 56 31q67 0 67 -66q0 -10 -35 -110t-66 -258t-31 -358z" />
    <glyph glyph-name="parenright" unicode=")" 
d="M726 660q0 200 -30 354t-98 348q-4 12 -4 32t20 39t54 19t49 -31q55 -118 98 -330t43 -431t-43 -431t-98 -330q-14 -31 -48 -31t-54.5 20t-20.5 39t4 31q68 194 98 348t30 354z" />
    <glyph glyph-name="asterisk" unicode="*" 
d="M346 698q0 65 64 65q11 0 23 -4l227 -74v239q0 66 66 66t66 -66v-239l226 74q9 3 19 3q69 0 69 -69q0 -43 -47 -59l-226 -75l141 -193q13 -18 13 -39q0 -66 -66 -66q-34 0 -54 28l-141 193l-140 -194q-19 -27 -51 -27t-51 19.5t-19 43.5t14 42l140 194l-227 73
q-46 15 -46 65z" />
    <glyph glyph-name="plus" unicode="+" 
d="M660 396h-198q-66 0 -66 66t66 66h198v198q0 66 66 66t66 -66v-198h198q66 0 66 -66t-66 -66h-198v-198q0 -66 -66 -66t-66 66v198z" />
    <glyph glyph-name="comma" unicode="," 
d="M759 132q66 0 66 -65q0 -9 -68 -281q-12 -50 -64 -50q-66 0 -66 66q0 45 68 280q14 50 64 50z" />
    <glyph glyph-name="hyphen" unicode="-" 
d="M990 330h-528q-66 0 -66 66t66 66h528q66 0 66 -66t-66 -66z" />
    <glyph glyph-name="hyphen" unicode="&#x2010;" 
d="M990 330h-528q-66 0 -66 66t66 66h528q66 0 66 -66t-66 -66z" />
    <glyph glyph-name="period" unicode="." 
d="M660 132q0 66 66 66t66 -66v-66q0 -66 -66 -66t-66 66v66z" />
    <glyph glyph-name="slash" unicode="/" 
d="M396 60q0 20 6 33l528 1188q18 39 52 39t54 -19t20 -39t-6 -35l-528 -1188q-18 -39 -52 -39t-54 20t-20 40z" />
    <glyph glyph-name="zero" unicode="0" 
d="M1056 660q0 -236 -58 -408q-85 -252 -272 -252t-272 251q-58 172 -58 409t58 409q85 251 272 251t272 -252q58 -172 58 -408zM924 660q0 164 -35 309q-53 219 -163 219t-162 -220q-36 -148 -36 -310t35 -307q53 -219 163 -219t163 219q35 145 35 309z" />
    <glyph glyph-name="one" unicode="1" 
d="M594 924q-66 0 -66 66q0 27 19 46l258 258q26 26 53 26q66 0 66 -66v-1188q0 -66 -66 -66t-66 66v1029l-152 -152q-19 -19 -46 -19z" />
    <glyph glyph-name="two" unicode="2" 
d="M726 1320q137 0 233.5 -96.5t96.5 -233.5q0 -94 -60 -190l-416 -668h410q66 0 66 -66t-66 -66h-528q-66 0 -66 66q0 20 11 38l484 777q33 53 33 122t-58 127t-140 58q-112 0 -207 -166q-18 -32 -57 -32q-66 0 -66 66q0 15 6 27q123 237 324 237z" />
    <glyph glyph-name="three" unicode="3" 
d="M726 660h-132q-66 0 -66 66t66 66h132q83 0 140.5 58t57.5 140t-58 140t-140 58h-264q-66 0 -66 66t66 66h264q137 0 233.5 -97t96.5 -247t-132 -250q132 -100 132 -264v-132q0 -137 -97 -233.5t-233 -96.5h-264q-66 0 -66 66t66 66h264q83 0 140.5 57.5t57.5 140.5v132
q0 82 -58 140t-140 58z" />
    <glyph glyph-name="four" unicode="4" 
d="M330 330q0 11 2 18l264 924q14 48 64 48q66 0 66 -66q0 -9 -3 -19l-240 -839h309v198q0 66 66 66t66 -66v-198h132q66 0 66 -66t-66 -66h-132v-198q0 -66 -66 -66t-66 66v198h-396q-66 0 -66 66z" />
    <glyph glyph-name="five" unicode="5" 
d="M396 726v528q0 66 66 66h462q66 0 66 -66t-66 -66h-396v-396h198q137 0 233.5 -97t96.5 -233v-132q0 -137 -97 -233.5t-233 -96.5h-264q-66 0 -66 66t66 66h264q83 0 140.5 57.5t57.5 140.5v132q0 82 -58 140t-140 58h-264q-66 0 -66 66z" />
    <glyph glyph-name="six" unicode="6" 
d="M858 1320q66 0 66 -66q0 -49 -33 -57q-147 -37 -257 -176q-87 -110 -101 -229h193q140 0 235 -96t95 -234v-132q0 -138 -96 -234t-234 -96t-234 95.5t-96 232.5v398q0 224 149 393q116 131 253 186q39 15 60 15zM528 660v-330q0 -83 57.5 -140.5t140.5 -57.5t140.5 58
t57.5 140v132q0 83 -58 140.5t-140 57.5h-198z" />
    <glyph glyph-name="seven" unicode="7" 
d="M726 594q-66 0 -66 66t66 66h78l103 462h-445q-66 0 -66 66t66 66h528q65 0 66 -64q0 -6 -2 -16l-114 -514h50q66 0 66 -66t-66 -66h-80l-120 -542q-12 -52 -63 -52q-67 0 -67 66q0 10 1 15l114 513h-49z" />
    <glyph glyph-name="eight" unicode="8" 
d="M726 792q83 0 140.5 58t57.5 140t-58 140t-140 58t-140 -57.5t-58 -140.5t57.5 -140.5t140.5 -57.5zM726 0q-137 0 -233.5 96.5t-96.5 233.5v132q0 164 132 264q-132 100 -132 250t96.5 247t233.5 97t233.5 -97t96.5 -247t-132 -250q95 -72 120 -177q12 -53 12 -205
t-96.5 -248t-233.5 -96zM726 132q83 0 140.5 57.5t57.5 140.5v132q0 82 -58 140t-140 58t-140 -57.5t-58 -140.5v-132q0 -83 57.5 -140.5t140.5 -57.5z" />
    <glyph glyph-name="nine" unicode="9" 
d="M605 0q-77 0 -77 76q0 36 33 47q72 24 120 55q213 138 238 350h-193q-137 0 -233.5 96.5t-96.5 233.5v132q0 137 96 233.5t234 96.5t234 -95.5t96 -232.5v-398q0 -336 -313 -531q-101 -63 -138 -63zM924 660v330q0 82 -58 140t-140 58t-140 -58t-58 -140v-132
q0 -83 57.5 -140.5t140.5 -57.5h198z" />
    <glyph glyph-name="colon" unicode=":" 
d="M660 726q0 66 66 66t66 -66v-66q0 -66 -66 -66t-66 66v66zM660 198q0 66 66 66t66 -66v-66q0 -66 -66 -66t-66 66v66z" />
    <glyph glyph-name="semicolon" unicode=";" 
d="M759 132q66 0 66 -65q0 -9 -2 -17l-66 -264q-12 -50 -64 -50q-66 0 -66 66q0 8 68 280q12 50 64 50zM693 594q0 66 66 66t66 -66v-66q0 -66 -66 -66t-66 66v66z" />
    <glyph glyph-name="less" unicode="&#x3c;" 
d="M1056 264q0 -66 -66 -66q-12 0 -23 4l-528 198q-43 16 -43 62t43 62l528 198q11 4 23 4q66 0 66 -66q0 -46 -43 -62l-363 -136l363 -136q43 -16 43 -62z" />
    <glyph glyph-name="equal" unicode="=" 
d="M990 198h-528q-66 0 -66 66t66 66h528q66 0 66 -66t-66 -66zM990 594h-528q-66 0 -66 66t66 66h528q66 0 66 -66t-66 -66z" />
    <glyph glyph-name="greater" unicode="&#x3e;" 
d="M396 660q0 66 66 66q12 0 23 -4l528 -198q43 -16 43 -62t-43 -62l-528 -198q-11 -4 -31 -4t-39 20t-19 56t43 52l363 136l-363 136q-43 16 -43 62z" />
    <glyph glyph-name="question" unicode="?" 
d="M792 1320q111 0 187.5 -76.5t76.5 -187.5t-78 -187l-165 -161q-21 -20 -21 -48v-198q0 -66 -66 -66t-66 66v198q0 83 63 144l164 160q37 36 37 92t-38 94t-99 38t-121 -10t-126 -32q-66 -24 -86 -24q-18 0 -38 20t-20 54t40 52q161 72 356 72zM660 132q0 66 66 66t66 -66
v-66q0 -66 -66 -66t-66 66v66z" />
    <glyph glyph-name="at" unicode="@" 
d="M858 792h-132q-55 0 -93.5 -38.5t-38.5 -93.5v-396q0 -54 39 -93t93 -39t93 38.5t39 93.5v528zM726 -396q-245 0 -419.5 174.5t-174.5 419.5v528q0 246 174 420t420 174t420 -173.5t174 -420.5v-462q0 -108 -62 -186t-178 -78t-156 99q-60 -99 -184 -99t-201 76.5
t-77 187.5v396q0 111 76.5 187.5t187.5 76.5h198q66 0 66 -66v-594q0 -132 99 -132q49 0 74 40t25 92v462q0 192 -135 327t-327 135t-327 -135t-135 -327v-528q0 -190 136 -326t326 -136q66 0 66 -66q0 -27 -19.5 -46.5t-46.5 -19.5z" />
    <glyph glyph-name="A" unicode="A" 
d="M1188 66q0 -66 -66 -66q-48 0 -63 45l-95 285h-476l-95 -285q-15 -45 -63 -45q-66 0 -66 66q0 12 3 21l393 1180q18 53 66 53t65 -51l394 -1182q3 -9 3 -21zM726 1044l-194 -582h388z" />
    <glyph glyph-name="B" unicode="B" 
d="M462 660v-528h264q111 0 187.5 76.5t76.5 187.5t-76.5 187.5t-187.5 76.5h-264zM462 1188v-396h264q82 0 140 58t58 140t-58 140t-140 58h-264zM1122 396q0 -164 -116 -280t-280 -116h-330q-66 0 -66 66v1188q0 66 66 66h330q139 0 234.5 -96t95.5 -244t-122 -247
q188 -112 188 -337z" />
    <glyph glyph-name="C" unicode="C" 
d="M990 1320q66 0 66 -66t-66 -66h-264q-83 0 -140.5 -58t-57.5 -140v-660q0 -82 58 -140t140 -58h264q66 0 66 -66t-66 -66h-264q-137 0 -233.5 96.5t-96.5 233.5v660q0 137 96.5 233.5t233.5 96.5h264z" />
    <glyph glyph-name="D" unicode="D" 
d="M462 1188v-1056h330q82 0 140 58t58 140v660q0 82 -58 140t-140 58h-330zM330 1254q0 66 66 66h396q139 0 234.5 -95.5t95.5 -234.5v-660q0 -137 -96.5 -233.5t-233.5 -96.5h-396q-66 0 -66 66v1188z" />
    <glyph glyph-name="E" unicode="E" 
d="M396 66v1188q0 66 66 66h528q66 0 66 -66t-66 -66h-462v-396h330q66 0 66 -66t-66 -66h-330v-528h462q66 0 66 -66t-66 -66h-528q-66 0 -66 66z" />
    <glyph glyph-name="F" unicode="F" 
d="M396 66v1188q0 66 66 66h528q66 0 66 -66t-66 -66h-462v-396h462q66 0 66 -66t-66 -66h-462v-594q0 -66 -66 -66t-66 66z" />
    <glyph glyph-name="G" unicode="G" 
d="M660 132h330v528h-132q-66 0 -66 66t66 66h198q66 0 66 -66v-660q0 -66 -66 -66h-396q-137 0 -233.5 96.5t-96.5 233.5v660q0 137 96.5 233.5t233.5 96.5h396q66 0 66 -66t-66 -66h-396q-83 0 -140.5 -58t-57.5 -140v-660q0 -83 57.5 -140.5t140.5 -57.5z" />
    <glyph glyph-name="H" unicode="H" 
d="M330 66v1188q0 66 66 66t66 -66v-462h528v462q0 66 66 66t66 -66v-1188q0 -66 -66 -66t-66 66v594h-528v-594q0 -66 -66 -66t-66 66z" />
    <glyph glyph-name="I" unicode="I" 
d="M726 0q-66 0 -66 66v1188q0 66 66 66t66 -66v-1188q0 -66 -66 -66z" />
    <glyph glyph-name="J" unicode="J" 
d="M990 1254v-924q0 -138 -96.5 -234t-233.5 -96h-132q-66 0 -66 66t66 66h132q83 0 140.5 58t57.5 140v924q0 66 66 66t66 -66z" />
    <glyph glyph-name="K" unicode="K" 
d="M462 66q0 -66 -66 -66t-66 66v1188q0 66 66 66t66 -66v-555l544 599q20 22 50 22q66 0 66 -66q0 -25 -18 -45l-377 -415l386 -695q9 -16 9 -37t-21 -41.5t-53 -20.5t-51 35l-364 655l-171 -188v-436z" />
    <glyph glyph-name="L" unicode="L" 
d="M396 1254q0 66 66 66t66 -66v-1122h462q66 0 66 -66t-66 -66h-528q-66 0 -66 66v1188z" />
    <glyph glyph-name="M" unicode="M" 
d="M1122 1320q66 0 66 -66v-1188q0 -66 -66 -66t-66 66v971l-269 -403q-27 -40 -61 -40t-62 40l-268 403v-971q0 -66 -66 -66t-66 66v1188q0 66 66 66q36 0 58 -33l338 -507l340 511q19 29 56 29z" />
    <glyph glyph-name="N" unicode="N" 
d="M990 1254q0 66 66 66t66 -66v-1188q0 -66 -66 -66q-40 0 -58 33l-536 967v-934q0 -66 -66 -66t-66 66v1188q0 66 66 66q39 0 61 -39l533 -960v933z" />
    <glyph glyph-name="O" unicode="O" 
d="M1122 396q0 -164 -116 -280t-280 -116t-280 116t-116 280v528q0 164 116 280t280 116t280 -115.5t116 -280.5v-528zM990 396v528q0 111 -76.5 187.5t-187.5 76.5t-187.5 -76.5t-76.5 -187.5v-528q0 -111 76.5 -187.5t187.5 -76.5t187.5 76.5t76.5 187.5z" />
    <glyph glyph-name="P" unicode="P" 
d="M462 1188v-528h264q111 0 187.5 76.5t76.5 187.5t-76.5 187.5t-187.5 76.5h-264zM396 1320h330q165 0 280.5 -116t115.5 -286t-110 -280t-286 -110h-264v-462q0 -66 -66 -66t-66 66v1188q0 66 66 66z" />
    <glyph glyph-name="Q" unicode="Q" 
d="M668 0q-172 0 -288 116t-116 280v528q0 164 116 280t280 116t280 -115.5t116 -280.5v-528q0 -72 -27 -145l137 -137q22 -22 22 -49q0 -65 -66 -65q-30 0 -50 20l-115 115q-117 -135 -289 -135zM793 328q0 66 66 66q28 0 62 -35q3 18 3 37v528q0 111 -76.5 187.5
t-187.5 76.5t-187.5 -76.5t-76.5 -187.5v-528q0 -111 76.5 -187.5t194.5 -76.5t198 96q-23 22 -47 44q-25 28 -25 56z" />
    <glyph glyph-name="R" unicode="R" 
d="M462 1188v-528h264q111 0 187.5 76.5t76.5 187.5t-76.5 187.5t-187.5 76.5h-264zM1122 60q0 -20 -20 -40t-54 -20t-52 37l-246 492q-9 -1 -24 -1h-264v-462q0 -66 -66 -66t-66 66v1188q0 66 66 66h330q165 0 280.5 -115.5t115.5 -280.5q0 -273 -238 -368l230 -460
q8 -16 8 -36z" />
    <glyph glyph-name="S" unicode="S" 
d="M1122 330q0 -136 -97 -233t-233 -97q-244 0 -433 144q-29 22 -29 52t19 49t41 19t62 -24t164 -80q82 -28 170 -28t146 58t58 140q0 121 -110 177l-371 190q-179 92 -179 293q0 136 97 233t233 97q234 0 357 -72q39 -23 39 -55t-20 -51.5t-38 -19.5t-36 7q-152 59 -302 59
q-82 0 -140 -58t-58 -140q0 -121 108 -176l371 -190q181 -93 181 -294z" />
    <glyph glyph-name="T" unicode="T" 
d="M330 1254q0 66 66 66h660q66 0 66 -66t-66 -66h-264v-1122q0 -66 -66 -66t-66 66v1122h-264q-66 0 -66 66z" />
    <glyph glyph-name="U" unicode="U" 
d="M1122 1254v-858q0 -164 -116 -280t-280 -116t-280 116t-116 280v858q0 66 66 66t66 -66v-858q0 -111 76.5 -187.5t187.5 -76.5t187.5 76.5t76.5 187.5v858q0 66 66 66t66 -66z" />
    <glyph glyph-name="V" unicode="V" 
d="M726 0q-48 0 -65 51l-394 1182q-3 9 -3 21q0 66 66 66q48 0 63 -45l333 -999l333 999q15 45 63 45q66 0 66 -66q0 -12 -3 -21l-394 -1182q-17 -51 -65 -51z" />
    <glyph glyph-name="W" unicode="W" 
d="M1254 1320q66 0 66 -66q0 -6 -2 -15l-263 -1184q-12 -55 -62 -55t-69 57l-198 593l-197 -593q-19 -57 -69 -57t-63 57l-263 1182q-2 9 -2 15q0 66 66 66q53 0 65 -52l212 -956l186 557q17 55 65 55t66 -55l185 -555l212 954q12 52 65 52z" />
    <glyph glyph-name="X" unicode="X" 
d="M1188 66q0 -66 -66 -66q-36 0 -55 29l-341 512l-341 -512q-19 -29 -55 -29q-66 0 -66 66q0 20 11 37l371 557l-371 557q-11 17 -11 37q0 66 66 66q36 0 55 -29l341 -511l341 511q19 29 55 29q66 0 66 -66q0 -20 -11 -37l-371 -557l371 -557q11 -17 11 -37z" />
    <glyph glyph-name="Y" unicode="Y" 
d="M792 66q0 -66 -66 -66t-66 66v594l-384 556q-12 17 -12 38q0 66 66 66q36 0 55 -28l341 -496l341 496q19 28 55 28q66 0 66 -66q0 -21 -12 -38l-384 -556v-594z" />
    <glyph glyph-name="Z" unicode="Z" 
d="M1056 132q66 0 66 -66t-66 -66h-660q-66 0 -66 66q0 17 13 40l601 1082h-548q-66 0 -66 66t66 66h660q66 0 66 -65q0 -18 -13 -41l-600 -1082h547z" />
    <glyph glyph-name="bracketleft" unicode="[" 
d="M726 0h66q66 0 66 -66t-66 -66h-132q-66 0 -66 66v1452q0 66 66 66h132q66 0 66 -66t-66 -66h-66v-1320z" />
    <glyph glyph-name="backslash" unicode="\" 
d="M982 0q-35 0 -52 39l-528 1188q-6 14 -6 28q0 65 67 65q42 0 59 -39l528 -1188q6 -15 6 -35t-19.5 -39t-54.5 -19z" />
    <glyph glyph-name="bracketright" unicode="]" 
d="M726 0v1320h-66q-66 0 -66 66t66 66h132q66 0 66 -66v-1452q0 -66 -66 -66h-132q-66 0 -66 66t66 66h66z" />
    <glyph glyph-name="asciicircum" unicode="^" 
d="M528 1452q-66 0 -66 66q0 27 20 47l186 186q31 31 58 31t58 -31l186 -186q20 -20 20 -47q0 -66 -66 -66q-29 0 -48 19l-150 150l-150 -150q-19 -19 -48 -19z" />
    <glyph glyph-name="underscore" unicode="_" 
d="M1518 -330q0 -66 -66 -66h-1452q-66 0 -66 66t66 66h1452q66 0 66 -66z" />
    <glyph glyph-name="grave" unicode="`" 
d="M528 1716q0 66 66 66q23 0 40 -13l264 -198q26 -19 26 -53q0 -66 -66 -66q-23 0 -40 13l-264 198q-26 19 -26 53z" />
    <glyph glyph-name="a" unicode="a" 
d="M924 396h-264q-55 0 -93.5 -39t-38.5 -93t39 -93t93 -39h264v264zM660 0q-111 0 -187.5 76.5t-76.5 187.5q0 72 35 133q75 131 229 131h264v132q0 56 -38 94t-94 38h-264q-66 0 -66 66t66 66h264q111 0 187.5 -76.5t76.5 -187.5v-594q0 -66 -66 -66h-330z" />
    <glyph glyph-name="b" unicode="b" 
d="M792 792h-264v-660h264q55 0 93.5 38.5t38.5 93.5v396q0 56 -38 94t-94 38zM1056 660v-396q0 -111 -76.5 -187.5t-187.5 -76.5h-330q-66 0 -66 66v1188q0 66 66 66t66 -66v-330h264q154 0 229 -131q35 -61 35 -133z" />
    <glyph glyph-name="c" unicode="c" 
d="M594 660v-396q0 -54 39 -93t93 -39h198q66 0 66 -66t-66 -66h-198q-111 0 -187.5 76.5t-76.5 187.5v396q0 111 76.5 187.5t187.5 76.5h198q66 0 66 -66t-66 -66h-198q-55 0 -93.5 -38.5t-38.5 -93.5z" />
    <glyph glyph-name="d" unicode="d" 
d="M660 792q-55 0 -93.5 -38.5t-38.5 -93.5v-396q0 -54 39 -93t93 -39h264v660h-264zM396 660q0 72 35 133q75 131 229 131h264v330q0 66 66 66t66 -66v-1188q0 -66 -66 -66h-330q-111 0 -187.5 76.5t-76.5 187.5v396z" />
    <glyph glyph-name="e" unicode="e" 
d="M528 396v-132q0 -54 39 -93t93 -39h330q66 0 66 -66t-66 -66h-330q-111 0 -187.5 76.5t-76.5 187.5v330q0 137 96.5 233.5t234.5 96.5t233.5 -95.5t95.5 -234.5v-198h-528zM726 792q-82 0 -140 -58t-58 -140v-66h396v66q0 82 -58 140t-140 58z" />
    <glyph glyph-name="f" unicode="f" 
d="M528 924h66v132q0 111 77 187.5t187 76.5h66q66 0 66 -66t-66 -66h-66q-55 0 -93.5 -38.5t-38.5 -93.5v-132h198q66 0 66 -66t-66 -66h-198v-726q0 -66 -66 -66t-66 66v726h-66q-66 0 -66 66t66 66z" />
    <glyph glyph-name="g" unicode="g" 
d="M924 792h-264q-55 0 -93.5 -38.5t-38.5 -93.5v-396q0 -54 39 -93t93 -39h264v660zM990 924q66 0 66 -66v-990q0 -111 -76.5 -187.5t-187.5 -76.5h-264q-66 0 -66 66t66 66h264q55 0 93.5 38.5t38.5 93.5v132h-264q-154 0 -229 131q-35 61 -35 133v396q0 111 76.5 187.5
t187.5 76.5h330z" />
    <glyph glyph-name="h" unicode="h" 
d="M396 1254q0 66 66 66t66 -66v-330h264q109 0 186.5 -76t77.5 -183v-599q0 -66 -66 -66t-66 66v594q0 56 -38 94t-94 38h-264v-726q0 -66 -66 -66t-66 66v1188z" />
    <glyph glyph-name="i" unicode="i" 
d="M660 1188v66q0 66 66 66t66 -66v-66q0 -66 -66 -66t-66 66zM660 858q0 66 66 66t66 -66v-792q0 -66 -66 -66t-66 66v792z" />
    <glyph glyph-name="j" unicode="j" 
d="M792 -132q0 -111 -76.5 -187.5t-187.5 -76.5h-66q-66 0 -66 66t66 66h66q56 0 94 39t38 93v990q0 66 66 66t66 -66v-990zM726 1320q66 0 66 -66v-66q0 -66 -66 -66t-66 66v66q0 66 66 66z" />
    <glyph glyph-name="k" unicode="k" 
d="M528 66q0 -66 -66 -66t-66 66v1188q0 66 66 66t66 -66v-659l422 316q17 13 40 13q66 0 66 -66q0 -34 -26 -53l-256 -192l275 -516q7 -13 7 -35t-19.5 -42t-52.5 -20t-52 35l-265 497l-139 -103v-363z" />
    <glyph glyph-name="l" unicode="l" 
d="M594 1254q0 66 66 66t66 -66v-1056q0 -51 66 -66t66 -66q0 -66 -66 -66q-89 0 -143.5 52.5t-54.5 145.5v1056z" />
    <glyph glyph-name="m" unicode="m" 
d="M330 924h594q111 0 187.5 -76.5t76.5 -187.5v-594q0 -66 -66 -66t-66 66v594q0 56 -38 94t-94 38h-132v-726q0 -66 -66 -66t-66 66v726h-264v-726q0 -66 -66 -66t-66 66v792q0 66 66 66z" />
    <glyph glyph-name="n" unicode="n" 
d="M396 66v792q0 66 66 66h330q111 0 187.5 -76.5t76.5 -187.5v-594q0 -66 -66 -66t-66 66v594q0 56 -38 94t-94 38h-264v-726q0 -66 -66 -66t-66 66z" />
    <glyph glyph-name="o" unicode="o" 
d="M924 330v264q0 82 -58 140t-140 58t-140 -58t-58 -140v-264q0 -83 58 -140.5t140 -57.5t140 58t58 140zM396 330v264q0 137 96.5 233.5t234.5 96.5t233.5 -95.5t95.5 -234.5v-264q0 -137 -96.5 -233.5t-233.5 -96.5t-233.5 96.5t-96.5 233.5z" />
    <glyph glyph-name="p" unicode="p" 
d="M528 792v-660h264q55 0 93.5 38.5t38.5 93.5v396q0 56 -38 94t-94 38h-264zM396 858q0 66 66 66h330q111 0 187.5 -76.5t76.5 -187.5v-396q0 -110 -76.5 -187t-187.5 -77h-264v-330q0 -66 -66 -66t-66 66v1188z" />
    <glyph glyph-name="q" unicode="q" 
d="M924 792h-264q-55 0 -93.5 -38.5t-38.5 -93.5v-396q0 -54 39 -93t93 -39h264v660zM1056 858v-1188q0 -66 -66 -66t-66 66v330h-264q-111 0 -187.5 77t-76.5 187v396q0 111 76.5 187.5t187.5 76.5h330q66 0 66 -66z" />
    <glyph glyph-name="r" unicode="r" 
d="M462 858q0 66 66 66h396q66 0 66 -66v-132q0 -66 -66 -66t-66 66v66h-264v-726q0 -66 -66 -66t-66 66v792z" />
    <glyph glyph-name="s" unicode="s" 
d="M924 231q0 63 -56 90l-339 163q-133 64 -133 209q0 114 88 172t221 58q134 0 250 -73q35 -22 35 -54t-20 -51t-42 -19t-35 8q-95 57 -201 57q-164 0 -164 -98q0 -62 54 -88l342 -165q132 -64 132 -209q0 -119 -88 -175t-216 -56q-190 0 -319 73q-37 21 -37 53t19.5 52
t39.5 20t42 -10t84 -32q90 -24 175 -24q168 0 168 99z" />
    <glyph glyph-name="t" unicode="t" 
d="M594 792h-66q-66 0 -66 66t66 66h66v330q0 66 66 66t66 -66v-330h198q66 0 66 -66t-66 -66h-198v-726q0 -66 -66 -66t-66 66v726z" />
    <glyph glyph-name="u" unicode="u" 
d="M1056 858v-792q0 -66 -66 -66h-330q-111 0 -187.5 76.5t-76.5 187.5v594q0 66 66 66t66 -66v-594q0 -54 39 -93t93 -39h264v726q0 66 66 66t66 -66z" />
    <glyph glyph-name="v" unicode="v" 
d="M989 924q67 0 67 -65q0 -10 -4 -22l-260 -782q-18 -55 -66 -55t-66 54l-260 783q-4 13 -4 31t19.5 37t46.5 19q48 0 63 -45l201 -603l200 603q15 45 63 45z" />
    <glyph glyph-name="w" unicode="w" 
d="M927 0q-49 0 -67 48l-134 359l-134 -357q-20 -50 -68 -50t-63 62l-195 780q-2 8 -2 19q0 63 66 63q52 0 64 -50l146 -585l123 328q17 43 63 43t62 -43l123 -329l147 586q13 50 64 50q26 0 46 -19t20 -37t-2 -26l-196 -784q-14 -58 -63 -58z" />
    <glyph glyph-name="x" unicode="x" 
d="M1056 66q0 -66 -66 -66q-36 0 -55 29l-209 314l-209 -314q-19 -29 -51 -29t-51 19t-19 43t11 41l239 359l-239 359q-11 17 -11 37q0 66 66 66q36 0 55 -29l209 -313l209 313q19 29 55 29q66 0 66 -65q0 -21 -11 -38l-239 -359l239 -359q11 -17 11 -37z" />
    <glyph glyph-name="y" unicode="y" 
d="M397 858q0 66 66 66q48 0 63 -45l201 -603l201 603q14 45 63 45q66 0 66 -66q0 -9 -4 -21l-395 -1188q-15 -45 -63 -45h-133q-66 0 -66 66q0 53 55 64q9 2 96 2l110 330l-256 771q-4 12 -4 21z" />
    <glyph glyph-name="z" unicode="z" 
d="M462 792q-66 0 -66 66t66 66h528q66 0 66 -67q0 -19 -13 -39l-457 -686h404q66 0 66 -66t-66 -66h-528q-66 0 -66 65q0 21 13 41l457 686h-404z" />
    <glyph glyph-name="braceleft" unicode="{" 
d="M792 66q0 -51 66 -66t66 -66q0 -66 -74 -66t-132 57.5t-58 140.5v462q0 51 -66 66t-66 66t66 66t66 66v462q0 83 58 140.5t132 57.5t74 -66q0 -51 -66 -66t-66 -66v-462q0 -109 -66 -132q30 -8 48 -52t18 -80v-462z" />
    <glyph glyph-name="bar" unicode="|" 
d="M726 -528q-66 0 -66 66v2376q0 66 66 66t66 -66v-2376q0 -66 -66 -66z" />
    <glyph glyph-name="braceright" unicode="}" 
d="M660 1254q0 51 -66 66t-66 66q0 66 74 66t132 -57.5t58 -140.5v-462q0 -51 66 -66t66 -66t-66 -66t-66 -66v-462q0 -83 -58 -140.5t-132 -57.5t-74 66q0 51 66 66t66 66v462q0 109 66 132q-30 8 -48 52t-18 80v462z" />
    <glyph glyph-name="asciitilde" unicode="~" 
d="M855 264q-68 0 -151.5 66t-109.5 66t-66 -33t-66 -33t-46 20t-20 50t27 49q63 47 92 63t89 16t144 -66t110 -66t66.5 33t65.5 33q66 0 66 -66q0 -30 -27 -54q-26 -18 -66 -48t-108 -30z" />
    <glyph glyph-name="c128" 
d="M1259 232q25 0 43 -20t18 -50q0 -31 -26 -49q-163 -113 -370 -113q-296 0 -494 223q-93 105 -136 239h-96q-66 0 -66 66t66 66h69q-3 29 -3 64t3 68h-69q-66 0 -66 66t66 66h96q66 208 240 335t398 127t407 -147q23 -19 23 -46t-19 -49t-45 -21q-26 0 -47 18
q-141 113 -315 113t-307 -90t-195 -240h729q66 0 66 -66t-66 -66h-763q-4 -28 -4 -66t4 -66h659q66 0 66 -66t-66 -66h-625q82 -202 283 -288q98 -42 207 -42q160 0 290 86q21 14 45 14z" />
    <glyph glyph-name="nonbreakingspace" unicode="&#xa0;" 
 />
    <glyph glyph-name="exclamdown" unicode="&#xa1;" 
d="M660 1188v66q0 66 66 66t66 -66v-66q0 -66 -66 -66t-66 66zM660 858q0 66 66 66t66 -66v-792q0 -66 -66 -66t-66 66v792z" />
    <glyph glyph-name="cent" unicode="&#xa2;" 
d="M726 132v660h-66q-55 0 -93.5 -38.5t-38.5 -93.5v-396q0 -54 39 -93t93 -39h66zM726 0h-66q-111 0 -187.5 76.5t-76.5 187.5v396q0 111 76.5 187.5t187.5 76.5h66v132q0 66 66 66t66 -66v-132h132q66 0 66 -66t-66 -66h-132v-660h132q66 0 66 -66t-66 -66h-132v-132
q0 -66 -66 -66t-66 66v132z" />
    <glyph glyph-name="sterling" unicode="&#xa3;" 
d="M462 594h-132q-66 0 -66 66t66 66h132v264q0 137 96.5 233.5t234.5 96.5t233.5 -95.5t95.5 -234.5q0 -66 -66 -66t-66 74t-58 132t-140 58t-140 -58t-58 -140v-264h198q66 0 66 -66t-66 -66h-198v-330q0 -89 -56 -132h386q55 0 93.5 38.5t38.5 93.5q0 66 66 66t66 -66
q0 -111 -76.5 -187.5t-187.5 -76.5h-594q-66 0 -66 66t66 66q55 0 93.5 38.5t38.5 93.5v330z" />
    <glyph glyph-name="currency" unicode="&#xa4;" 
d="M330 198q-66 0 -66 66q0 28 19 47l73 73q-92 121 -92 275t92 278l-73 72q-19 19 -19 47q0 66 66 66q28 0 47 -19l73 -73q121 92 274 92t279 -91l72 72q19 19 47 19q66 0 66 -66q0 -28 -19 -47l-73 -73q92 -121 92 -274t-91 -278l72 -73q19 -19 19 -47q0 -66 -66 -66
q-28 0 -47 19l-73 73q-122 -92 -276 -92t-276 92l-73 -73q-19 -19 -47 -19zM727 990q-138 0 -234.5 -96.5t-96.5 -233.5t96.5 -233.5t233.5 -96.5t233.5 96.5t96.5 234.5t-95.5 233.5t-233.5 95.5z" />
    <glyph glyph-name="yen" unicode="&#xa5;" 
d="M657 330h-327q-66 0 -66 66t66 66h327v198h-327q-66 0 -66 66t66 66h239l-293 424q-12 17 -12 38q0 66 66 66q36 0 55 -28l338 -496l344 496q19 28 51 28t51 -19.5t19 -43.5t-12 -41l-293 -424h239q66 0 66 -66t-66 -66h-333v-198h333q66 0 66 -66t-66 -66h-333v-264
q0 -66 -66 -66t-66 66v264z" />
    <glyph glyph-name="brokenbar" unicode="&#xa6;" 
d="M726 0q-66 0 -66 66v462q0 66 66 66t66 -66v-462q0 -66 -66 -66zM726 726q-66 0 -66 66v462q0 66 66 66t66 -66v-462q0 -66 -66 -66z" />
    <glyph glyph-name="section" unicode="&#xa7;" 
d="M462 660q0 119 90 198q-90 80 -90 194t77 191t173 77t166.5 -49t96.5 -126q4 -12 4 -31t-19.5 -38.5t-50.5 -19.5t-70 66t-103 66t-103 -39t-39 -93t39 -93t102 -39t124 -35q131 -78 131 -229q0 -120 -91 -198q91 -78 91 -193t-77 -192t-173 -77t-164 49t-99 127
q-4 10 -4 30t19.5 39t55.5 19t53 -43q37 -89 125 -89q55 0 93.5 38t38.5 94t-38 94t-102 38t-124 36q-132 77 -132 228zM726 792q-56 0 -94 -39t-38 -93t39 -93t93 -39t93 38t39 94t-38 94t-94 38z" />
    <glyph glyph-name="dieresis" unicode="&#xa8;" 
d="M858 1584v66q0 66 66 66t66 -66v-66q0 -66 -66 -66t-66 66zM462 1584v66q0 66 66 66t66 -66v-66q0 -66 -66 -66t-66 66z" />
    <glyph glyph-name="copyright" unicode="&#xa9;" 
d="M858 924h-132q-55 0 -93.5 -38.5t-38.5 -93.5v-132q0 -54 39 -93t93 -39h132q66 0 66 -66t-66 -66h-132q-111 0 -187.5 77t-76.5 187v132q0 111 77 187.5t187 76.5h132q66 0 66 -66t-66 -66zM726 1188q-192 0 -327 -135t-135 -326t136 -327t327 -136t326 135t135 327
t-135 327t-327 135zM726 1320q246 0 420 -174t174 -420t-174 -420t-420 -174t-420 174t-174 420t174 420t420 174z" />
    <glyph glyph-name="ordfeminine" unicode="&#xaa;" 
d="M990 198h-528q-66 0 -66 66t66 66h528q66 0 66 -66t-66 -66zM924 858h-264q-132 0 -132 -99t132 -99h264v198zM660 528q-264 0 -264 231t264 231h264v66q0 56 -38 94t-94 38h-264q-66 0 -66 66t66 66h264q111 0 187.5 -76.5t76.5 -187.5v-462q0 -66 -66 -66h-330z" />
    <glyph glyph-name="guillemotleft" unicode="&#xab;" 
d="M726 464q0 24 18 45l260 325q19 24 52 24q66 0 66 -66q0 -21 -15 -40l-231 -289l231 -289q15 -19 15 -44t-19 -44.5t-49 -19.5t-50 25l-259 325q-19 24 -19 48zM330 464q0 24 18 45l260 325q19 24 52 24q66 0 66 -66q0 -21 -15 -40l-231 -289l231 -289q15 -19 15 -44
t-19 -44.5t-49 -19.5t-50 25l-259 325q-19 24 -19 48z" />
    <glyph glyph-name="logicalnot" unicode="&#xac;" 
d="M990 660h-594q-66 0 -66 66t66 66h660q66 0 66 -66v-396q0 -66 -66 -66t-66 66v330z" />
    <glyph glyph-name="sfthyphen" unicode="&#xad;" 
d="M990 528h-528q-66 0 -66 66t66 66h528q66 0 66 -66t-66 -66z" />
    <glyph glyph-name="registered" unicode="&#xae;" 
d="M660 924v-132h66q66 0 66 66t-66 66h-66zM594 1056h132q82 0 140 -58t58 -127t-28 -119t-79 -68l101 -195q6 -12 6 -27q0 -66 -66 -66q-41 0 -60 39l-112 225h-26v-198q0 -66 -66 -66t-66 66v528q0 66 66 66zM726 1188q-192 0 -327 -135t-135 -326t136 -327t327 -136
t326 135t135 327t-135 327t-327 135zM726 1320q246 0 420 -174t174 -420t-174 -420t-420 -174t-420 174t-174 420t174 420t420 174z" />
    <glyph glyph-name="glyph108" unicode="&#xaf;" 
d="M1122 1584h-792q-66 0 -66 66t66 66h792q66 0 66 -66t-66 -66z" />
    <glyph glyph-name="degree" unicode="&#xb0;" 
d="M726 1321q110 0 187 -77t77 -187t-77 -187t-187 -77t-187 77t-77 187t77 187t187 77zM726 1189q-56 0 -94 -38.5t-38 -92.5t39 -93.5t93 -39.5t93 38.5t39 94.5t-38 93.5t-94 37.5z" />
    <glyph glyph-name="plusminus" unicode="&#xb1;" 
d="M990 0h-528q-66 0 -66 66t66 66h528q66 0 66 -66t-66 -66zM660 528h-198q-66 0 -66 66t66 66h198v198q0 66 66 66t66 -66v-198h198q66 0 66 -66t-66 -66h-198v-198q0 -66 -66 -66t-66 66v198z" />
    <glyph glyph-name="twosuperior" unicode="&#xb2;" 
d="M924 1056q66 0 66 -66t-66 -66h-396q-66 0 -66 66q0 26 42 66l294 283q60 57 60 113t-38 94t-94 38q-91 0 -124 -86q-18 -46 -54 -46t-55.5 20t-19.5 38t5 32q27 79 95.5 126.5t165.5 47.5t174 -77t77 -188t-79 -186l-221 -209h234z" />
    <glyph glyph-name="threesuperior" unicode="&#xb3;" 
d="M693 1320h-66q-66 0 -66 66t66 66h66q27 0 46.5 19.5t19.5 46.5q0 66 -66 66h-132q-66 0 -66 66t66 66h132q82 0 140 -58t58 -132t-40 -127q106 -77 106 -199t-77.5 -199t-186.5 -77h-132q-66 0 -66 66t66 66h132q55 0 93.5 38t38.5 94t-38 94t-94 38z" />
    <glyph glyph-name="acute" unicode="&#xb4;" 
d="M594 1452q-66 0 -66 66q0 34 26 53l264 198q17 13 40 13q66 0 66 -66q0 -34 -26 -53l-264 -198q-17 -13 -40 -13z" />
    <glyph glyph-name="mu1" unicode="&#xb5;" 
d="M396 858q0 66 66 66t66 -66v-528q0 -83 58 -140.5t140 -57.5t140 58t58 140v528q0 66 66 66t66 -66v-528q0 -137 -97 -233.5t-221 -96.5t-210 66v-396q0 -66 -66 -66t-66 66v1188z" />
    <glyph glyph-name="paragraph" unicode="&#xb6;" 
d="M660 1188v-1122q0 -66 -66 -66t-66 66v601q-116 23 -190 114t-74 219t96.5 224t233.5 96h528q66 0 66 -66q0 -25 -20 -45t-53 -22q15 1 -59 1v-1122q0 -66 -66 -66t-66 66v1122h-264zM396 990q0 -63 36.5 -114.5t95.5 -72.5v374q-132 -45 -132 -187z" />
    <glyph glyph-name="glyph114" unicode="&#xb7;" 
d="M693 660h66q66 0 66 -66t-66 -66h-66q-66 0 -66 66t66 66z" />
    <glyph glyph-name="cedilla" unicode="&#xb8;" 
d="M753 132q72 0 72 -56q0 -9 -2 -17l-66 -273q-12 -50 -64 -50q-66 0 -66 66q0 8 2 16l66 273q10 41 58 41z" />
    <glyph glyph-name="onesuperior" unicode="&#xb9;" 
d="M627 1320q-66 0 -66 66q0 23 13 40l198 264q20 26 53 26q66 0 66 -66v-660q0 -66 -66 -66t-66 66v462l-79 -106q-19 -26 -53 -26z" />
    <glyph glyph-name="ordmasculine" unicode="&#xba;" 
d="M924 858v132q0 82 -58 140t-140 58t-140 -58t-58 -140v-132q0 -83 58 -140.5t140 -57.5t140 58t58 140zM396 858v132q0 137 96.5 233.5t234.5 96.5t233.5 -95.5t95.5 -234.5v-132q0 -137 -96.5 -233.5t-233.5 -96.5t-233.5 96.5t-96.5 233.5zM990 198h-528q-66 0 -66 66
t66 66h528q66 0 66 -66t-66 -66z" />
    <glyph glyph-name="guillemotright" unicode="&#xbb;" 
d="M398 66q-30 0 -49 20t-19 44t15 44l231 289l-231 289q-15 19 -15 40q0 66 66 66q33 0 52 -24l260 -325q18 -21 18 -45t-19 -48l-259 -325q-20 -25 -50 -25zM794 66q-30 0 -49 20t-19 44t15 44l231 289l-231 289q-15 19 -15 40q0 66 66 66q33 0 52 -24l260 -325
q18 -21 18 -45t-19 -48l-259 -325q-20 -25 -50 -25z" />
    <glyph glyph-name="onequarter" unicode="&#xbc;" 
d="M264 66q0 19 8 33l661 1187q19 34 57 34q66 0 66 -66q0 -18 -8 -32l-661 -1187q-19 -35 -57 -35q-66 0 -66 66zM198 1056q-66 0 -66 66q0 23 13 40l198 264q20 26 53 26q66 0 66 -66v-660q0 -66 -66 -66t-66 66v462l-79 -106q-19 -26 -53 -26zM990 660q66 0 66 -66
q0 -14 -5 -26l-159 -370h164q0 70 4 86q12 46 62 46t62 -46q4 -16 4 -86q70 0 86 -4q46 -12 46 -62t-46 -62q-16 -4 -86 -4v-132q0 -66 -66 -66t-66 66v132h-264q-66 0 -66 66q0 14 5 26l198 462q17 40 61 40z" />
    <glyph glyph-name="onehalf" unicode="&#xbd;" 
d="M1254 0q66 0 66 -66t-66 -66h-396q-66 0 -66 66q0 26 42 66l294 283q60 57 60 113t-38 94t-94 38q-91 0 -124 -86q-18 -46 -54 -46t-55.5 20t-19.5 38t5 32q27 79 95.5 126.5t165.5 47.5t174 -77t77 -188t-79 -186l-221 -209h234zM264 66q0 19 8 33l661 1187q19 34 57 34
q66 0 66 -66q0 -18 -8 -32l-661 -1187q-19 -35 -57 -35q-66 0 -66 66zM198 1056q-66 0 -66 66q0 23 13 40l198 264q20 26 53 26q66 0 66 -66v-660q0 -66 -66 -66t-66 66v462l-79 -106q-19 -26 -53 -26z" />
    <glyph glyph-name="threequarters" unicode="&#xbe;" 
d="M330 1056h-66q-66 0 -66 66t66 66h66q27 0 46.5 19.5t19.5 46.5q0 66 -66 66h-132q-66 0 -66 66t66 66h132q82 0 140 -58t58 -132t-40 -127q106 -77 106 -199t-77.5 -199t-186.5 -77h-132q-66 0 -66 66t66 66h132q55 0 93.5 38t38.5 94t-38 94t-94 38zM330 66q0 19 8 33
l661 1187q19 34 57 34q66 0 66 -66q0 -18 -8 -32l-661 -1187q-19 -35 -57 -35q-66 0 -66 66zM990 660q66 0 66 -66q0 -14 -5 -26l-159 -370h164q0 70 4 86q12 46 62 46t62 -46q4 -16 4 -86q70 0 86 -4q46 -12 46 -62t-46 -62q-16 -4 -86 -4v-132q0 -66 -66 -66t-66 66v132
h-264q-66 0 -66 66q0 14 5 26l198 462q17 40 61 40z" />
    <glyph glyph-name="questiondown" unicode="&#xbf;" 
d="M660 0q-111 0 -187.5 76.5t-76.5 187.5t78 187l165 161q21 20 21 48v198q0 66 66 66t66 -66v-198q0 -83 -63 -144l-164 -160q-37 -36 -37 -91t39 -94t93 -39q126 0 305 61q15 5 25 5q66 0 66 -66q0 -42 -40 -60q-163 -72 -356 -72zM792 1188q0 -66 -66 -66t-66 66v66
q0 66 66 66t66 -66v-66z" />
    <glyph glyph-name="Agrave" unicode="&#xc0;" 
d="M528 1782q0 66 66 66q23 0 40 -13l264 -198q26 -19 26 -53q0 -66 -66 -66q-23 0 -40 13l-264 198q-26 19 -26 53zM1188 66q0 -66 -66 -66q-48 0 -63 45l-95 285h-476l-95 -285q-15 -45 -63 -45q-66 0 -66 66q0 12 3 21l393 1180q18 53 66 53t65 -51l394 -1182q3 -9 3 -21
zM726 1044l-194 -582h388z" />
    <glyph glyph-name="Aacute" unicode="&#xc1;" 
d="M594 1518q-66 0 -66 66q0 34 26 53l264 198q17 13 40 13q66 0 66 -66q0 -34 -26 -53l-264 -198q-17 -13 -40 -13zM1188 66q0 -66 -66 -66q-48 0 -63 45l-95 285h-476l-95 -285q-15 -45 -63 -45q-66 0 -66 66q0 12 3 21l393 1180q18 53 66 53t65 -51l394 -1182q3 -9 3 -21
zM726 1044l-194 -582h388z" />
    <glyph glyph-name="Acircumflex" unicode="&#xc2;" 
d="M528 1518q-66 0 -66 66q0 27 20 47l186 186q31 31 58 31t58 -31l186 -186q20 -20 20 -47q0 -66 -66 -66q-29 0 -48 19l-150 150l-150 -150q-19 -19 -48 -19zM1188 66q0 -66 -66 -66q-48 0 -63 45l-95 285h-476l-95 -285q-15 -45 -63 -45q-66 0 -66 66q0 12 3 21l393 1180
q18 53 66 53t65 -51l394 -1182q3 -9 3 -21zM726 1044l-194 -582h388z" />
    <glyph glyph-name="Atilde" unicode="&#xc3;" 
d="M869 1584q-54 0 -95 24q-40 24 -68 40t-61 42t-55 26t-62 -33t-66 -33t-46 20t-20 50t27 49q63 47 92 63t74 16t89 -23q35 -22 71 -44q21 -9 56 -37t57 -28t62.5 33t65.5 33q66 0 66 -66q0 -30 -27 -54q-26 -18 -66 -48t-94 -30zM1188 66q0 -66 -66 -66q-48 0 -63 45
l-95 285h-476l-95 -285q-15 -45 -63 -45q-66 0 -66 66q0 12 3 21l393 1180q18 53 66 53t65 -51l394 -1182q3 -9 3 -21zM726 1044l-194 -582h388z" />
    <glyph glyph-name="Adieresis" unicode="&#xc4;" 
d="M1188 66q0 -66 -66 -66q-48 0 -63 45l-95 285h-476l-95 -285q-15 -45 -63 -45q-66 0 -66 66q0 12 3 21l393 1180q18 53 66 53t65 -51l394 -1182q3 -9 3 -21zM726 1044l-194 -582h388zM858 1584v66q0 66 66 66t66 -66v-66q0 -66 -66 -66t-66 66zM462 1584v66q0 66 66 66
t66 -66v-66q0 -66 -66 -66t-66 66z" />
    <glyph glyph-name="Aring" unicode="&#xc5;" 
d="M726 1716q-41 0 -70 -29t-29 -70t29 -70t70 -29t70 29t29 70t-29 70t-70 29zM726 1848q96 0 163.5 -67.5t67.5 -163.5t-67.5 -163.5t-163.5 -67.5t-163.5 67.5t-67.5 163.5t67.5 163.5t163.5 67.5zM1188 66q0 -66 -66 -66q-48 0 -63 45l-95 285h-476l-95 -285
q-15 -45 -63 -45q-66 0 -66 66q0 12 3 21l393 1180q18 53 66 53t65 -51l394 -1182q3 -9 3 -21zM726 1044l-194 -582h388z" />
    <glyph glyph-name="AE" unicode="&#xc6;" 
d="M792 330h-436l-95 -285q-15 -45 -63 -45q-66 0 -66 66q0 12 3 21l393 1180q18 53 66 53h660q66 0 66 -66t-66 -66h-330v-396h264q66 0 66 -66t-66 -66h-264v-528h330q66 0 66 -66t-66 -66h-396q-66 0 -66 66v264zM792 462v726h-150l-242 -726h392z" />
    <glyph glyph-name="Ccedilla" unicode="&#xc7;" 
d="M660 -264q-66 0 -66 66q0 8 50 208q-109 28 -178.5 117.5t-69.5 202.5v660q0 137 96.5 233.5t233.5 96.5h264q66 0 66 -66t-66 -66h-264q-114 0 -171 -98q-27 -46 -27 -100v-660q0 -82 58 -140t140 -58h264q66 0 66 -66t-66 -66h-212l-54 -214q-13 -50 -64 -50z" />
    <glyph glyph-name="Egrave" unicode="&#xc8;" 
d="M528 1782q0 66 66 66q23 0 40 -13l264 -198q26 -19 26 -53q0 -66 -66 -66q-23 0 -40 13l-264 198q-26 19 -26 53zM396 66v1188q0 66 66 66h528q66 0 66 -66t-66 -66h-462v-396h330q66 0 66 -66t-66 -66h-330v-528h462q66 0 66 -66t-66 -66h-528q-66 0 -66 66z" />
    <glyph glyph-name="Eacute" unicode="&#xc9;" 
d="M594 1518q-66 0 -66 66q0 34 26 53l264 198q17 13 40 13q66 0 66 -66q0 -34 -26 -53l-264 -198q-17 -13 -40 -13zM396 66v1188q0 66 66 66h528q66 0 66 -66t-66 -66h-462v-396h330q66 0 66 -66t-66 -66h-330v-528h462q66 0 66 -66t-66 -66h-528q-66 0 -66 66z" />
    <glyph glyph-name="Ecircumflex" unicode="&#xca;" 
d="M528 1518q-66 0 -66 66q0 27 20 47l186 186q31 31 58 31t58 -31l186 -186q20 -20 20 -47q0 -66 -66 -66q-29 0 -48 19l-150 150l-150 -150q-19 -19 -48 -19zM396 66v1188q0 66 66 66h528q66 0 66 -66t-66 -66h-462v-396h330q66 0 66 -66t-66 -66h-330v-528h462
q66 0 66 -66t-66 -66h-528q-66 0 -66 66z" />
    <glyph glyph-name="Edieresis" unicode="&#xcb;" 
d="M858 1584v66q0 66 66 66t66 -66v-66q0 -66 -66 -66t-66 66zM462 1584v66q0 66 66 66t66 -66v-66q0 -66 -66 -66t-66 66zM396 66v1188q0 66 66 66h528q66 0 66 -66t-66 -66h-462v-396h330q66 0 66 -66t-66 -66h-330v-528h462q66 0 66 -66t-66 -66h-528q-66 0 -66 66z" />
    <glyph glyph-name="Igrave" unicode="&#xcc;" 
d="M528 1782q0 66 66 66q23 0 40 -13l264 -198q26 -19 26 -53q0 -66 -66 -66q-23 0 -40 13l-264 198q-26 19 -26 53zM726 0q-66 0 -66 66v1188q0 66 66 66t66 -66v-1188q0 -66 -66 -66z" />
    <glyph glyph-name="Iacute" unicode="&#xcd;" 
d="M594 1518q-66 0 -66 66q0 34 26 53l264 198q17 13 40 13q66 0 66 -66q0 -34 -26 -53l-264 -198q-17 -13 -40 -13zM726 0q-66 0 -66 66v1188q0 66 66 66t66 -66v-1188q0 -66 -66 -66z" />
    <glyph glyph-name="Icircumflex" unicode="&#xce;" 
d="M528 1518q-66 0 -66 66q0 27 20 47l186 186q31 31 58 31t58 -31l186 -186q20 -20 20 -47q0 -66 -66 -66q-29 0 -48 19l-150 150l-150 -150q-19 -19 -48 -19zM726 0q-66 0 -66 66v1188q0 66 66 66t66 -66v-1188q0 -66 -66 -66z" />
    <glyph glyph-name="Idieresis" unicode="&#xcf;" 
d="M858 1584v66q0 66 66 66t66 -66v-66q0 -66 -66 -66t-66 66zM462 1584v66q0 66 66 66t66 -66v-66q0 -66 -66 -66t-66 66zM726 0q-66 0 -66 66v1188q0 66 66 66t66 -66v-1188q0 -66 -66 -66z" />
    <glyph glyph-name="Eth" unicode="&#xd0;" 
d="M561 594v-462h330q82 0 140 58t58 140v660q0 82 -58 140t-140 58h-330v-462h132q66 0 66 -66t-66 -66h-132zM429 594h-132q-66 0 -66 66t66 66h132v528q0 66 66 66h396q139 0 234.5 -95.5t95.5 -234.5v-660q0 -137 -96.5 -233.5t-233.5 -96.5h-396q-66 0 -66 66v528z" />
    <glyph glyph-name="Ntilde" unicode="&#xd1;" 
d="M855 1584q-68 0 -151.5 66t-109.5 66t-66 -33t-66 -33t-46 20t-20 50t27 49q63 47 92 63t89 16t144 -66t110 -66t66.5 33t65.5 33q66 0 66 -66q0 -30 -27 -54q-26 -18 -66 -48t-108 -30zM990 1254q0 66 66 66t66 -66v-1188q0 -66 -66 -66q-40 0 -58 33l-536 967v-934
q0 -66 -66 -66t-66 66v1188q0 66 66 66q39 0 61 -39l533 -960v933z" />
    <glyph glyph-name="Ograve" unicode="&#xd2;" 
d="M1122 396q0 -164 -116 -280t-280 -116t-280 116t-116 280v528q0 164 116 280t280 116t280 -115.5t116 -280.5v-528zM990 396v528q0 111 -76.5 187.5t-187.5 76.5t-187.5 -76.5t-76.5 -187.5v-528q0 -111 76.5 -187.5t187.5 -76.5t187.5 76.5t76.5 187.5zM528 1782
q0 66 66 66q23 0 40 -13l264 -198q26 -19 26 -53q0 -66 -66 -66q-23 0 -40 13l-264 198q-26 20 -26 53z" />
    <glyph glyph-name="Oacute" unicode="&#xd3;" 
d="M1122 396q0 -164 -116 -280t-280 -116t-280 116t-116 280v528q0 164 116 280t280 116t280 -115.5t116 -280.5v-528zM990 396v528q0 111 -76.5 187.5t-187.5 76.5t-187.5 -76.5t-76.5 -187.5v-528q0 -111 76.5 -187.5t187.5 -76.5t187.5 76.5t76.5 187.5zM594 1518
q-66 0 -66 66q0 34 26 53l264 198q17 13 40 13q66 0 66 -66q0 -33 -26 -53l-264 -198q-17 -13 -40 -13z" />
    <glyph glyph-name="Ocircumflex" unicode="&#xd4;" 
d="M1122 396q0 -164 -116 -280t-280 -116t-280 116t-116 280v528q0 164 116 280t280 116t280 -115.5t116 -280.5v-528zM990 396v528q0 111 -76.5 187.5t-187.5 76.5t-187.5 -76.5t-76.5 -187.5v-528q0 -111 76.5 -187.5t187.5 -76.5t187.5 76.5t76.5 187.5zM528 1518
q-66 0 -66 66q0 27 20 47l186 186q31 31 58 31t58 -31l186 -186q20 -20 20 -47q0 -66 -66 -66q-29 0 -48 19l-150 150l-150 -150q-19 -19 -48 -19z" />
    <glyph glyph-name="Otilde" unicode="&#xd5;" 
d="M1122 396q0 -164 -116 -280t-280 -116t-280 116t-116 280v528q0 164 116 280t280 116t280 -115.5t116 -280.5v-528zM990 396v528q0 111 -76.5 187.5t-187.5 76.5t-187.5 -76.5t-76.5 -187.5v-528q0 -111 76.5 -187.5t187.5 -76.5t187.5 76.5t76.5 187.5zM854 1584
q-66 0 -150 66t-110 66t-66 -33t-66 -33t-46 20t-20 48t27 51q96 79 168 79t156.5 -66t110.5 -66t66 33t66 33q66 0 66 -66q0 -30 -27 -55q-3 -1 -56 -39t-119 -38z" />
    <glyph glyph-name="Odieresis" unicode="&#xd6;" 
d="M1122 396q0 -164 -116 -280t-280 -116t-280 116t-116 280v528q0 164 116 280t280 116t280 -115.5t116 -280.5v-528zM990 396v528q0 111 -76.5 187.5t-187.5 76.5t-187.5 -76.5t-76.5 -187.5v-528q0 -111 76.5 -187.5t187.5 -76.5t187.5 76.5t76.5 187.5zM858 1584v66
q0 66 66 66t66 -66v-66q0 -66 -66 -66t-66 66zM462 1584v66q0 66 66 66t66 -66v-66q0 -66 -66 -66t-66 66z" />
    <glyph glyph-name="multiply" unicode="&#xd7;" 
d="M462 132q-27 0 -46.5 20t-19.5 46t20 47l217 217l-217 217q-20 21 -20 47t19.5 46t46.5 20t47 -20l217 -217l218 218q20 20 46 20t46.5 -20.5t20.5 -46.5t-20 -46l-218 -218l218 -218q20 -20 20 -47t-20 -46t-47 -19t-46 19l-218 218l-217 -217q-20 -20 -47 -20z" />
    <glyph glyph-name="Oslash" unicode="&#xd8;" 
d="M726 1188q-111 0 -187.5 -76.5t-76.5 -187.5v-466l503 576q-67 154 -239 154zM726 132q111 0 187.5 76.5t76.5 187.5v466l-504 -576q73 -154 240 -154zM1188 1254q66 0 66 -66q0 -25 -16 -43l-125 -143q9 -44 9 -78v-528q0 -164 -116 -280t-280 -116q-211 0 -332 180
l-80 -91q-20 -23 -50 -23q-66 0 -66 66q0 25 17 44l123 141q-8 42 -8 79v528q0 164 116 280t280 116q213 0 332 -181l81 93q19 22 49 22z" />
    <glyph glyph-name="Ugrave" unicode="&#xd9;" 
d="M1122 1254v-858q0 -164 -116 -280t-280 -116t-280 116t-116 280v858q0 66 66 66t66 -66v-858q0 -111 76.5 -187.5t187.5 -76.5t187.5 76.5t76.5 187.5v858q0 66 66 66t66 -66zM528 1782q0 66 66 66q23 0 40 -13l264 -198q26 -19 26 -53q0 -66 -66 -66q-23 0 -40 13
l-264 198q-26 20 -26 53z" />
    <glyph glyph-name="Uacute" unicode="&#xda;" 
d="M1122 1254v-858q0 -164 -116 -280t-280 -116t-280 116t-116 280v858q0 66 66 66t66 -66v-858q0 -111 76.5 -187.5t187.5 -76.5t187.5 76.5t76.5 187.5v858q0 66 66 66t66 -66zM594 1518q-66 0 -66 66q0 34 26 53l264 198q17 13 40 13q66 0 66 -66q0 -33 -26 -53
l-264 -198q-17 -13 -40 -13z" />
    <glyph glyph-name="Ucircumflex" unicode="&#xdb;" 
d="M1122 1254v-858q0 -164 -116 -280t-280 -116t-280 116t-116 280v858q0 66 66 66t66 -66v-858q0 -111 76.5 -187.5t187.5 -76.5t187.5 76.5t76.5 187.5v858q0 66 66 66t66 -66zM528 1518q-66 0 -66 66q0 27 20 47l186 186q31 31 58 31t58 -31l186 -186q20 -20 20 -47
q0 -66 -66 -66q-29 0 -48 19l-150 150l-150 -150q-19 -19 -48 -19z" />
    <glyph glyph-name="Udieresis" unicode="&#xdc;" 
d="M1122 1254v-858q0 -164 -116 -280t-280 -116t-280 116t-116 280v858q0 66 66 66t66 -66v-858q0 -111 76.5 -187.5t187.5 -76.5t187.5 76.5t76.5 187.5v858q0 66 66 66t66 -66zM858 1584v66q0 66 66 66t66 -66v-66q0 -66 -66 -66t-66 66zM462 1584v66q0 66 66 66t66 -66
v-66q0 -66 -66 -66t-66 66z" />
    <glyph glyph-name="Yacute" unicode="&#xdd;" 
d="M792 66q0 -66 -66 -66t-66 66v594l-384 556q-12 17 -12 38q0 66 66 66q36 0 55 -28l341 -496l341 496q19 28 55 28q66 0 66 -66q0 -21 -12 -38l-384 -556v-594zM594 1518q-66 0 -66 66q0 34 26 53l264 198q17 13 40 13q66 0 66 -66q0 -33 -26 -53l-264 -198
q-17 -13 -40 -13z" />
    <glyph glyph-name="Thorn" unicode="&#xde;" 
d="M462 924v-528h264q111 0 187.5 76.5t76.5 187.5t-76.5 187.5t-187.5 76.5h-264zM396 1320q66 0 66 -66v-198h264q165 0 280.5 -115.5t115.5 -285.5t-110.5 -280.5t-285.5 -110.5h-264v-198q0 -66 -66 -66t-66 66v1188q0 66 66 66z" />
    <glyph glyph-name="germandbls" unicode="&#xdf;" 
d="M660 1320h132q137 0 233.5 -97t96.5 -247t-132 -250q132 -100 132 -264v-132q0 -137 -97 -233.5t-233 -96.5q-66 0 -66 66t74 66t132 57.5t58 140.5v132q0 82 -58 140t-132 58t-74 66t74 66t132 58t58 140t-58 140t-140 58h-132q-83 0 -140.5 -57.5t-57.5 -140.5v-924
q0 -66 -66 -66t-66 66v924q0 137 97 233.5t233 96.5z" />
    <glyph glyph-name="agrave" unicode="&#xe0;" 
d="M528 1386q0 66 66 66q23 0 40 -13l264 -198q26 -19 26 -53q0 -66 -66 -66q-23 0 -40 13l-264 198q-26 20 -26 53zM924 396h-264q-55 0 -93.5 -39t-38.5 -93t39 -93t93 -39h264v264zM660 0q-111 0 -187.5 76.5t-76.5 187.5q0 72 35 133q75 131 229 131h264v132
q0 56 -38 94t-94 38h-264q-66 0 -66 66t66 66h264q111 0 187.5 -76.5t76.5 -187.5v-594q0 -66 -66 -66h-330z" />
    <glyph glyph-name="aacute" unicode="&#xe1;" 
d="M594 1122q-66 0 -66 66q0 34 26 53l264 198q17 13 40 13q66 0 66 -66q0 -33 -26 -53l-264 -198q-17 -13 -40 -13zM924 396h-264q-55 0 -93.5 -39t-38.5 -93t39 -93t93 -39h264v264zM660 0q-111 0 -187.5 76.5t-76.5 187.5q0 72 35 133q75 131 229 131h264v132
q0 56 -38 94t-94 38h-264q-66 0 -66 66t66 66h264q111 0 187.5 -76.5t76.5 -187.5v-594q0 -66 -66 -66h-330z" />
    <glyph glyph-name="acircumflex" unicode="&#xe2;" 
d="M528 1122q-66 0 -66 66q0 27 20 47l186 186q31 31 58 31t58 -31l186 -186q20 -20 20 -47q0 -66 -66 -66q-29 0 -48 19l-150 150l-150 -150q-19 -19 -48 -19zM924 396h-264q-55 0 -93.5 -39t-38.5 -93t39 -93t93 -39h264v264zM660 0q-111 0 -187.5 76.5t-76.5 187.5
q0 72 35 133q75 131 229 131h264v132q0 56 -38 94t-94 38h-264q-66 0 -66 66t66 66h264q111 0 187.5 -76.5t76.5 -187.5v-594q0 -66 -66 -66h-330z" />
    <glyph glyph-name="atilde" unicode="&#xe3;" 
d="M855 1122q-68 0 -151.5 66t-109.5 66t-66 -33t-66 -33t-46 20t-20 50t27 49q63 47 92 63t89 16t144 -66t110 -66t66.5 33t65.5 33q66 0 66 -66q0 -30 -27 -54q-26 -18 -66 -48t-108 -30zM924 396h-264q-55 0 -93.5 -39t-38.5 -93t39 -93t93 -39h264v264zM660 0
q-111 0 -187.5 76.5t-76.5 187.5q0 72 35 133q75 131 229 131h264v132q0 56 -38 94t-94 38h-264q-66 0 -66 66t66 66h264q111 0 187.5 -76.5t76.5 -187.5v-594q0 -66 -66 -66h-330z" />
    <glyph glyph-name="adieresis" unicode="&#xe4;" 
d="M858 1188v66q0 66 66 66t66 -66v-66q0 -66 -66 -66t-66 66zM462 1188v66q0 66 66 66t66 -66v-66q0 -66 -66 -66t-66 66zM924 396h-264q-55 0 -93.5 -39t-38.5 -93t39 -93t93 -39h264v264zM660 0q-111 0 -187.5 76.5t-76.5 187.5q0 72 35 133q75 131 229 131h264v132
q0 56 -38 94t-94 38h-264q-66 0 -66 66t66 66h264q111 0 187.5 -76.5t76.5 -187.5v-594q0 -66 -66 -66h-330z" />
    <glyph glyph-name="aring" unicode="&#xe5;" 
d="M726 1452q-41 0 -70 -29t-29 -70t29 -70t70 -29t70 29t29 70t-29 70t-70 29zM726 1584q96 0 163.5 -67.5t67.5 -163.5t-67.5 -163.5t-163.5 -67.5t-163.5 67.5t-67.5 163.5t67.5 163.5t163.5 67.5zM924 396h-264q-55 0 -93.5 -39t-38.5 -93t39 -93t93 -39h264v264zM660 0
q-111 0 -187.5 76.5t-76.5 187.5q0 72 35 133q75 131 229 131h264v132q0 56 -38 94t-94 38h-264q-66 0 -66 66t66 66h264q111 0 187.5 -76.5t76.5 -187.5v-594q0 -66 -66 -66h-330z" />
    <glyph glyph-name="ae" unicode="&#xe6;" 
d="M1056 660q0 56 -38 94t-94 38t-94 -38.5t-38 -93.5v-132h264v132zM660 396h-132q-55 0 -93.5 -39t-38.5 -93t39 -93t93 -39h132v264zM492 793l-67 -1q-95 0 -95 66t66 66h132q118 0 198 -88q78 88 194 88t192 -76.5t76 -187.5v-264h-396v-132q0 -54 39 -93t93 -39h198
q66 0 66 -66t-66 -66h-198q-74 0 -136 37q-16 -37 -62 -37h-198q-111 0 -187.5 76.5t-76.5 187.5t76.5 187.5t187.5 76.5h132v132q0 56 -38.5 94.5t-129.5 38.5z" />
    <glyph glyph-name="ccedilla" unicode="&#xe7;" 
d="M660 -264q-66 0 -66 66q0 8 51 211q-83 26 -133 95t-50 156v396q0 111 76.5 187.5t187.5 76.5h198q66 0 66 -66t-66 -66h-198q-55 0 -93.5 -38.5t-38.5 -93.5v-396q0 -54 39 -93t93 -39h198q66 0 66 -66t-66 -66h-146l-54 -214q-13 -50 -64 -50z" />
    <glyph glyph-name="egrave" unicode="&#xe8;" 
d="M528 1386q0 66 66 66q23 0 40 -13l264 -198q26 -19 26 -53q0 -66 -66 -66q-23 0 -40 13l-264 198q-26 19 -26 53zM528 396v-132q0 -54 39 -93t93 -39h330q66 0 66 -66t-66 -66h-330q-111 0 -187.5 76.5t-76.5 187.5v330q0 137 96.5 233.5t234.5 96.5t233.5 -95.5
t95.5 -234.5v-198h-528zM726 792q-82 0 -140 -58t-58 -140v-66h396v66q0 82 -58 140t-140 58z" />
    <glyph glyph-name="eacute" unicode="&#xe9;" 
d="M594 1122q-66 0 -66 66q0 34 26 53l264 198q17 13 40 13q66 0 66 -66q0 -34 -26 -53l-264 -198q-17 -13 -40 -13zM528 396v-132q0 -54 39 -93t93 -39h330q66 0 66 -66t-66 -66h-330q-111 0 -187.5 76.5t-76.5 187.5v330q0 137 96.5 233.5t234.5 96.5t233.5 -95.5
t95.5 -234.5v-198h-528zM726 792q-82 0 -140 -58t-58 -140v-66h396v66q0 82 -58 140t-140 58z" />
    <glyph glyph-name="ecircumflex" unicode="&#xea;" 
d="M528 1122q-66 0 -66 66q0 27 20 47l186 186q31 31 58 31t58 -31l186 -186q20 -20 20 -47q0 -66 -66 -66q-29 0 -48 19l-150 150l-150 -150q-19 -19 -48 -19zM528 396v-132q0 -54 39 -93t93 -39h330q66 0 66 -66t-66 -66h-330q-111 0 -187.5 76.5t-76.5 187.5v330
q0 137 96.5 233.5t234.5 96.5t233.5 -95.5t95.5 -234.5v-198h-528zM726 792q-82 0 -140 -58t-58 -140v-66h396v66q0 82 -58 140t-140 58z" />
    <glyph glyph-name="edieresis" unicode="&#xeb;" 
d="M858 1188v66q0 66 66 66t66 -66v-66q0 -66 -66 -66t-66 66zM462 1188v66q0 66 66 66t66 -66v-66q0 -66 -66 -66t-66 66zM528 396v-132q0 -54 39 -93t93 -39h330q66 0 66 -66t-66 -66h-330q-111 0 -187.5 76.5t-76.5 187.5v330q0 137 96.5 233.5t234.5 96.5t233.5 -95.5
t95.5 -234.5v-198h-528zM726 792q-82 0 -140 -58t-58 -140v-66h396v66q0 82 -58 140t-140 58z" />
    <glyph glyph-name="igrave" unicode="&#xec;" 
d="M528 1386q0 66 66 66q23 0 40 -13l264 -198q26 -19 26 -53q0 -66 -66 -66q-23 0 -40 13l-264 198q-26 19 -26 53zM660 858q0 66 66 66t66 -66v-792q0 -66 -66 -66t-66 66v792z" />
    <glyph glyph-name="iacute" unicode="&#xed;" 
d="M594 1122q-66 0 -66 66q0 34 26 53l264 198q17 13 40 13q66 0 66 -66q0 -34 -26 -53l-264 -198q-17 -13 -40 -13zM660 858q0 66 66 66t66 -66v-792q0 -66 -66 -66t-66 66v792z" />
    <glyph glyph-name="icircumflex" unicode="&#xee;" 
d="M528 1122q-66 0 -66 66q0 27 20 47l186 186q31 31 58 31t58 -31l186 -186q20 -20 20 -47q0 -66 -66 -66q-29 0 -48 19l-150 150l-150 -150q-19 -19 -48 -19zM660 858q0 66 66 66t66 -66v-792q0 -66 -66 -66t-66 66v792z" />
    <glyph glyph-name="idieresis" unicode="&#xef;" 
d="M858 1188v66q0 66 66 66t66 -66v-66q0 -66 -66 -66t-66 66zM462 1188v66q0 66 66 66t66 -66v-66q0 -66 -66 -66t-66 66zM660 858q0 66 66 66t66 -66v-792q0 -66 -66 -66t-66 66v792z" />
    <glyph glyph-name="eth" unicode="&#xf0;" 
d="M528 792q-55 0 -93.5 -38.5t-38.5 -93.5v-396q0 -54 39 -93t93 -39h264v660h-264zM792 1188h-198q-66 0 -66 66t66 66h198v264q0 66 66 66t66 -66v-264h198q66 0 66 -66t-66 -66h-198v-1122q0 -66 -66 -66h-330q-111 0 -187.5 76.5t-76.5 187.5v396q0 72 35 133
q75 131 229 131h264v264z" />
    <glyph glyph-name="ntilde" unicode="&#xf1;" 
d="M396 66v792q0 66 66 66h330q110 0 187 -77t77 -187v-594q0 -66 -66 -66t-66 66v594q0 56 -38 94t-94 38h-264v-726q0 -66 -66 -66t-66 66zM855 1122q-68 0 -151.5 66t-109.5 66t-66 -33t-66 -33t-46 20t-20 50t27 49q63 47 92 63t89 16t144 -66t110 -66t66.5 33t65.5 33
q66 0 66 -66q0 -30 -27 -54q-26 -18 -66 -48t-108 -30z" />
    <glyph glyph-name="ograve" unicode="&#xf2;" 
d="M528 1386q0 66 66 66q23 0 40 -13l264 -198q26 -19 26 -53q0 -66 -66 -66q-23 0 -40 13l-264 198q-26 19 -26 53zM924 330v264q0 82 -58 140t-140 58t-140 -58t-58 -140v-264q0 -83 58 -140.5t140 -57.5t140 58t58 140zM396 330v264q0 137 96.5 233.5t234.5 96.5
t233.5 -95.5t95.5 -234.5v-264q0 -137 -96.5 -233.5t-233.5 -96.5t-233.5 96.5t-96.5 233.5z" />
    <glyph glyph-name="oacute" unicode="&#xf3;" 
d="M594 1122q-66 0 -66 66q0 34 26 53l264 198q17 13 40 13q66 0 66 -66q0 -34 -26 -53l-264 -198q-17 -13 -40 -13zM924 330v264q0 82 -58 140t-140 58t-140 -58t-58 -140v-264q0 -83 58 -140.5t140 -57.5t140 58t58 140zM396 330v264q0 137 96.5 233.5t234.5 96.5
t233.5 -95.5t95.5 -234.5v-264q0 -137 -96.5 -233.5t-233.5 -96.5t-233.5 96.5t-96.5 233.5z" />
    <glyph glyph-name="ocircumflex" unicode="&#xf4;" 
d="M528 1122q-66 0 -66 66q0 27 20 47l186 186q31 31 58 31t58 -31l186 -186q20 -20 20 -47q0 -66 -66 -66q-29 0 -48 19l-150 150l-150 -150q-19 -19 -48 -19zM924 330v264q0 82 -58 140t-140 58t-140 -58t-58 -140v-264q0 -83 58 -140.5t140 -57.5t140 58t58 140zM396 330
v264q0 137 96.5 233.5t234.5 96.5t233.5 -95.5t95.5 -234.5v-264q0 -137 -96.5 -233.5t-233.5 -96.5t-233.5 96.5t-96.5 233.5z" />
    <glyph glyph-name="otilde" unicode="&#xf5;" 
d="M855 1122q-68 0 -151.5 66t-109.5 66t-66 -33t-66 -33t-46 20t-20 50t27 49q63 47 92 63t89 16t144 -66t110 -66t66.5 33t65.5 33q66 0 66 -66q0 -30 -27 -54q-26 -18 -66 -48t-108 -30zM924 330v264q0 82 -58 140t-140 58t-140 -58t-58 -140v-264q0 -83 58 -140.5
t140 -57.5t140 58t58 140zM396 330v264q0 137 96.5 233.5t234.5 96.5t233.5 -95.5t95.5 -234.5v-264q0 -137 -96.5 -233.5t-233.5 -96.5t-233.5 96.5t-96.5 233.5z" />
    <glyph glyph-name="odieresis" unicode="&#xf6;" 
d="M858 1188v66q0 66 66 66t66 -66v-66q0 -66 -66 -66t-66 66zM462 1188v66q0 66 66 66t66 -66v-66q0 -66 -66 -66t-66 66zM924 330v264q0 82 -58 140t-140 58t-140 -58t-58 -140v-264q0 -83 58 -140.5t140 -57.5t140 58t58 140zM396 330v264q0 137 96.5 233.5t234.5 96.5
t233.5 -95.5t95.5 -234.5v-264q0 -137 -96.5 -233.5t-233.5 -96.5t-233.5 96.5t-96.5 233.5z" />
    <glyph glyph-name="divide" unicode="&#xf7;" 
d="M660 792q0 66 66 66t66 -66v-66q0 -66 -66 -66t-66 66v66zM660 198q0 66 66 66t66 -66v-66q0 -66 -66 -66t-66 66v66zM990 396h-528q-66 0 -66 66t66 66h528q66 0 66 -66t-66 -66z" />
    <glyph glyph-name="oslash" unicode="&#xf8;" 
d="M736 792q-92 0 -150 -58t-58 -140v-236l356 356q-56 78 -148 78zM718 132q90 0 148 58t58 140v236l-356 -356q60 -78 150 -78zM1056 594v-264q0 -137 -97 -233.5t-241 -96.5t-244 116l-97 -97q-19 -19 -47 -19q-66 0 -66 66q0 28 19 47l126 126q-13 40 -13 91v264
q0 137 96.5 233.5t241.5 96.5t244 -116l97 97q19 19 47 19q66 0 66 -66q0 -28 -19 -47l-126 -126q13 -40 13 -91z" />
    <glyph glyph-name="ugrave" unicode="&#xf9;" 
d="M528 1386q0 66 66 66q23 0 40 -13l264 -198q26 -19 26 -53q0 -66 -66 -66q-23 0 -40 13l-264 198q-26 19 -26 53zM1056 858v-792q0 -66 -66 -66h-330q-111 0 -187.5 76.5t-76.5 187.5v594q0 66 66 66t66 -66v-594q0 -54 39 -93t93 -39h264v726q0 66 66 66t66 -66z" />
    <glyph glyph-name="uacute" unicode="&#xfa;" 
d="M594 1122q-66 0 -66 66q0 34 26 53l264 198q17 13 40 13q66 0 66 -66q0 -34 -26 -53l-264 -198q-17 -13 -40 -13zM1056 858v-792q0 -66 -66 -66h-330q-111 0 -187.5 76.5t-76.5 187.5v594q0 66 66 66t66 -66v-594q0 -54 39 -93t93 -39h264v726q0 66 66 66t66 -66z" />
    <glyph glyph-name="ucircumflex" unicode="&#xfb;" 
d="M528 1122q-66 0 -66 66q0 27 20 47l186 186q31 31 58 31t58 -31l186 -186q20 -20 20 -47q0 -66 -66 -66q-29 0 -48 19l-150 150l-150 -150q-19 -19 -48 -19zM1056 858v-792q0 -66 -66 -66h-330q-111 0 -187.5 76.5t-76.5 187.5v594q0 66 66 66t66 -66v-594q0 -54 39 -93
t93 -39h264v726q0 66 66 66t66 -66z" />
    <glyph glyph-name="udieresis" unicode="&#xfc;" 
d="M858 1188v66q0 66 66 66t66 -66v-66q0 -66 -66 -66t-66 66zM462 1188v66q0 66 66 66t66 -66v-66q0 -66 -66 -66t-66 66zM1056 858v-792q0 -66 -66 -66h-330q-111 0 -187.5 76.5t-76.5 187.5v594q0 66 66 66t66 -66v-594q0 -54 39 -93t93 -39h264v726q0 66 66 66t66 -66z
" />
    <glyph glyph-name="yacute" unicode="&#xfd;" 
d="M595 1122q-66 0 -66 66q0 34 26 53l264 198q17 13 40 13q66 0 66 -66q0 -34 -26 -53l-264 -198q-18 -13 -40 -13zM397 858q0 66 66 66q48 0 63 -45l201 -603l201 603q14 45 63 45q66 0 66 -66q0 -9 -4 -21l-395 -1188q-15 -45 -63 -45h-133q-66 0 -66 66q0 53 55 64
q9 2 96 2l110 330l-256 771q-4 12 -4 21z" />
    <glyph glyph-name="thorn" unicode="&#xfe;" 
d="M528 792v-660h264q55 0 93.5 38.5t38.5 93.5v396q0 56 -38 94t-94 38h-264zM396 1188q0 66 66 66t66 -66v-264h264q111 0 187.5 -77t76.5 -187v-396q0 -110 -76.5 -187t-187.5 -77h-264v-330q0 -66 -66 -66t-66 66v1518z" />
    <glyph glyph-name="ydieresis" unicode="&#xff;" 
d="M859 1188v66q0 66 66 66t66 -66v-66q0 -66 -66 -66t-66 66zM463 1188v66q0 66 66 66t66 -66v-66q0 -66 -66 -66t-66 66zM397 858q0 66 66 66q48 0 63 -45l201 -603l201 603q14 45 63 45q66 0 66 -66q0 -9 -4 -21l-395 -1188q-15 -45 -63 -45h-133q-66 0 -66 66
q0 53 55 64q9 2 96 2l110 330l-256 771q-4 12 -4 21z" />
    <glyph glyph-name="Amacron" unicode="&#x100;" 
d="M1056 1584h-660q-66 0 -66 66t66 66h660q66 0 66 -66t-66 -66zM1188 66q0 -66 -66 -66q-48 0 -63 45l-95 285h-476l-95 -285q-15 -45 -63 -45q-66 0 -66 66q0 12 3 21l393 1180q18 53 66 53t65 -51l394 -1182q3 -9 3 -21zM726 1044l-194 -582h388z" />
    <glyph glyph-name="amacron" unicode="&#x101;" 
d="M1056 1188h-660q-66 0 -66 66t66 66h660q66 0 66 -66t-66 -66zM924 396h-264q-55 0 -93.5 -39t-38.5 -93t39 -93t93 -39h264v264zM660 0q-111 0 -187.5 76.5t-76.5 187.5q0 72 35 133q75 131 229 131h264v132q0 56 -38 94t-94 38h-264q-66 0 -66 66t66 66h264
q111 0 187.5 -76.5t76.5 -187.5v-594q0 -66 -66 -66h-330z" />
    <glyph glyph-name="Abreve" unicode="&#x102;" 
d="M990 1782q0 -110 -77 -187t-187 -77t-186 77t-76 187q0 66 65 66t65 -66q0 -54 39 -93t93 -39t93 38.5t39 79.5t19.5 60.5t46.5 19.5q66 0 66 -66zM1188 66q0 -66 -66 -66q-48 0 -63 45l-95 285h-476l-95 -285q-15 -45 -63 -45q-66 0 -66 66q0 12 3 21l393 1180
q18 53 66 53t65 -51l394 -1182q3 -9 3 -21zM726 1044l-194 -582h388z" />
    <glyph glyph-name="abreve" unicode="&#x103;" 
d="M989 1452q0 -110 -76.5 -187t-186.5 -77t-186.5 77t-76.5 187q-1 66 65 66t66 -66q0 -54 39 -93t93 -39t93 38.5t39 79.5t19.5 60.5t46.5 19.5q65 0 65 -66zM924 396h-264q-55 0 -93.5 -39t-38.5 -93t39 -93t93 -39h264v264zM660 0q-111 0 -187.5 76.5t-76.5 187.5
q0 72 35 133q75 131 229 131h264v132q0 56 -38 94t-94 38h-264q-66 0 -66 66t66 66h264q111 0 187.5 -76.5t76.5 -187.5v-594q0 -66 -66 -66h-330z" />
    <glyph glyph-name="Aogonek" unicode="&#x104;" 
d="M1056 -264q-66 0 -66 66q0 8 2 16l61 247l-89 265h-476l-95 -285q-15 -45 -63 -45q-66 0 -66 66q0 12 3 21l393 1180q18 53 66 53t65 -51l394 -1182q3 -9 3 -19t-2 -18l-66 -264q-12 -50 -64 -50zM726 1044l-194 -582h388z" />
    <glyph glyph-name="aogonek" unicode="&#x105;" 
d="M1056 66q0 -8 -4 -24l-64 -256q-12 -50 -64 -50q-66 0 -66 66q0 8 48 198h-246q-111 0 -187.5 77t-76.5 187t76.5 187t187.5 77h264v132q0 56 -38 94t-94 38h-264q-66 0 -66 66t66 66h264q111 0 187.5 -76.5t76.5 -187.5v-594zM924 396h-264q-55 0 -93.5 -39t-38.5 -93
t39 -93t93 -39h264v264z" />
    <glyph glyph-name="Cacute" unicode="&#x106;" 
d="M594 1518q-66 0 -66 66q0 34 26 53l264 198q17 13 40 13q66 0 66 -66q0 -33 -26 -53l-264 -198q-17 -13 -40 -13zM990 1320q66 0 66 -66t-66 -66h-264q-83 0 -140.5 -58t-57.5 -140v-660q0 -82 58 -140t140 -58h264q66 0 66 -66t-66 -66h-264q-137 0 -233.5 96.5
t-96.5 233.5v660q0 137 96.5 233.5t233.5 96.5h264z" />
    <glyph glyph-name="cacute" unicode="&#x107;" 
d="M594 1122q-66 0 -66 66q0 34 26 53l264 198q17 13 40 13q66 0 66 -66q0 -33 -26 -53l-264 -198q-17 -13 -40 -13zM594 660v-396q0 -54 39 -93t93 -39h198q66 0 66 -66t-66 -66h-198q-111 0 -187.5 76.5t-76.5 187.5v396q0 111 76.5 187.5t187.5 76.5h198q66 0 66 -66
t-66 -66h-198q-55 0 -93.5 -38.5t-38.5 -93.5z" />
    <glyph glyph-name="Ccircumflex" unicode="&#x108;" 
d="M528 1518q-66 0 -66 66q0 27 20 47l186 186q31 31 58 31t58 -31l186 -186q20 -20 20 -47q0 -66 -66 -66q-28 0 -48 20l-150 150l-150 -150q-20 -20 -48 -20zM990 1320q66 0 66 -66t-66 -66h-264q-83 0 -140.5 -58t-57.5 -140v-660q0 -82 58 -140t140 -58h264q66 0 66 -66
t-66 -66h-264q-137 0 -233.5 96.5t-96.5 233.5v660q0 137 96.5 233.5t233.5 96.5h264z" />
    <glyph glyph-name="ccircumflex" unicode="&#x109;" 
d="M528 1122q-66 0 -66 66q0 27 20 47l186 186q31 31 58 31t58 -31l186 -186q20 -20 20 -47q0 -66 -66 -66q-29 0 -48 19l-150 150l-150 -150q-19 -19 -48 -19zM594 660v-396q0 -54 39 -93t93 -39h198q66 0 66 -66t-66 -66h-198q-111 0 -187.5 76.5t-76.5 187.5v396
q0 111 76.5 187.5t187.5 76.5h198q66 0 66 -66t-66 -66h-198q-55 0 -93.5 -38.5t-38.5 -93.5z" />
    <glyph glyph-name="Cdot" unicode="&#x10a;" 
d="M660 1584v66q0 66 66 66t66 -66v-66q0 -66 -66 -66t-66 66zM990 1320q66 0 66 -66t-66 -66h-264q-83 0 -140.5 -58t-57.5 -140v-660q0 -82 58 -140t140 -58h264q66 0 66 -66t-66 -66h-264q-137 0 -233.5 96.5t-96.5 233.5v660q0 137 96.5 233.5t233.5 96.5h264z" />
    <glyph glyph-name="cdot" unicode="&#x10b;" 
d="M660 1188v66q0 66 66 66t66 -66v-66q0 -66 -66 -66t-66 66zM594 660v-396q0 -54 39 -93t93 -39h198q66 0 66 -66t-66 -66h-198q-111 0 -187.5 76.5t-76.5 187.5v396q0 111 76.5 187.5t187.5 76.5h198q66 0 66 -66t-66 -66h-198q-55 0 -93.5 -38.5t-38.5 -93.5z" />
    <glyph glyph-name="Ccaron" unicode="&#x10c;" 
d="M924 1848q66 0 66 -66q0 -27 -20 -47l-186 -186q-31 -31 -58 -31t-58 31l-186 186q-20 20 -20 47q0 66 66 66q29 0 48 -19l150 -150l150 150q19 19 48 19zM990 1320q66 0 66 -66t-66 -66h-264q-83 0 -140.5 -58t-57.5 -140v-660q0 -82 58 -140t140 -58h264q66 0 66 -66
t-66 -66h-264q-137 0 -233.5 96.5t-96.5 233.5v660q0 137 96.5 233.5t233.5 96.5h264z" />
    <glyph glyph-name="ccaron" unicode="&#x10d;" 
d="M924 1452q66 0 66 -66q0 -27 -20 -47l-186 -186q-31 -31 -58 -31t-58 31l-186 186q-20 20 -20 47q0 66 66 66q28 0 48 -20l150 -150l150 150q20 20 48 20zM594 660v-396q0 -54 39 -93t93 -39h198q66 0 66 -66t-66 -66h-198q-111 0 -187.5 76.5t-76.5 187.5v396
q0 111 76.5 187.5t187.5 76.5h198q66 0 66 -66t-66 -66h-198q-55 0 -93.5 -38.5t-38.5 -93.5z" />
    <glyph glyph-name="Dcaron" unicode="&#x10e;" 
d="M924 1848q66 0 66 -66q0 -27 -20 -47l-186 -186q-31 -31 -58 -31t-58 31l-186 186q-20 20 -20 47q0 66 66 66q29 0 48 -19l150 -150l150 150q19 19 48 19zM462 1188v-1056h330q82 0 140 58t58 140v660q0 82 -58 140t-140 58h-330zM330 1254q0 66 66 66h396
q139 0 234.5 -95.5t95.5 -234.5v-660q0 -137 -96.5 -233.5t-233.5 -96.5h-396q-66 0 -66 66v1188z" />
    <glyph glyph-name="dcaron" unicode="&#x10f;" 
d="M1089 990v264q0 66 66 66t66 -66v-264q0 -66 -66 -66t-66 66zM495 792q-55 0 -93.5 -38.5t-38.5 -93.5v-396q0 -54 39 -93t93 -39h264v660h-264zM231 660q0 110 76.5 187t187.5 77h264v330q0 66 66 66t66 -66v-1188q0 -66 -66 -66h-330q-111 0 -187.5 76.5t-76.5 187.5
v396z" />
    <glyph glyph-name="Dslash" unicode="&#x110;" 
d="M561 594v-462h330q82 0 140 58t58 140v660q0 82 -58 140t-140 58h-330v-462h132q66 0 66 -66t-66 -66h-132zM429 594h-132q-66 0 -66 66t66 66h132v528q0 66 66 66h396q139 0 234.5 -95.5t95.5 -234.5v-660q0 -137 -96.5 -233.5t-233.5 -96.5h-396q-66 0 -66 66v528z" />
    <glyph glyph-name="dcroat" unicode="&#x111;" 
d="M528 792q-55 0 -93.5 -38.5t-38.5 -93.5v-396q0 -54 39 -93t93 -39h264v660h-264zM792 1188h-198q-66 0 -66 66t66 66h198v264q0 66 66 66t66 -66v-264h198q66 0 66 -66t-66 -66h-198v-1122q0 -66 -66 -66h-330q-111 0 -187.5 76.5t-76.5 187.5v396q0 110 76.5 187
t187.5 77h264v264z" />
    <glyph glyph-name="Emacron" unicode="&#x112;" 
d="M1056 1584h-660q-66 0 -66 66t66 66h660q66 0 66 -66t-66 -66zM396 66v1188q0 66 66 66h528q66 0 66 -66t-66 -66h-462v-396h330q66 0 66 -66t-66 -66h-330v-528h462q66 0 66 -66t-66 -66h-528q-66 0 -66 66z" />
    <glyph glyph-name="emacron" unicode="&#x113;" 
d="M1056 1188h-660q-66 0 -66 66t66 66h660q66 0 66 -66t-66 -66zM528 396v-132q0 -54 39 -93t93 -39h330q66 0 66 -66t-66 -66h-330q-111 0 -187.5 76.5t-76.5 187.5v330q0 137 96.5 233.5t234.5 96.5t233.5 -95.5t95.5 -234.5v-198h-528zM726 792q-82 0 -140 -58t-58 -140
v-66h396v66q0 82 -58 140t-140 58z" />
    <glyph glyph-name="Ebreve" unicode="&#x114;" 
d="M989 1782q0 -110 -76.5 -187t-186.5 -77t-186.5 77t-76.5 187q-1 66 65 66t66 -66q0 -54 39 -93t93 -39t93 38.5t39 79.5t19.5 60.5t46.5 19.5q65 0 65 -66zM396 66v1188q0 66 66 66h528q66 0 66 -66t-66 -66h-462v-396h330q66 0 66 -66t-66 -66h-330v-528h462
q66 0 66 -66t-66 -66h-528q-66 0 -66 66z" />
    <glyph glyph-name="ebreve" unicode="&#x115;" 
d="M989 1452q0 -110 -76.5 -187t-186.5 -77t-186.5 77t-76.5 187q-1 66 65 66t66 -66q0 -54 39 -93t93 -39t93 38.5t39 79.5t19.5 60.5t46.5 19.5q65 0 65 -66zM528 396v-132q0 -54 39 -93t93 -39h330q66 0 66 -66t-66 -66h-330q-111 0 -187.5 76.5t-76.5 187.5v330
q0 137 96.5 233.5t234.5 96.5t233.5 -95.5t95.5 -234.5v-198h-528zM726 792q-82 0 -140 -58t-58 -140v-66h396v66q0 82 -58 140t-140 58z" />
    <glyph glyph-name="Edot" unicode="&#x116;" 
d="M660 1584v66q0 66 66 66t66 -66v-66q0 -66 -66 -66t-66 66zM396 66v1188q0 66 66 66h528q66 0 66 -66t-66 -66h-462v-396h330q66 0 66 -66t-66 -66h-330v-528h462q66 0 66 -66t-66 -66h-528q-66 0 -66 66z" />
    <glyph glyph-name="edot" unicode="&#x117;" 
d="M660 1188v66q0 66 66 66t66 -66v-66q0 -66 -66 -66t-66 66zM528 396v-132q0 -54 39 -93t93 -39h330q66 0 66 -66t-66 -66h-330q-111 0 -187.5 76.5t-76.5 187.5v330q0 137 96.5 233.5t234.5 96.5t233.5 -95.5t95.5 -234.5v-198h-528zM726 792q-82 0 -140 -58t-58 -140
v-66h396v66q0 82 -58 140t-140 58z" />
    <glyph glyph-name="Eogonek" unicode="&#x118;" 
d="M924 -264q-66 0 -66 66q0 8 48 198h-444q-66 0 -66 66v1188q0 66 66 66h528q66 0 66 -66t-66 -66h-462v-396h330q66 0 66 -66t-66 -66h-330v-528h462q66 0 66 -66q0 -8 -4 -24l-64 -256q-12 -50 -64 -50z" />
    <glyph glyph-name="eogonek" unicode="&#x119;" 
d="M924 -264q-66 0 -66 66q0 8 48 198h-246q-111 0 -187.5 77t-76.5 187v330q0 137 96.5 233.5t234.5 96.5t233.5 -95.5t95.5 -234.5v-198h-528v-132q0 -54 39 -93t93 -39h330q66 0 66 -66q0 -8 -4 -24l-64 -256q-12 -50 -64 -50zM726 792q-82 0 -140 -58t-58 -140v-66h396
v66q0 82 -58 140t-140 58z" />
    <glyph glyph-name="Ecaron" unicode="&#x11a;" 
d="M924 1848q66 0 66 -66q0 -27 -20 -47l-186 -186q-31 -31 -58 -31t-58 31l-186 186q-20 20 -20 47q0 66 66 66q29 0 48 -19l150 -150l150 150q19 19 48 19zM396 66v1188q0 66 66 66h528q66 0 66 -66t-66 -66h-462v-396h330q66 0 66 -66t-66 -66h-330v-528h462q66 0 66 -66
t-66 -66h-528q-66 0 -66 66z" />
    <glyph glyph-name="ecaron" unicode="&#x11b;" 
d="M924 1452q66 0 66 -66q0 -27 -20 -47l-186 -186q-31 -31 -58 -31t-58 31l-186 186q-20 20 -20 47q0 66 66 66q28 0 48 -20l150 -150l150 150q20 20 48 20zM528 396v-132q0 -54 39 -93t93 -39h330q66 0 66 -66t-66 -66h-330q-111 0 -187.5 76.5t-76.5 187.5v330
q0 137 96.5 233.5t234.5 96.5t233.5 -95.5t95.5 -234.5v-198h-528zM726 792q-82 0 -140 -58t-58 -140v-66h396v66q0 82 -58 140t-140 58z" />
    <glyph glyph-name="Gcircumflex" unicode="&#x11c;" 
d="M528 1518q-66 0 -66 66q0 27 20 47l186 186q31 31 58 31t58 -31l186 -186q20 -20 20 -47q0 -66 -66 -66q-28 0 -48 20l-150 150l-150 -150q-20 -20 -48 -20zM660 132h330v528h-132q-66 0 -66 66t66 66h198q66 0 66 -66v-660q0 -66 -66 -66h-396q-137 0 -233.5 96.5
t-96.5 233.5v660q0 137 96.5 233.5t233.5 96.5h396q66 0 66 -66t-66 -66h-396q-83 0 -140.5 -58t-57.5 -140v-660q0 -83 57.5 -140.5t140.5 -57.5z" />
    <glyph glyph-name="gcircumflex" unicode="&#x11d;" 
d="M528 1122q-66 0 -66 66q0 27 20 47l186 186q31 31 58 31t58 -31l186 -186q20 -20 20 -47q0 -66 -66 -66q-28 0 -48 20l-150 150l-150 -150q-20 -20 -48 -20zM924 792h-264q-55 0 -93.5 -38.5t-38.5 -93.5v-396q0 -54 39 -93t93 -39h264v660zM990 924q66 0 66 -66v-990
q0 -111 -76.5 -187.5t-187.5 -76.5h-264q-66 0 -66 66t66 66h264q55 0 93.5 38.5t38.5 93.5v132h-264q-111 0 -187.5 77t-76.5 187v396q0 111 76.5 187.5t187.5 76.5h330z" />
    <glyph glyph-name="Gbreve" unicode="&#x11e;" 
d="M990 1782q0 -110 -77 -187t-187 -77t-187 77t-77 187q0 66 66 66t66 -66q0 -54 39 -93t93 -39t93 38.5t39 79.5t20 60.5t47 19.5q65 0 65 -66zM660 132h330v528h-132q-66 0 -66 66t66 66h198q66 0 66 -66v-660q0 -66 -66 -66h-396q-137 0 -233.5 96.5t-96.5 233.5v660
q0 137 96.5 233.5t233.5 96.5h396q66 0 66 -66t-66 -66h-396q-83 0 -140.5 -58t-57.5 -140v-660q0 -83 57.5 -140.5t140.5 -57.5z" />
    <glyph glyph-name="gbreve" unicode="&#x11f;" 
d="M989 1452q0 -110 -76.5 -187t-186.5 -77t-186.5 77t-76.5 187q-1 66 65 66t66 -66q0 -54 39 -93t93 -39t93 38.5t39 79.5t19.5 60.5t46.5 19.5q65 0 65 -66zM924 792h-264q-55 0 -93.5 -38.5t-38.5 -93.5v-396q0 -54 39 -93t93 -39h264v660zM990 924q66 0 66 -66v-990
q0 -111 -76.5 -187.5t-187.5 -76.5h-264q-66 0 -66 66t66 66h264q55 0 93.5 38.5t38.5 93.5v132h-264q-111 0 -187.5 77t-76.5 187v396q0 111 76.5 187.5t187.5 76.5h330z" />
    <glyph glyph-name="Gdot" unicode="&#x120;" 
d="M660 1584v66q0 66 66 66t66 -66v-66q0 -66 -66 -66t-66 66zM660 132h330v528h-132q-66 0 -66 66t66 66h198q66 0 66 -66v-660q0 -66 -66 -66h-396q-137 0 -233.5 96.5t-96.5 233.5v660q0 137 96.5 233.5t233.5 96.5h396q66 0 66 -66t-66 -66h-396q-83 0 -140.5 -58
t-57.5 -140v-660q0 -83 57.5 -140.5t140.5 -57.5z" />
    <glyph glyph-name="gdot" unicode="&#x121;" 
d="M660 1188v66q0 66 66 66t66 -66v-66q0 -66 -66 -66t-66 66zM924 792h-264q-55 0 -93.5 -38.5t-38.5 -93.5v-396q0 -54 39 -93t93 -39h264v660zM990 924q66 0 66 -66v-990q0 -111 -76.5 -187.5t-187.5 -76.5h-264q-66 0 -66 66t66 66h264q55 0 93.5 38.5t38.5 93.5v132
h-264q-111 0 -187.5 77t-76.5 187v396q0 111 76.5 187.5t187.5 76.5h330z" />
    <glyph glyph-name="Gcedilla" unicode="&#x122;" 
d="M726 -264q-66 0 -66 66q0 8 48 198h-48q-137 0 -233.5 96.5t-96.5 233.5v660q0 137 96.5 233.5t233.5 96.5h396q66 0 66 -66t-66 -66h-396q-83 0 -140.5 -58t-57.5 -140v-660q0 -83 57.5 -140.5t140.5 -57.5h330v528h-132q-66 0 -66 66t66 66h198q66 0 66 -66v-660
q0 -66 -66 -66h-212l-54 -214q-13 -50 -64 -50z" />
    <glyph glyph-name="gcedilla" unicode="&#x123;" 
d="M792 1518q66 0 66 -65q0 -9 -2 -17l-66 -264q-12 -50 -64 -50q-66 0 -66 66q0 8 68 280q12 50 64 50zM924 792h-264q-55 0 -93.5 -38.5t-38.5 -93.5v-396q0 -54 39 -93t93 -39h264v660zM990 924q66 0 66 -66v-990q0 -111 -76.5 -187.5t-187.5 -76.5h-264q-66 0 -66 66
t66 66h264q55 0 93.5 38.5t38.5 93.5v132h-264q-111 0 -187.5 77t-76.5 187v396q0 111 76.5 187.5t187.5 76.5h330z" />
    <glyph glyph-name="Hcircumflex" unicode="&#x124;" 
d="M528 1518q-66 0 -66 66q0 27 20 47l186 186q31 31 58 31t58 -31l186 -186q20 -20 20 -47q0 -66 -66 -66q-28 0 -48 20l-150 150l-150 -150q-20 -20 -48 -20zM330 66v1188q0 66 66 66t66 -66v-462h528v462q0 66 66 66t66 -66v-1188q0 -66 -66 -66t-66 66v594h-528v-594
q0 -66 -66 -66t-66 66z" />
    <glyph glyph-name="hcircumflex" unicode="&#x125;" 
d="M528 1518q-66 0 -66 66q0 27 20 47l186 186q31 31 58 31t58 -31l186 -186q20 -20 20 -47q0 -66 -66 -66q-28 0 -48 20l-150 150l-150 -150q-20 -20 -48 -20zM396 1254q0 66 66 66t66 -66v-330h264q109 0 186.5 -76t77.5 -183v-599q0 -66 -66 -66t-66 66v594q0 56 -38 94
t-94 38h-264v-726q0 -66 -66 -66t-66 66v1188z" />
    <glyph glyph-name="Hbar" unicode="&#x126;" 
d="M990 1188h-528v-396h528v396zM1122 1188v-1122q0 -66 -66 -66t-66 66v594h-528v-594q0 -66 -66 -66t-66 66v1122h-132q-66 0 -66 66t66 66h132v264q0 66 66 66t66 -66v-264h528v264q0 66 66 66t66 -66v-264h132q66 0 66 -66t-66 -66h-132z" />
    <glyph glyph-name="hbar" unicode="&#x127;" 
d="M627 1188v-264h264q109 0 186.5 -76t77.5 -183v-599q0 -66 -66 -66t-66 66v594q0 56 -38 94t-94 38h-264v-726q0 -66 -66 -66t-66 66v1122h-132q-66 0 -66 66t66 66h132v264q0 66 66 66t66 -66v-264h132q66 0 66 -66t-66 -66h-132z" />
    <glyph glyph-name="Itilde" unicode="&#x128;" 
d="M855 1584q-68 0 -151.5 66t-109.5 66t-66 -33t-66 -33t-46 20t-20 50t27 49q63 47 92 63t89 16t144 -66t110 -66t66.5 33t65.5 33q66 0 66 -66q0 -30 -27 -54q-26 -18 -66 -48t-108 -30zM726 0q-66 0 -66 66v1188q0 66 66 66t66 -66v-1188q0 -66 -66 -66z" />
    <glyph glyph-name="itilde" unicode="&#x129;" 
d="M855 1122q-68 0 -151.5 66t-109.5 66t-66 -33t-66 -33t-46 20t-20 50t27 49q63 47 92 63t89 16t144 -66t110 -66t66.5 33t65.5 33q66 0 66 -66q0 -30 -27 -54q-26 -18 -66 -48t-108 -30zM660 858q0 66 66 66t66 -66v-792q0 -66 -66 -66t-66 66v792z" />
    <glyph glyph-name="Imacron" unicode="&#x12a;" 
d="M1056 1584h-660q-66 0 -66 66t66 66h660q66 0 66 -66t-66 -66zM726 0q-66 0 -66 66v1188q0 66 66 66t66 -66v-1188q0 -66 -66 -66z" />
    <glyph glyph-name="imacron" unicode="&#x12b;" 
d="M1056 1188h-660q-66 0 -66 66t66 66h660q66 0 66 -66t-66 -66zM660 858q0 66 66 66t66 -66v-792q0 -66 -66 -66t-66 66v792z" />
    <glyph glyph-name="Ibreve" unicode="&#x12c;" 
d="M990 1782q0 -110 -77 -187t-187 -77t-187 77t-77 187q0 66 66 66t66 -66q0 -54 39 -93t93 -39t93 38.5t39 79.5t19.5 60.5t46.5 19.5q66 0 66 -66zM726 0q-66 0 -66 66v1188q0 66 66 66t66 -66v-1188q0 -66 -66 -66z" />
    <glyph glyph-name="ibreve" unicode="&#x12d;" 
d="M990 1452q0 -110 -77 -187t-187 -77t-187 77t-77 187q0 66 66 66t66 -66q0 -54 39 -93t93 -39t93 38.5t39 79.5t19.5 60.5t46.5 19.5q66 0 66 -66zM660 858q0 66 66 66t66 -66v-792q0 -66 -66 -66t-66 66v792z" />
    <glyph glyph-name="Iogonek" unicode="&#x12e;" 
d="M825 71q0 -13 -4 -29l-64 -256q-12 -50 -64 -50q-66 0 -66 66q0 8 2 16l64 256v1180q0 66 66 66t66 -66v-1183z" />
    <glyph glyph-name="iogonek" unicode="&#x12f;" 
d="M825 71q0 -13 -4 -29l-64 -256q-12 -50 -64 -50q-66 0 -66 66q0 8 2 16l43 171q9 25 21 85v784q0 66 66 66t66 -66v-787zM693 1188v66q0 66 66 66t66 -66v-66q0 -66 -66 -66t-66 66z" />
    <glyph glyph-name="Idotaccent" unicode="&#x130;" 
d="M660 1584v66q0 66 66 66t66 -66v-66q0 -66 -66 -66t-66 66zM726 0q-66 0 -66 66v1188q0 66 66 66t66 -66v-1188q0 -66 -66 -66z" />
    <glyph glyph-name="dotlessi" unicode="&#x131;" 
d="M660 858q0 66 66 66t66 -66v-792q0 -66 -66 -66t-66 66v792z" />
    <glyph glyph-name="IJ" unicode="&#x132;" 
d="M1122 1254v-924q0 -138 -96.5 -234t-233.5 -96h-132q-66 0 -66 66t66 66h132q83 0 140.5 58t57.5 140v924q0 66 66 66t66 -66zM396 0q-66 0 -66 66v1188q0 66 66 66t66 -66v-1188q0 -66 -66 -66z" />
    <glyph glyph-name="ij" unicode="&#x133;" 
d="M957 -132q0 -111 -76.5 -187.5t-187.5 -76.5h-66q-66 0 -66 66t66 66h66q56 0 94 39t38 93v990q0 66 66 66t66 -66v-990zM891 1320q66 0 66 -66v-66q0 -66 -66 -66t-66 66v66q0 66 66 66zM495 1188v66q0 66 66 66t66 -66v-66q0 -66 -66 -66t-66 66zM495 858q0 66 66 66
t66 -66v-792q0 -66 -66 -66t-66 66v792z" />
    <glyph glyph-name="Jcircumflex" unicode="&#x134;" 
d="M891 1254v-924q0 -138 -96.5 -234t-233.5 -96h-132q-66 0 -66 66t66 66h132q83 0 140.5 58t57.5 140v924q0 66 66 66t66 -66zM627 1518q-66 0 -66 66q0 27 20 47l186 186q31 31 58 31t58 -31l186 -186q20 -20 20 -47q0 -66 -66 -66q-28 0 -48 20l-150 150l-150 -150
q-20 -20 -48 -20z" />
    <glyph glyph-name="jcircumflex" unicode="&#x135;" 
d="M825 -132q0 -111 -76.5 -187.5t-187.5 -76.5h-66q-66 0 -66 66t66 66h66q56 0 94 39t38 93v990q0 66 66 66t66 -66v-990zM561 1122q-66 0 -66 66q0 27 20 47l186 186q31 31 58 31t58 -31l186 -186q20 -20 20 -47q0 -66 -66 -66q-29 0 -48 19l-150 150l-150 -150
q-19 -19 -48 -19z" />
    <glyph glyph-name="Kcedilla" unicode="&#x136;" 
d="M726 132q66 0 66 -65q0 -9 -2 -17l-66 -264q-12 -50 -64 -50q-66 0 -66 66q0 8 68 280q12 50 64 50zM462 66q0 -66 -66 -66t-66 66v1188q0 66 66 66t66 -66v-555l544 599q20 22 50 22q66 0 66 -66q0 -25 -18 -45l-377 -415l386 -695q9 -16 9 -37t-21 -41.5t-53 -20.5
t-51 35l-364 655l-171 -188v-436z" />
    <glyph glyph-name="kcedilla" unicode="&#x137;" 
d="M429 -264q-66 0 -66 66q0 8 2 16l64 256v1180q0 66 66 66t66 -66v-659l422 316q17 13 40 13q66 0 66 -66q0 -34 -26 -53l-256 -192l275 -516q7 -13 7 -35t-19.5 -42t-52.5 -20t-52 35l-265 497l-139 -103v-355q0 -16 -4 -32l-64 -256q-12 -50 -64 -50z" />
    <glyph glyph-name="kgreenlandic" unicode="&#x138;" 
d="M990 924q66 0 66 -66q0 -26 -20 -46l-290 -290l297 -418q13 -18 13 -39q0 -65 -66 -65q-35 0 -55 28l-284 399l-123 -123v-238q0 -66 -66 -66t-66 66v792q0 66 66 66t66 -66v-368l415 415q19 19 47 19z" />
    <glyph glyph-name="Lacute" unicode="&#x139;" 
d="M462 1518q-66 0 -66 66q0 34 26 53l264 198q17 13 40 13q66 0 66 -66q0 -33 -26 -53l-264 -198q-17 -13 -40 -13zM396 1254q0 66 66 66t66 -66v-1122h462q66 0 66 -66t-66 -66h-528q-66 0 -66 66v1188z" />
    <glyph glyph-name="lacute" unicode="&#x13a;" 
d="M528 1254q0 66 66 66t66 -66v-1056q0 -51 66 -66t66 -66q0 -66 -66 -66q-89 0 -143.5 52.5t-54.5 145.5v1056zM594 1518q-66 0 -66 66q0 34 26 53l264 198q17 13 40 13q66 0 66 -66q0 -33 -26 -53l-264 -198q-17 -13 -40 -13z" />
    <glyph glyph-name="Lcedilla" unicode="&#x13b;" 
d="M660 -264q-66 0 -66 66q0 6 60 198h-192q-66 0 -66 66v1188q0 66 66 66t66 -66v-1122h462q66 0 66 -66t-66 -66h-198l-67 -214q-16 -50 -65 -50z" />
    <glyph glyph-name="lcedilla" unicode="&#x13c;" 
d="M759 1254q0 66 66 66t66 -66v-1056q0 -51 66 -66t66 -66q0 -66 -66 -66q-89 0 -143.5 52.5t-54.5 145.5v1056zM561 66q66 0 66 -65q0 -10 -5 -25l-63 -190q-17 -50 -64 -50q-66 0 -66 66q0 10 5 25l63 190q16 49 64 49z" />
    <glyph glyph-name="Lcaron" unicode="&#x13d;" 
d="M726 990v264q0 66 66 66t66 -66v-264q0 -66 -66 -66t-66 66zM396 1254q0 66 66 66t66 -66v-1122h462q66 0 66 -66t-66 -66h-528q-66 0 -66 66v1188z" />
    <glyph glyph-name="lcaron" unicode="&#x13e;" 
d="M825 990v264q0 66 66 66t66 -66v-264q0 -66 -66 -66t-66 66zM495 1254q0 66 66 66t66 -66v-1056q0 -51 66 -66t66 -66q0 -66 -66 -66q-89 0 -143.5 52.5t-54.5 145.5v1056z" />
    <glyph glyph-name="Ldot" unicode="&#x13f;" 
d="M726 660v66q0 66 66 66t66 -66v-66q0 -66 -66 -66t-66 66zM396 1254q0 66 66 66t66 -66v-1122h462q66 0 66 -66t-66 -66h-528q-66 0 -66 66v1188z" />
    <glyph glyph-name="ldot" unicode="&#x140;" 
d="M495 1254q0 66 66 66t66 -66v-1056q0 -51 66 -66t66 -66q0 -66 -66 -66q-89 0 -143.5 52.5t-54.5 145.5v1056zM825 660v66q0 66 66 66t66 -66v-66q0 -66 -66 -66t-66 66z" />
    <glyph glyph-name="Lslash" unicode="&#x141;" 
d="M366 594q-69 0 -69 63q0 39 29 58l169 113v426q0 66 66 66t66 -66v-338l95 63q17 11 37 11q66 0 66 -65q0 -37 -29 -56l-169 -113v-624h462q66 0 66 -66t-66 -66h-528q-66 0 -66 66v602l-95 -63q-17 -11 -34 -11z" />
    <glyph glyph-name="lslash" unicode="&#x142;" 
d="M531 594q-69 0 -69 63q0 39 29 58l169 113v426q0 66 66 66t66 -66v-338l95 63q17 11 37 11q66 0 66 -65q0 -37 -29 -56l-169 -113v-558q0 -66 64 -66q27 0 47.5 -19t20.5 -47q0 -66 -66 -66q-94 0 -146 54t-52 144v470l-95 -63q-16 -11 -34 -11z" />
    <glyph glyph-name="Nacute" unicode="&#x143;" 
d="M594 1518q-66 0 -66 66q0 34 26 53l264 198q17 13 40 13q66 0 66 -66q0 -34 -26 -53l-264 -198q-17 -13 -40 -13zM990 1254q0 66 66 66t66 -66v-1188q0 -66 -66 -66q-40 0 -58 33l-536 967v-934q0 -66 -66 -66t-66 66v1188q0 66 66 66q39 0 61 -39l533 -960v933z" />
    <glyph glyph-name="nacute" unicode="&#x144;" 
d="M594 1122q-66 0 -66 66q0 34 26 53l264 198q17 13 40 13q66 0 66 -66q0 -33 -26 -53l-264 -198q-17 -13 -40 -13zM396 66v792q0 66 66 66h330q111 0 187.5 -76.5t76.5 -187.5v-594q0 -66 -66 -66t-66 66v594q0 56 -38 94t-94 38h-264v-726q0 -66 -66 -66t-66 66z" />
    <glyph glyph-name="Ncedilla" unicode="&#x145;" 
d="M726 132q66 0 66 -65q0 -9 -2 -17l-66 -264q-12 -50 -64 -50q-66 0 -66 66q0 8 68 280q12 50 64 50zM990 1254q0 66 66 66t66 -66v-1188q0 -66 -66 -66q-40 0 -58 33l-536 967v-934q0 -66 -66 -66t-66 66v1188q0 66 66 66q39 0 61 -39l533 -960v933z" />
    <glyph glyph-name="ncedilla" unicode="&#x146;" 
d="M429 858q0 66 66 66h335q106 0 182.5 -76.5t76.5 -182.5v-599q0 -66 -66 -66t-66 66v594q0 56 -38 94t-94 38h-264v-716q0 -18 -4 -34l-64 -256q-12 -50 -64 -50q-66 0 -66 66q0 8 2 16l43 171q9 25 21 85v784z" />
    <glyph glyph-name="Ncaron" unicode="&#x147;" 
d="M924 1848q66 0 66 -66q0 -27 -20 -47l-186 -186q-31 -31 -58 -31t-58 31l-186 186q-20 20 -20 47q0 66 66 66q29 0 48 -19l150 -150l150 150q19 19 48 19zM990 1254q0 66 66 66t66 -66v-1188q0 -66 -66 -66q-40 0 -58 33l-536 967v-934q0 -66 -66 -66t-66 66v1188
q0 66 66 66q39 0 61 -39l533 -960v933z" />
    <glyph glyph-name="ncaron" unicode="&#x148;" 
d="M924 1452q66 0 66 -66q0 -27 -20 -47l-186 -186q-31 -31 -58 -31t-58 31l-186 186q-20 20 -20 47q0 66 66 66q29 0 48 -19l150 -150l150 150q19 19 48 19zM396 66v792q0 66 66 66h330q111 0 187.5 -76.5t76.5 -187.5v-594q0 -66 -66 -66t-66 66v594q0 56 -38 94t-94 38
h-264v-726q0 -66 -66 -66t-66 66z" />
    <glyph glyph-name="napostrophe" unicode="&#x149;" 
d="M462 1518q66 0 66 -65q0 -9 -2 -17l-66 -264q-12 -50 -64 -50q-66 0 -66 66q0 8 68 280q12 50 64 50zM462 66v792q0 66 66 66h330q111 0 187.5 -76.5t76.5 -187.5v-594q0 -66 -66 -66t-66 66v594q0 56 -38 94t-94 38h-264v-726q0 -66 -66 -66t-66 66z" />
    <glyph glyph-name="Eng" unicode="&#x14a;" 
d="M1122 -330q0 -50 -46 -62q-16 -4 -86 -4q-110 0 -187 77t-77 187q0 27 19.5 46.5t46.5 19.5q66 0 66 -66q0 -54 39 -93t93 -39v311l-528 953v-934q0 -66 -66 -66t-66 66v1188q0 66 66 66q39 0 61 -39l533 -960v933q0 66 66 66t66 -66v-1584z" />
    <glyph glyph-name="eng" unicode="&#x14b;" 
d="M924 -264v924q0 56 -38 94t-94 38h-264v-726q0 -66 -66 -66t-66 66v792q0 66 66 66h330q111 0 187.5 -76.5t76.5 -187.5v-990q0 -50 -46 -62q-16 -4 -86 -4q-110 0 -187 77t-77 187q0 27 19.5 46.5t46.5 19.5q66 0 66 -66q0 -54 39 -93t93 -39z" />
    <glyph glyph-name="Omacron" unicode="&#x14c;" 
d="M1056 1584h-660q-66 0 -66 66t66 66h660q66 0 66 -66t-66 -66zM1122 396q0 -164 -116 -280t-280 -116t-280 116t-116 280v528q0 164 116 280t280 116t280 -115.5t116 -280.5v-528zM990 396v528q0 111 -76.5 187.5t-187.5 76.5t-187.5 -76.5t-76.5 -187.5v-528
q0 -111 76.5 -187.5t187.5 -76.5t187.5 76.5t76.5 187.5z" />
    <glyph glyph-name="omacron" unicode="&#x14d;" 
d="M1056 1188h-660q-66 0 -66 66t66 66h660q66 0 66 -66t-66 -66zM924 330v264q0 82 -58 140t-140 58t-140 -58t-58 -140v-264q0 -83 58 -140.5t140 -57.5t140 58t58 140zM396 330v264q0 137 96.5 233.5t234.5 96.5t233.5 -95.5t95.5 -234.5v-264q0 -137 -96.5 -233.5
t-233.5 -96.5t-233.5 96.5t-96.5 233.5z" />
    <glyph glyph-name="Obreve" unicode="&#x14e;" 
d="M989 1782q0 -110 -76.5 -187t-186.5 -77t-187 77t-77 187q0 66 66 66t66 -66q0 -54 39 -93t93 -39t93 38.5t39 79.5t19.5 60.5t46.5 19.5q65 0 65 -66zM1122 396q0 -164 -116 -280t-280 -116t-280 116t-116 280v528q0 164 116 280t280 116t280 -115.5t116 -280.5v-528z
M990 396v528q0 111 -76.5 187.5t-187.5 76.5t-187.5 -76.5t-76.5 -187.5v-528q0 -111 76.5 -187.5t187.5 -76.5t187.5 76.5t76.5 187.5z" />
    <glyph glyph-name="obreve" unicode="&#x14f;" 
d="M989 1452q0 -110 -76.5 -187t-186.5 -77t-186.5 77t-76.5 187q-1 66 65 66t66 -66q0 -54 39 -93t93 -39t93 38.5t39 79.5t19.5 60.5t46.5 19.5q65 0 65 -66zM924 330v264q0 82 -58 140t-140 58t-140 -58t-58 -140v-264q0 -83 58 -140.5t140 -57.5t140 58t58 140zM396 330
v264q0 137 96.5 233.5t234.5 96.5t233.5 -95.5t95.5 -234.5v-264q0 -137 -96.5 -233.5t-233.5 -96.5t-233.5 96.5t-96.5 233.5z" />
    <glyph glyph-name="Odblacute" unicode="&#x150;" 
d="M990 1848q66 0 66 -66q0 -18 -12 -36l-130 -199q-19 -29 -56 -29q-66 0 -66 66q0 18 12 36l130 199q19 29 56 29zM594 1848q66 0 66 -66q0 -18 -12 -36l-130 -199q-19 -29 -56 -29q-66 0 -66 66q0 18 12 36l130 199q19 29 56 29zM1122 396q0 -164 -116 -280t-280 -116
t-280 116t-116 280v528q0 164 116 280t280 116t280 -115.5t116 -280.5v-528zM990 396v528q0 111 -76.5 187.5t-187.5 76.5t-187.5 -76.5t-76.5 -187.5v-528q0 -111 76.5 -187.5t187.5 -76.5t187.5 76.5t76.5 187.5z" />
    <glyph glyph-name="odblacute" unicode="&#x151;" 
d="M858 1122q-66 0 -66 66q0 34 26 53l264 198q17 13 40 13q66 0 66 -66q0 -34 -26 -53l-264 -198q-17 -13 -40 -13zM330 1122q-66 0 -66 66q0 34 26 53l264 198q17 13 40 13q66 0 66 -66q0 -34 -26 -53l-264 -198q-17 -13 -40 -13zM924 330v264q0 82 -58 140t-140 58
t-140 -58t-58 -140v-264q0 -83 58 -140.5t140 -57.5t140 58t58 140zM396 330v264q0 137 96.5 233.5t234.5 96.5t233.5 -95.5t95.5 -234.5v-264q0 -137 -96.5 -233.5t-233.5 -96.5t-233.5 96.5t-96.5 233.5z" />
    <glyph glyph-name="OE" unicode="&#x152;" 
d="M726 363v594q0 95 -68.5 163t-163.5 68t-162.5 -67.5t-67.5 -163.5v-594q0 -96 67.5 -163.5t162.5 -67.5t163.5 68.5t68.5 162.5zM486 0q-140 0 -247 107t-107 256v594q0 150 107 256.5t247 106.5t240 -84v18q0 66 66 66h462q66 0 66 -66t-66 -66h-396v-396h330
q66 0 66 -66t-66 -66h-330v-528h396q66 0 66 -66t-66 -66h-462q-66 0 -66 66v18q-100 -84 -240 -84z" />
    <glyph glyph-name="oe" unicode="&#x153;" 
d="M1056 660q0 56 -38 94t-94 38t-94 -38.5t-38 -93.5v-132h264v132zM920 924q116 0 192 -76.5t76 -187.5v-264h-396v-132q0 -54 39 -93t93 -39h198q66 0 66 -66t-66 -66h-198q-120 0 -198 88q-78 -88 -194 -88t-192 76.5t-76 187.5v396q0 111 77 187.5t193 76.5t192 -89
q78 89 194 89zM660 264v396q0 56 -38 94t-94 38t-94 -38.5t-38 -93.5v-396q0 -52 40 -92t94 -40t92 38.5t38 93.5z" />
    <glyph glyph-name="Racute" unicode="&#x154;" 
d="M594 1518q-66 0 -66 66q0 34 26 53l264 198q17 13 40 13q66 0 66 -66q0 -34 -26 -53l-264 -198q-17 -13 -40 -13zM462 1188v-528h264q111 0 187.5 76.5t76.5 187.5t-76.5 187.5t-187.5 76.5h-264zM1122 60q0 -20 -20 -40t-54 -20t-52 37l-246 492q-9 -1 -24 -1h-264v-462
q0 -66 -66 -66t-66 66v1188q0 66 66 66h330q165 0 280.5 -115.5t115.5 -280.5q0 -273 -238 -368l230 -460q8 -16 8 -36z" />
    <glyph glyph-name="racute" unicode="&#x155;" 
d="M462 858q0 66 66 66h396q66 0 66 -66v-132q0 -66 -66 -66t-66 66v66h-264v-726q0 -66 -66 -66t-66 66v792zM528 1122q-66 0 -66 66q0 34 26 53l264 198q17 13 40 13q66 0 66 -66q0 -33 -26 -53l-264 -198q-17 -13 -40 -13z" />
    <glyph glyph-name="Rcedilla" unicode="&#x156;" 
d="M726 132q66 0 66 -65q0 -9 -2 -17l-66 -264q-12 -50 -64 -50q-66 0 -66 66q0 8 68 280q12 50 64 50zM462 1188v-528h264q111 0 187.5 76.5t76.5 187.5t-76.5 187.5t-187.5 76.5h-264zM1122 60q0 -20 -20 -40t-54 -20t-52 37l-246 492q-9 -1 -24 -1h-264v-462
q0 -66 -66 -66t-66 66v1188q0 66 66 66h330q165 0 280.5 -115.5t115.5 -280.5q0 -273 -238 -368l230 -460q8 -16 8 -36z" />
    <glyph glyph-name="rcedilla" unicode="&#x157;" 
d="M462 858q0 66 66 66h396q66 0 66 -66v-132q0 -66 -66 -66t-66 66v66h-264v-726q0 -66 -66 -66t-66 66v792zM924 66q66 0 66 -65q0 -10 -5 -25l-63 -190q-17 -50 -64 -50q-66 0 -66 66q0 10 5 25l63 190q16 49 64 49z" />
    <glyph glyph-name="Rcaron" unicode="&#x158;" 
d="M924 1848q66 0 66 -66q0 -27 -20 -47l-186 -186q-31 -31 -58 -31t-58 31l-186 186q-20 20 -20 47q0 66 66 66q29 0 48 -19l150 -150l150 150q19 19 48 19zM462 1188v-528h264q111 0 187.5 76.5t76.5 187.5t-76.5 187.5t-187.5 76.5h-264zM1122 60q0 -20 -20 -40t-54 -20
t-52 37l-246 492q-9 -1 -24 -1h-264v-462q0 -66 -66 -66t-66 66v1188q0 66 66 66h330q165 0 280.5 -115.5t115.5 -280.5q0 -273 -238 -368l230 -460q8 -16 8 -36z" />
    <glyph glyph-name="rcaron" unicode="&#x159;" 
d="M462 858q0 66 66 66h396q66 0 66 -66v-132q0 -66 -66 -66t-66 66v66h-264v-726q0 -66 -66 -66t-66 66v792zM924 1452q66 0 66 -66q0 -27 -20 -47l-186 -186q-31 -31 -58 -31t-58 31l-186 186q-20 20 -20 47q0 66 66 66q29 0 48 -19l150 -150l150 150q19 19 48 19z" />
    <glyph glyph-name="Sacute" unicode="&#x15a;" 
d="M1122 330q0 -137 -96.5 -233.5t-233.5 -96.5q-225 0 -433 144q-29 20 -29 50t20 50t42 20t61 -24t163 -80q81 -28 170 -28t146.5 57.5t57.5 140.5q0 121 -110 177l-371 190q-179 92 -179 293q0 137 96.5 233.5t233.5 96.5q220 0 357 -72q39 -20 39 -54t-19.5 -53
t-38.5 -19t-36 7q-146 59 -302 59q-83 0 -140.5 -57.5t-57.5 -140.5q0 -121 108 -176l371 -190q181 -93 181 -294zM594 1518q-66 0 -66 66q0 34 26 53l264 198q17 13 40 13q66 0 66 -66q0 -34 -26 -53l-264 -198q-17 -13 -40 -13z" />
    <glyph glyph-name="sacute" unicode="&#x15b;" 
d="M924 231q0 63 -56 90l-339 163q-133 64 -133 209q0 114 88 172t221 58q134 0 250 -73q35 -22 35 -54t-20 -51t-42 -19t-35 8q-95 57 -201 57q-164 0 -164 -98q0 -62 54 -88l342 -165q132 -64 132 -209q0 -119 -88 -175t-216 -56q-190 0 -319 73q-37 21 -37 53t19.5 52
t39.5 20t42 -10t84 -32q90 -24 175 -24q168 0 168 99zM594 1122q-66 0 -66 66q0 34 26 53l264 198q17 13 40 13q66 0 66 -66q0 -33 -26 -53l-264 -198q-17 -13 -40 -13z" />
    <glyph glyph-name="Scircumflex" unicode="&#x15c;" 
d="M1122 330q0 -137 -96.5 -233.5t-233.5 -96.5q-225 0 -433 144q-29 20 -29 50t20 50t42 20t61 -24t163 -80q81 -28 170 -28t146.5 57.5t57.5 140.5q0 121 -110 177l-371 190q-179 92 -179 293q0 137 96.5 233.5t233.5 96.5q220 0 357 -72q39 -20 39 -54t-19.5 -53
t-38.5 -19t-36 7q-146 59 -302 59q-83 0 -140.5 -57.5t-57.5 -140.5q0 -121 108 -176l371 -190q181 -93 181 -294zM528 1518q-66 0 -66 66q0 27 20 47l186 186q31 31 58 31t58 -31l186 -186q20 -20 20 -47q0 -66 -66 -66q-28 0 -48 20l-150 150l-150 -150q-20 -20 -48 -20z
" />
    <glyph glyph-name="scircumflex" unicode="&#x15d;" 
d="M924 231q0 63 -56 90l-339 163q-133 64 -133 209q0 114 88 172t221 58q134 0 250 -73q35 -22 35 -54t-20 -51t-42 -19t-35 8q-95 57 -201 57q-164 0 -164 -98q0 -62 54 -88l342 -165q132 -64 132 -209q0 -119 -88 -175t-216 -56q-190 0 -319 73q-37 21 -37 53t19.5 52
t39.5 20t42 -10t84 -32q90 -24 175 -24q168 0 168 99zM528 1122q-66 0 -66 66q0 27 20 47l186 186q31 31 58 31t58 -31l186 -186q20 -20 20 -47q0 -66 -66 -66q-29 0 -48 19l-150 150l-150 -150q-19 -19 -48 -19z" />
    <glyph glyph-name="Scedilla" unicode="&#x15e;" 
d="M726 -264q-66 0 -66 66q0 8 49 203q-172 18 -350 139q-29 20 -29 50t20 50t42 20t61 -24t163 -80q80 -28 170 -28t147 57.5t57 140.5q0 121 -110 177l-371 190q-179 92 -179 293q0 137 96.5 233.5t233.5 96.5q219 0 357 -72q39 -20 39 -54t-19.5 -53t-38.5 -19t-36 7
q-146 59 -302 59q-83 0 -140.5 -57.5t-57.5 -140.5q0 -121 108 -176l371 -190q181 -93 181 -294q0 -122 -78 -213.5t-199 -112.5l-55 -218q-13 -50 -64 -50z" />
    <glyph glyph-name="scedilla" unicode="&#x15f;" 
d="M924 231q0 63 -56 90l-339 163q-133 64 -133 209q0 114 88 172t221 58q134 0 250 -73q35 -22 35 -54t-20 -51t-42 -19t-35 8q-95 57 -201 57q-164 0 -164 -98q0 -62 54 -88l342 -165q132 -64 132 -209q0 -117 -84 -173t-193 -56l-55 -216q-13 -50 -64 -50q-66 0 -66 66
q0 7 8 39l44 166q-125 16 -213 66q-37 21 -37 53t19.5 52t39.5 20t42 -10t84 -32q90 -24 172 -24q171 0 171 99z" />
    <glyph glyph-name="Scaron" unicode="&#x160;" 
d="M1122 330q0 -137 -96.5 -233.5t-233.5 -96.5q-225 0 -433 144q-29 20 -29 50t20 50t42 20t61 -24t163 -80q81 -28 170 -28t146.5 57.5t57.5 140.5q0 121 -110 177l-371 190q-179 92 -179 293q0 137 96.5 233.5t233.5 96.5q220 0 357 -72q39 -20 39 -54t-19.5 -53
t-38.5 -19t-36 7q-146 59 -302 59q-83 0 -140.5 -57.5t-57.5 -140.5q0 -121 108 -176l371 -190q181 -93 181 -294zM924 1848q66 0 66 -66q0 -27 -20 -47l-186 -186q-31 -31 -58 -31t-58 31l-186 186q-20 20 -20 47q0 66 66 66q29 0 48 -19l150 -150l150 150q19 19 48 19z
" />
    <glyph glyph-name="scaron" unicode="&#x161;" 
d="M924 231q0 63 -56 90l-339 163q-133 64 -133 209q0 114 88 172t221 58q134 0 250 -73q35 -22 35 -54t-20 -51t-42 -19t-35 8q-95 57 -201 57q-164 0 -164 -98q0 -62 54 -88l342 -165q132 -64 132 -209q0 -119 -88 -175t-216 -56q-190 0 -319 73q-37 21 -37 53t19.5 52
t39.5 20t42 -10t84 -32q90 -24 175 -24q168 0 168 99zM924 1452q66 0 66 -66q0 -27 -20 -47l-186 -186q-31 -31 -58 -31t-58 31l-186 186q-20 20 -20 47q0 66 66 66q29 0 48 -19l150 -150l150 150q19 19 48 19z" />
    <glyph glyph-name="Tcedilla" unicode="&#x162;" 
d="M660 -264q-66 0 -66 66q0 8 2 16l64 256v1114h-264q-66 0 -66 66t66 66h660q66 0 66 -66t-66 -66h-264v-1112q0 -18 -4 -34l-64 -256q-12 -50 -64 -50z" />
    <glyph glyph-name="tcedilla" unicode="&#x163;" 
d="M594 -264q-66 0 -66 66q0 8 2 16l64 256v718h-66q-66 0 -66 66t66 66h66v330q0 66 66 66t66 -66v-330h198q66 0 66 -66t-66 -66h-198v-716q0 -18 -4 -34l-64 -256q-12 -50 -64 -50z" />
    <glyph glyph-name="Tcaron" unicode="&#x164;" 
d="M924 1848q66 0 66 -66q0 -27 -20 -47l-186 -186q-31 -31 -58 -31t-58 31l-186 186q-20 20 -20 47q0 66 66 66q29 0 48 -19l150 -150l150 150q19 19 48 19zM330 1254q0 66 66 66h660q66 0 66 -66t-66 -66h-264v-1122q0 -66 -66 -66t-66 66v1122h-264q-66 0 -66 66z" />
    <glyph glyph-name="tcaron" unicode="&#x165;" 
d="M957 1122v264q0 66 66 66t66 -66v-264q0 -66 -66 -66t-66 66zM495 792h-66q-66 0 -66 66t66 66h66v330q0 66 66 66t66 -66v-330h198q66 0 66 -66t-66 -66h-198v-726q0 -66 -66 -66t-66 66v726z" />
    <glyph glyph-name="Tbar" unicode="&#x166;" 
d="M990 924q66 0 66 -66q0 -34 -26 -53l-238 -178v-561q0 -66 -66 -66t-66 66v462l-158 -119q-17 -13 -40 -13q-66 0 -66 66q0 33 26 53l238 179v494h-264q-66 0 -66 66t66 66h660q66 0 66 -66t-66 -66h-264v-395l158 118q17 13 40 13z" />
    <glyph glyph-name="tbar" unicode="&#x167;" 
d="M594 1254q0 66 66 66t66 -66v-330h198q66 0 66 -66t-66 -66h-198v-289q51 25 66 25q66 0 66 -66q0 -41 -36 -59l-96 -48v-289q0 -66 -66 -66t-66 66v223q-50 -25 -66 -25q-66 0 -66 66q0 40 37 59l95 48v355h-66q-66 0 -66 66t66 66h66v330z" />
    <glyph glyph-name="Utilde" unicode="&#x168;" 
d="M855 1584q-68 0 -151.5 66t-109.5 66t-66 -33t-66 -33t-46 20t-20 50t27 49q63 47 92 63t89 16t144 -66t110 -66t66.5 33t65.5 33q66 0 66 -66q0 -30 -27 -54q-26 -18 -66 -48t-108 -30zM1122 1254v-858q0 -164 -116 -280t-280 -116t-280 116t-116 280v858q0 66 66 66
t66 -66v-858q0 -111 76.5 -187.5t187.5 -76.5t187.5 76.5t76.5 187.5v858q0 66 66 66t66 -66z" />
    <glyph glyph-name="utilde" unicode="&#x169;" 
d="M855 1122q-68 0 -151.5 66t-109.5 66t-66 -33t-66 -33t-46 20t-20 50t27 49q63 47 92 63t89 16t144 -66t110 -66t66.5 33t65.5 33q66 0 66 -66q0 -30 -27 -54q-26 -18 -66 -48t-108 -30zM1056 858v-792q0 -66 -66 -66h-330q-111 0 -187.5 76.5t-76.5 187.5v594
q0 66 66 66t66 -66v-594q0 -54 39 -93t93 -39h264v726q0 66 66 66t66 -66z" />
    <glyph glyph-name="Umacron" unicode="&#x16a;" 
d="M1056 1584h-660q-66 0 -66 66t66 66h660q66 0 66 -66t-66 -66zM1122 1254v-858q0 -164 -116 -280t-280 -116t-280 116t-116 280v858q0 66 66 66t66 -66v-858q0 -111 76.5 -187.5t187.5 -76.5t187.5 76.5t76.5 187.5v858q0 66 66 66t66 -66z" />
    <glyph glyph-name="umacron" unicode="&#x16b;" 
d="M1056 1188h-660q-66 0 -66 66t66 66h660q66 0 66 -66t-66 -66zM1056 858v-792q0 -66 -66 -66h-330q-111 0 -187.5 76.5t-76.5 187.5v594q0 66 66 66t66 -66v-594q0 -54 39 -93t93 -39h264v726q0 66 66 66t66 -66z" />
    <glyph glyph-name="Ubreve" unicode="&#x16c;" 
d="M989 1782q0 -110 -76.5 -187t-186.5 -77t-186.5 77t-76.5 187q-1 66 65 66t66 -66q0 -54 39 -93t93 -39t93 38.5t39 79.5t19.5 60.5t46.5 19.5q65 0 65 -66zM1122 1254v-858q0 -164 -116 -280t-280 -116t-280 116t-116 280v858q0 66 66 66t66 -66v-858
q0 -111 76.5 -187.5t187.5 -76.5t187.5 76.5t76.5 187.5v858q0 66 66 66t66 -66z" />
    <glyph glyph-name="ubreve" unicode="&#x16d;" 
d="M989 1452q0 -110 -76.5 -187t-186.5 -77t-186.5 77t-76.5 187q-1 66 65 66t66 -66q0 -54 39 -93t93 -39t93 38.5t39 79.5t19.5 60.5t46.5 19.5q65 0 65 -66zM1056 858v-792q0 -66 -66 -66h-330q-111 0 -187.5 76.5t-76.5 187.5v594q0 66 66 66t66 -66v-594q0 -54 39 -93
t93 -39h264v726q0 66 66 66t66 -66z" />
    <glyph glyph-name="Uring" unicode="&#x16e;" 
d="M726 1716q-41 0 -70 -29t-29 -70t29 -70t70 -29t70 29t29 70t-29 70t-70 29zM726 1848q96 0 163.5 -67.5t67.5 -163.5t-67.5 -163.5t-163.5 -67.5t-163.5 67.5t-67.5 163.5t67.5 163.5t163.5 67.5zM1122 1254v-858q0 -164 -116 -280t-280 -116t-280 116t-116 280v858
q0 66 66 66t66 -66v-858q0 -111 76.5 -187.5t187.5 -76.5t187.5 76.5t76.5 187.5v858q0 66 66 66t66 -66z" />
    <glyph glyph-name="uring" unicode="&#x16f;" 
d="M726 1452q-41 0 -70 -29t-29 -70t29 -70t70 -29t70 29t29 70t-29 70t-70 29zM726 1584q96 0 163.5 -67.5t67.5 -163.5t-67.5 -163.5t-163.5 -67.5t-163.5 67.5t-67.5 163.5t67.5 163.5t163.5 67.5zM1056 858v-792q0 -66 -66 -66h-330q-111 0 -187.5 76.5t-76.5 187.5v594
q0 66 66 66t66 -66v-594q0 -54 39 -93t93 -39h264v726q0 66 66 66t66 -66z" />
    <glyph glyph-name="Udblacute" unicode="&#x170;" 
d="M1023 1848q66 0 66 -66q0 -18 -12 -36l-130 -199q-19 -29 -56 -29q-66 0 -66 66q0 18 12 36l130 199q19 29 56 29zM627 1848q66 0 66 -66q0 -18 -12 -36l-130 -199q-19 -29 -56 -29q-66 0 -66 66q0 18 12 36l130 199q19 29 56 29zM1122 1254v-858q0 -164 -116 -280
t-280 -116t-280 116t-116 280v858q0 66 66 66t66 -66v-858q0 -111 76.5 -187.5t187.5 -76.5t187.5 76.5t76.5 187.5v858q0 66 66 66t66 -66z" />
    <glyph glyph-name="udblacute" unicode="&#x171;" 
d="M858 1122q-66 0 -66 66q0 34 26 53l264 198q17 13 40 13q66 0 66 -66q0 -34 -26 -53l-264 -198q-17 -13 -40 -13zM330 1122q-66 0 -66 66q0 34 26 53l264 198q17 13 40 13q66 0 66 -66q0 -34 -26 -53l-264 -198q-17 -13 -40 -13zM1056 858v-792q0 -66 -66 -66h-330
q-111 0 -187.5 76.5t-76.5 187.5v594q0 66 66 66t66 -66v-594q0 -54 39 -93t93 -39h264v726q0 66 66 66t66 -66z" />
    <glyph glyph-name="Uogonek" unicode="&#x172;" 
d="M660 -264q-66 0 -66 66q0 8 50 206q-138 30 -226 138.5t-88 249.5v858q0 66 66 66t66 -66v-858q0 -111 76.5 -187.5t187.5 -76.5t187.5 76.5t76.5 187.5v858q0 66 66 66t66 -66v-858q0 -150 -97.5 -261t-246.5 -132l-54 -217q-12 -50 -64 -50z" />
    <glyph glyph-name="uogonek" unicode="&#x173;" 
d="M396 264v594q0 66 66 66t66 -66v-594q0 -54 39 -93t93 -39h264v726q0 66 66 66t66 -66v-792q0 -66 -66 -66h-278l-54 -214q-13 -50 -64 -50q-66 0 -66 66q0 8 51 211q-83 26 -133 95t-50 156z" />
    <glyph glyph-name="Wcircumflex" unicode="&#x174;" 
d="M528 1518q-66 0 -66 66q0 27 20 47l186 186q31 31 58 31t58 -31l186 -186q20 -20 20 -47q0 -66 -66 -66q-28 0 -48 20l-150 150l-150 -150q-20 -20 -48 -20zM1254 1320q66 0 66 -66q0 -6 -2 -15l-263 -1184q-12 -55 -62 -55t-69 57l-198 593l-197 -593q-19 -57 -69 -57
t-63 57l-263 1182q-2 9 -2 15q0 66 66 66q53 0 65 -52l212 -956l186 557q17 55 65 55t66 -55l185 -555l212 954q12 52 65 52z" />
    <glyph glyph-name="wcircumflex" unicode="&#x175;" 
d="M528 1122q-66 0 -66 66q0 27 20 47l186 186q31 31 58 31t58 -31l186 -186q20 -20 20 -47q0 -66 -66 -66q-29 0 -48 19l-150 150l-150 -150q-19 -19 -48 -19zM927 0q-49 0 -67 48l-134 359l-134 -357q-20 -50 -68 -50t-63 62l-195 780q-2 8 -2 19q0 63 66 63q52 0 64 -50
l146 -585l123 328q17 43 63 43t62 -43l123 -329l147 586q13 50 64 50q26 0 46 -19t20 -37t-2 -26l-196 -784q-14 -58 -63 -58z" />
    <glyph glyph-name="Ycircumflex" unicode="&#x176;" 
d="M528 1518q-66 0 -66 66q0 27 20 47l186 186q31 31 58 31t58 -31l186 -186q20 -20 20 -47q0 -66 -66 -66q-28 0 -48 20l-150 150l-150 -150q-20 -20 -48 -20zM792 66q0 -66 -66 -66t-66 66v594l-384 556q-12 17 -12 38q0 66 66 66q36 0 55 -28l341 -496l341 496
q19 28 55 28q66 0 66 -66q0 -21 -12 -38l-384 -556v-594z" />
    <glyph glyph-name="ycircumflex" unicode="&#x177;" 
d="M529 1122q-66 0 -66 66q0 27 20 47l186 186q31 31 58 31t58 -31l186 -186q20 -20 20 -47q0 -66 -66 -66q-29 0 -48 19l-150 150l-150 -150q-19 -19 -48 -19zM397 858q0 66 66 66q48 0 63 -45l201 -603l201 603q14 45 63 45q66 0 66 -66q0 -9 -4 -21l-395 -1188
q-15 -45 -63 -45h-133q-66 0 -66 66q0 53 55 64q9 2 96 2l110 330l-256 771q-4 12 -4 21z" />
    <glyph glyph-name="Ydieresis" unicode="&#x178;" 
d="M792 66q0 -66 -66 -66t-66 66v594l-384 556q-12 17 -12 38q0 66 66 66q36 0 55 -28l341 -496l341 496q19 28 55 28q66 0 66 -66q0 -21 -12 -38l-384 -556v-594zM858 1584v66q0 66 66 66t66 -66v-66q0 -66 -66 -66t-66 66zM462 1584v66q0 66 66 66t66 -66v-66
q0 -66 -66 -66t-66 66z" />
    <glyph glyph-name="Zacute" unicode="&#x179;" 
d="M594 1518q-66 0 -66 66q0 34 26 53l264 198q17 13 40 13q66 0 66 -66q0 -34 -26 -53l-264 -198q-17 -13 -40 -13zM1056 132q66 0 66 -66t-66 -66h-660q-66 0 -66 66q0 17 13 40l601 1082h-548q-66 0 -66 66t66 66h660q66 0 66 -65q0 -18 -13 -41l-600 -1082h547z" />
    <glyph glyph-name="zacute" unicode="&#x17a;" 
d="M594 1122q-66 0 -66 66q0 34 26 53l264 198q17 13 40 13q66 0 66 -66q0 -33 -26 -53l-264 -198q-17 -13 -40 -13zM462 792q-66 0 -66 66t66 66h528q66 0 66 -67q0 -19 -13 -39l-457 -686h404q66 0 66 -66t-66 -66h-528q-66 0 -66 65q0 21 13 41l457 686h-404z" />
    <glyph glyph-name="Zdot" unicode="&#x17b;" 
d="M660 1584v66q0 66 66 66t66 -66v-66q0 -66 -66 -66t-66 66zM1056 132q66 0 66 -66t-66 -66h-660q-66 0 -66 66q0 17 13 40l601 1082h-548q-66 0 -66 66t66 66h660q66 0 66 -65q0 -18 -13 -41l-600 -1082h547z" />
    <glyph glyph-name="zdot" unicode="&#x17c;" 
d="M660 1188v66q0 66 66 66t66 -66v-66q0 -66 -66 -66t-66 66zM462 792q-66 0 -66 66t66 66h528q66 0 66 -67q0 -19 -13 -39l-457 -686h404q66 0 66 -66t-66 -66h-528q-66 0 -66 65q0 21 13 41l457 686h-404z" />
    <glyph glyph-name="Zcaron" unicode="&#x17d;" 
d="M924 1848q66 0 66 -66q0 -27 -20 -47l-186 -186q-31 -31 -58 -31t-58 31l-186 186q-20 20 -20 47q0 66 66 66q29 0 48 -19l150 -150l150 150q19 19 48 19zM1056 132q66 0 66 -66t-66 -66h-660q-66 0 -66 66q0 17 13 40l601 1082h-548q-66 0 -66 66t66 66h660q66 0 66 -65
q0 -18 -13 -41l-600 -1082h547z" />
    <glyph glyph-name="zcaron" unicode="&#x17e;" 
d="M924 1452q66 0 66 -66q0 -27 -20 -47l-186 -186q-31 -31 -58 -31t-58 31l-186 186q-20 20 -20 47q0 66 66 66q29 0 48 -19l150 -150l150 150q19 19 48 19zM462 792q-66 0 -66 66t66 66h528q66 0 66 -67q0 -19 -13 -39l-457 -686h404q66 0 66 -66t-66 -66h-528
q-66 0 -66 65q0 21 13 41l457 686h-404z" />
    <glyph glyph-name="longs" unicode="&#x17f;" 
d="M627 1056v-990q0 -66 -66 -66t-66 66v990q0 111 76.5 187.5t187.5 76.5h132q66 0 66 -66q0 -28 -20 -48t-68 -20l-87 4q-75 0 -115 -39t-40 -95z" />
    <glyph glyph-name="florin" unicode="&#x192;" 
d="M627 792q-66 0 -66 66t66 66h131l40 188q19 91 91.5 149.5t166.5 58.5h66q66 0 66 -66q0 -28 -19 -47t-56 -19t-73 -3t-70 -29q-33 -26 -43 -71l-35 -161h131q66 0 66 -66t-66 -66h-159l-211 -984q-19 -90 -92 -147t-165 -57h-66q-66 0 -66 66q0 28 19 47t56 19t74 3
q37 2 70 30t42 71l204 952h-102z" />
    <glyph glyph-name="Aringacute" unicode="&#x1fa;" 
d="M330 1518q-66 0 -66 66q0 34 26 53l264 198q17 13 40 13q66 0 66 -66q0 -34 -26 -53l-264 -198q-17 -13 -40 -13zM957 1716q-41 0 -70 -29t-29 -70t29 -70t70 -29t70 29t29 70t-29 70t-70 29zM957 1848q96 0 163.5 -67.5t67.5 -163.5t-67.5 -163.5t-163.5 -67.5
t-163.5 67.5t-67.5 163.5t67.5 163.5t163.5 67.5zM1188 66q0 -66 -66 -66q-48 0 -63 45l-95 285h-476l-95 -285q-15 -45 -63 -45q-66 0 -66 66q0 12 3 21l393 1180q18 53 66 53t65 -51l394 -1182q3 -9 3 -21zM726 1044l-194 -582h388z" />
    <glyph glyph-name="aringacute" unicode="&#x1fb;" 
d="M462 1518q-66 0 -66 66q0 34 26 53l264 198q17 13 40 13q66 0 66 -66q0 -34 -26 -53l-264 -198q-17 -13 -40 -13zM825 1419q-41 0 -70 -29t-29 -70t29 -70t70 -29t70 29t29 70t-29 70t-70 29zM825 1551q96 0 163.5 -67.5t67.5 -163.5t-67.5 -163.5t-163.5 -67.5
t-163.5 67.5t-67.5 163.5t67.5 163.5t163.5 67.5zM924 396h-264q-55 0 -93.5 -39t-38.5 -93t39 -93t93 -39h264v264zM660 0q-111 0 -187.5 76.5t-76.5 187.5q0 72 35 133q75 131 229 131h264v132q0 56 -38 94t-94 38h-264q-66 0 -66 66t66 66h264q111 0 187.5 -76.5
t76.5 -187.5v-594q0 -66 -66 -66h-330z" />
    <glyph glyph-name="AEacute" unicode="&#x1fc;" 
d="M660 1518q-66 0 -66 66q0 34 26 53l264 198q17 13 40 13q66 0 66 -66q0 -34 -26 -53l-264 -198q-17 -13 -40 -13zM792 330h-436l-95 -285q-15 -45 -63 -45q-66 0 -66 66q0 12 3 21l393 1180q18 53 66 53h660q66 0 66 -66t-66 -66h-330v-396h264q66 0 66 -66t-66 -66h-264
v-528h330q66 0 66 -66t-66 -66h-396q-66 0 -66 66v264zM792 462v726h-150l-242 -726h392z" />
    <glyph glyph-name="aeacute" unicode="&#x1fd;" 
d="M594 1122q-66 0 -66 66q0 34 26 53l264 198q17 13 40 13q66 0 66 -66q0 -34 -26 -53l-264 -198q-17 -13 -40 -13zM1056 660q0 56 -38 94t-94 38t-94 -38.5t-38 -93.5v-132h264v132zM660 396h-132q-55 0 -93.5 -39t-38.5 -93t39 -93t93 -39h132v264zM492 793l-67 -1
q-95 0 -95 66t66 66h132q118 0 198 -88q78 88 194 88t192 -76.5t76 -187.5v-264h-396v-132q0 -54 39 -93t93 -39h198q66 0 66 -66t-66 -66h-198q-74 0 -136 37q-16 -37 -62 -37h-198q-111 0 -187.5 76.5t-76.5 187.5t76.5 187.5t187.5 76.5h132v132q0 56 -38.5 94.5
t-129.5 38.5z" />
    <glyph glyph-name="Oslashacute" unicode="&#x1fe;" 
d="M594 1518q-66 0 -66 66q0 34 26 53l264 198q17 13 40 13q66 0 66 -66q0 -34 -26 -53l-264 -198q-17 -13 -40 -13zM726 1188q-111 0 -187.5 -76.5t-76.5 -187.5v-466l503 576q-67 154 -239 154zM726 132q111 0 187.5 76.5t76.5 187.5v466l-504 -576q73 -154 240 -154z
M1188 1254q66 0 66 -66q0 -25 -16 -43l-125 -143q9 -45 9 -78v-528q0 -164 -116 -280t-280 -116q-211 0 -332 180l-80 -91q-20 -23 -50 -23q-66 0 -66 66q0 25 17 44l123 141q-8 42 -8 79v528q0 164 116 280t280 116q213 0 332 -181l81 93q19 22 49 22z" />
    <glyph glyph-name="oslashacute" unicode="&#x1ff;" 
d="M594 1122q-66 0 -66 66q0 34 26 53l264 198q17 13 40 13q66 0 66 -66q0 -34 -26 -53l-264 -198q-17 -13 -40 -13zM736 792q-92 0 -150 -58t-58 -140v-236l356 356q-56 78 -148 78zM718 132q90 0 148 58t58 140v236l-356 -356q60 -78 150 -78zM1056 594v-264
q0 -137 -97 -233.5t-241 -96.5t-244 116l-97 -97q-19 -19 -47 -19q-66 0 -66 66q0 28 19 47l126 126q-13 40 -13 91v264q0 137 96.5 233.5t241.5 96.5t244 -116l97 97q19 19 47 19q66 0 66 -66q0 -28 -19 -47l-126 -126q13 -40 13 -91z" />
    <glyph glyph-name="philatin" unicode="&#x278;" 
d="M660 132v660q-138 0 -234 -96.5t-96 -233.5t96.5 -233.5t233.5 -96.5zM792 0v-330q0 -66 -66 -66t-66 66v330q-192 0 -327 135t-135 327t135 327t327 135v198q0 66 66 66t66 -66v-198q192 0 327 -135t135 -327t-135 -327t-327 -135zM792 132q137 0 233.5 96.5t96.5 233.5
t-96.5 233.5t-233.5 96.5v-660z" />
    <glyph glyph-name="circumflex" unicode="&#x2c6;" 
d="M528 1518q-66 0 -66 66q0 27 20 47l186 186q31 31 58 31t58 -31l186 -186q20 -20 20 -47q0 -66 -66 -66q-29 0 -48 19l-150 150l-150 -150q-19 -19 -48 -19z" />
    <glyph glyph-name="caron" unicode="&#x2c7;" 
d="M924 1848q66 0 66 -66q0 -27 -20 -47l-186 -186q-31 -31 -58 -31t-58 31l-186 186q-20 20 -20 47q0 66 66 66q29 0 48 -19l150 -150l150 150q19 19 48 19z" />
    <glyph glyph-name="macron" unicode="&#x2c9;" 
d="M1056 1584h-660q-66 0 -66 66t66 66h660q66 0 66 -66t-66 -66z" />
    <glyph glyph-name="breve" unicode="&#x2d8;" 
d="M990 1782q0 -110 -77.5 -187t-187.5 -77t-186.5 77t-76.5 187q0 66 66 66t65 -66q0 -54 39.5 -93t93.5 -39t93 38.5t39 79.5t19.5 60.5t46.5 19.5q66 0 66 -66z" />
    <glyph glyph-name="dotaccent" unicode="&#x2d9;" 
d="M660 1584v66q0 66 66 66t66 -66v-66q0 -66 -66 -66t-66 66z" />
    <glyph glyph-name="ring" unicode="&#x2da;" 
d="M726 1716q-41 0 -70 -29t-29 -70t29 -70t70 -29t70 29t29 70t-29 70t-70 29zM726 1848q96 0 163.5 -67.5t67.5 -163.5t-67.5 -163.5t-163.5 -67.5t-163.5 67.5t-67.5 163.5t67.5 163.5t163.5 67.5z" />
    <glyph glyph-name="ogonek" unicode="&#x2db;" 
d="M753 132q72 0 72 -56q0 -9 -2 -17l-66 -273q-12 -50 -64 -50q-66 0 -66 66q0 8 2 16l66 273q10 41 58 41z" />
    <glyph glyph-name="tilde" unicode="&#x2dc;" 
d="M854 1584q-68 0 -151 66t-109 66t-66 -33t-66 -33t-46 20t-20 50t27 49q63 47 92 63t89 16t144 -66t110 -66t66.5 33t65.5 33q66 0 66 -66q0 -30 -27 -54q-26 -18 -66 -48q-41 -30 -109 -30z" />
    <glyph glyph-name="hungarumlaut" unicode="&#x2dd;" 
d="M990 1848q66 0 66 -66q0 -18 -12 -36l-130 -199q-19 -29 -56 -29q-66 0 -66 66q0 18 12 36l130 199q19 29 56 29zM594 1848q66 0 66 -66q0 -18 -12 -36l-130 -199q-19 -29 -56 -29q-66 0 -66 66q0 18 12 36l130 199q19 29 56 29z" />
    <glyph glyph-name="u037E" unicode="&#x37e;" 
d="M759 132q66 0 66 -65q0 -9 -2 -17l-66 -264q-12 -50 -64 -50q-66 0 -66 66q0 8 68 280q12 50 64 50zM693 594q0 66 66 66t66 -66v-66q0 -66 -66 -66t-66 66v66z" />
    <glyph glyph-name="tonos" unicode="&#x384;" 
d="M594 1518q-66 0 -66 66q0 34 26 53l264 198q17 13 40 13q66 0 66 -66q0 -34 -26 -53l-264 -198q-17 -13 -40 -13z" />
    <glyph glyph-name="dieresistonos" unicode="&#x385;" 
d="M660 1518q-66 0 -66 66q0 34 26 53l264 198q17 13 40 13q66 0 66 -66q0 -34 -26 -53l-264 -198q-17 -13 -40 -13zM858 1188v66q0 66 66 66t66 -66v-66q0 -66 -66 -66t-66 66zM462 1188v66q0 66 66 66t66 -66v-66q0 -66 -66 -66t-66 66z" />
    <glyph glyph-name="Alphatonos" unicode="&#x386;" 
d="M330 1188v198q0 66 66 66t66 -66v-198q0 -66 -66 -66t-66 66zM1188 66q0 -66 -66 -66q-48 0 -63 45l-95 285h-476l-95 -285q-15 -45 -63 -45q-66 0 -66 66q0 12 3 21l393 1180q18 53 66 53t65 -51l394 -1182q3 -9 3 -21zM726 1044l-194 -582h388z" />
    <glyph glyph-name="anoteleia" unicode="&#x387;" 
d="M693 660h66q66 0 66 -66t-66 -66h-66q-66 0 -66 66t66 66z" />
    <glyph glyph-name="Epsilontonos" unicode="&#x388;" 
d="M264 1188v198q0 66 66 66t66 -66v-198q0 -66 -66 -66t-66 66zM528 66v1188q0 66 66 66h528q66 0 66 -66t-66 -66h-462v-396h330q66 0 66 -66t-66 -66h-330v-528h462q66 0 66 -66t-66 -66h-528q-66 0 -66 66z" />
    <glyph glyph-name="Etatonos" unicode="&#x389;" 
d="M198 1188v198q0 66 66 66t66 -66v-198q0 -66 -66 -66t-66 66zM462 66v1188q0 66 66 66t66 -66v-462h528v462q0 66 66 66t66 -66v-1188q0 -66 -66 -66t-66 66v594h-528v-594q0 -66 -66 -66t-66 66z" />
    <glyph glyph-name="Iotatonos" unicode="&#x38a;" 
d="M528 1188v198q0 66 66 66t66 -66v-198q0 -66 -66 -66t-66 66zM858 0q-66 0 -66 66v1188q0 66 66 66t66 -66v-1188q0 -66 -66 -66z" />
    <glyph glyph-name="Omicrontonos" unicode="&#x38c;" 
d="M231 1188v198q0 66 66 66t66 -66v-198q0 -66 -66 -66t-66 66zM1221 396q0 -164 -116 -280t-280 -116t-280 116t-116 280v528q0 164 116.5 280t280.5 116t279.5 -115.5t115.5 -280.5v-528zM1089 396v528q0 111 -76.5 187.5t-187.5 76.5t-187.5 -76.5t-76.5 -187.5v-528
q0 -111 76.5 -187.5t187.5 -76.5t187.5 76.5t76.5 187.5z" />
    <glyph glyph-name="Upsilontonos" unicode="&#x38e;" 
d="M132 1188v198q0 66 66 66t66 -66v-198q0 -66 -66 -66t-66 66zM924 66q0 -66 -66 -66t-66 66v594l-384 556q-12 17 -12 38q0 66 66 66q36 0 55 -28l341 -496l341 496q19 28 55 28q66 0 66 -66q0 -21 -12 -38l-384 -556v-594z" />
    <glyph glyph-name="Omegatonos" unicode="&#x38f;" 
d="M198 1188v198q0 66 66 66t66 -66v-198q0 -66 -66 -66t-66 66zM793 1188q-138 0 -234.5 -96.5t-96.5 -233.5v-132q0 -173 153 -279q26 -18 35.5 -34t9.5 -56v-291q0 -66 -66 -66h-198q-66 0 -66 66t66 66h132v215q-198 137 -198 379v132q0 192 135 327t327 135t327 -135
t135 -327v-132q0 -242 -198 -379v-215h132q66 0 66 -66t-66 -66h-198q-66 0 -66 66v291q0 38 9 55t36 35q140 97 152 263q1 9 1 148t-95.5 234.5t-233.5 95.5z" />
    <glyph glyph-name="iotadieresistonos" unicode="&#x390;" 
d="M528 1518q-66 0 -66 66q0 34 26 53l264 198q17 13 40 13q66 0 66 -66q0 -33 -26 -53l-264 -198q-17 -13 -40 -13zM726 1188v66q0 66 66 66t66 -66v-66q0 -66 -66 -66t-66 66zM330 1188v66q0 66 66 66t66 -66v-66q0 -66 -66 -66t-66 66zM865 0q-144 0 -240.5 96.5
t-96.5 233.5v528q0 66 66 66t66 -66v-528q0 -83 57 -140.5t133 -57.5t131.5 44.5t74.5 44.5q66 0 66 -66q0 -24 -17 -44q-96 -111 -240 -111z" />
    <glyph glyph-name="Alpha" unicode="&#x391;" 
d="M1188 66q0 -66 -66 -66q-48 0 -63 45l-95 285h-476l-95 -285q-15 -45 -63 -45q-66 0 -66 66q0 12 3 21l393 1180q18 53 66 53t65 -51l394 -1182q3 -9 3 -21zM726 1044l-194 -582h388z" />
    <glyph glyph-name="Beta" unicode="&#x392;" 
d="M462 660v-528h264q111 0 187.5 76.5t76.5 187.5t-76.5 187.5t-187.5 76.5h-264zM462 1188v-396h264q82 0 140 58t58 140t-58 140t-140 58h-264zM1122 396q0 -164 -116 -280t-280 -116h-330q-66 0 -66 66v1188q0 66 66 66h330q139 0 234.5 -96t95.5 -244t-122 -247
q188 -112 188 -337z" />
    <glyph glyph-name="Gamma" unicode="&#x393;" 
d="M495 1188v-1122q0 -66 -66 -66t-66 66v1188q0 66 66 66h594q66 0 66 -66t-66 -66h-528z" />
    <glyph glyph-name="Delta" unicode="&#x394;" 
d="M1122 0h-792q-66 0 -66 66q0 12 3 21l394 1182q17 51 65 51t65 -51l394 -1182q3 -9 3 -29t-19.5 -39t-46.5 -19zM422 132h608l-304 912z" />
    <glyph glyph-name="Delta" unicode="&#x2206;" 
d="M1122 0h-792q-66 0 -66 66q0 12 3 21l394 1182q17 51 65 51t65 -51l394 -1182q3 -9 3 -29t-19.5 -39t-46.5 -19zM422 132h608l-304 912z" />
    <glyph glyph-name="Epsilon" unicode="&#x395;" 
d="M363 66v1188q0 66 66 66h594q66 0 66 -66t-66 -66h-528v-396h396q66 0 66 -66t-66 -66h-396v-528h528q66 0 66 -66t-66 -66h-594q-66 0 -66 66z" />
    <glyph glyph-name="Zeta" unicode="&#x396;" 
d="M1056 132q66 0 66 -66t-66 -66h-660q-66 0 -66 66q0 17 13 40l601 1082h-548q-66 0 -66 66t66 66h660q66 0 66 -65q0 -18 -13 -41l-600 -1082h547z" />
    <glyph glyph-name="Eta" unicode="&#x397;" 
d="M330 66v1188q0 66 66 66t66 -66v-462h528v462q0 66 66 66t66 -66v-1188q0 -66 -66 -66t-66 66v594h-528v-594q0 -66 -66 -66t-66 66z" />
    <glyph glyph-name="Theta" unicode="&#x398;" 
d="M792 594h-132q-66 0 -66 66t66 66h132q66 0 66 -66t-66 -66zM1122 396q0 -164 -116 -280t-280 -116t-280 116t-116 280v528q0 164 116 280t280 116t280 -115.5t116 -280.5v-528zM990 396v528q0 111 -76.5 187.5t-187.5 76.5t-187.5 -76.5t-76.5 -187.5v-528
q0 -111 76.5 -187.5t187.5 -76.5t187.5 76.5t76.5 187.5z" />
    <glyph glyph-name="Theta" unicode="&#x472;" 
d="M792 594h-132q-66 0 -66 66t66 66h132q66 0 66 -66t-66 -66zM1122 396q0 -164 -116 -280t-280 -116t-280 116t-116 280v528q0 164 116 280t280 116t280 -115.5t116 -280.5v-528zM990 396v528q0 111 -76.5 187.5t-187.5 76.5t-187.5 -76.5t-76.5 -187.5v-528
q0 -111 76.5 -187.5t187.5 -76.5t187.5 76.5t76.5 187.5z" />
    <glyph glyph-name="Iota" unicode="&#x399;" 
d="M726 0q-66 0 -66 66v1188q0 66 66 66t66 -66v-1188q0 -66 -66 -66z" />
    <glyph glyph-name="Kappa" unicode="&#x39a;" 
d="M462 66q0 -66 -66 -66t-66 66v1188q0 66 66 66t66 -66v-555l544 599q20 22 50 22q66 0 66 -66q0 -25 -18 -45l-377 -415l386 -695q9 -16 9 -37t-21 -41.5t-53 -20.5t-51 35l-364 655l-171 -188v-436z" />
    <glyph glyph-name="Lambda" unicode="&#x39b;" 
d="M1188 66q0 -66 -66 -66q-48 0 -63 45l-333 999l-333 -999q-15 -45 -63 -45q-66 0 -66 66q0 12 3 21l394 1182q17 51 65 51t65 -51l394 -1182q3 -9 3 -21z" />
    <glyph glyph-name="Mu" unicode="&#x39c;" 
d="M1122 1320q66 0 66 -66v-1188q0 -66 -66 -66t-66 66v971l-269 -403q-27 -40 -61 -40t-62 40l-268 403v-971q0 -66 -66 -66t-66 66v1188q0 66 66 66q36 0 58 -33l338 -507l340 511q19 29 56 29z" />
    <glyph glyph-name="Nu" unicode="&#x39d;" 
d="M990 1254q0 66 66 66t66 -66v-1188q0 -66 -66 -66q-40 0 -58 33l-536 967v-934q0 -66 -66 -66t-66 66v1188q0 66 66 66q39 0 61 -39l533 -960v933z" />
    <glyph glyph-name="Xi" unicode="&#x39e;" 
d="M1056 0h-660q-66 0 -66 66t66 66h660q66 0 66 -66t-66 -66zM1056 1188h-660q-66 0 -66 66t66 66h660q66 0 66 -66t-66 -66zM858 594h-264q-66 0 -66 66t66 66h264q66 0 66 -66t-66 -66z" />
    <glyph glyph-name="Omicron" unicode="&#x39f;" 
d="M1122 396q0 -164 -116 -280t-280 -116t-280 116t-116 280v528q0 164 116 280t280 116t280 -115.5t116 -280.5v-528zM990 396v528q0 111 -76.5 187.5t-187.5 76.5t-187.5 -76.5t-76.5 -187.5v-528q0 -111 76.5 -187.5t187.5 -76.5t187.5 76.5t76.5 187.5z" />
    <glyph glyph-name="Pi" unicode="&#x3a0;" 
d="M396 1320h660q66 0 66 -66v-1188q0 -66 -66 -66t-66 66v1122h-528v-1122q0 -66 -66 -66t-66 66v1188q0 66 66 66z" />
    <glyph glyph-name="Rho" unicode="&#x3a1;" 
d="M462 1188v-528h264q111 0 187.5 76.5t76.5 187.5t-76.5 187.5t-187.5 76.5h-264zM396 1320h330q165 0 280.5 -116t115.5 -286t-110 -280t-286 -110h-264v-462q0 -66 -66 -66t-66 66v1188q0 66 66 66z" />
    <glyph glyph-name="Sigma" unicode="&#x3a3;" 
d="M330 1254q0 66 66 66h660q66 0 66 -66t-66 -66h-559l218 -490q11 -25 11 -38t-11 -38l-218 -490h559q66 0 66 -66t-66 -66h-660q-66 0 -66 66q0 14 10 36l248 558l-249 561q-9 20 -9 33z" />
    <glyph glyph-name="Tau" unicode="&#x3a4;" 
d="M330 1254q0 66 66 66h660q66 0 66 -66t-66 -66h-264v-1122q0 -66 -66 -66t-66 66v1122h-264q-66 0 -66 66z" />
    <glyph glyph-name="Upsilon" unicode="&#x3a5;" 
d="M792 66q0 -66 -66 -66t-66 66v594l-384 556q-12 17 -12 38q0 66 66 66q36 0 55 -28l341 -496l341 496q19 28 55 28q66 0 66 -66q0 -21 -12 -38l-384 -556v-594z" />
    <glyph glyph-name="Phi" unicode="&#x3a6;" 
d="M792 198v-132q0 -66 -66 -66t-66 66v132q-146 0 -218 31q-111 46 -177.5 145.5t-66.5 219.5v132q0 120 66 219.5t178 146.5q72 30 218 30v132q0 66 66 66t66 -66v-132q147 0 220 -31q111 -47 176.5 -146t65.5 -219v-132q0 -120 -66 -219t-176 -146q-73 -31 -220 -31z
M660 330v660h-66q-111 0 -187.5 -76.5t-76.5 -187.5v-132q0 -111 76.5 -187.5t187.5 -76.5h66zM792 330h66q111 0 187.5 76.5t76.5 187.5v132q0 111 -76.5 187.5t-187.5 76.5h-66v-660z" />
    <glyph glyph-name="Chi" unicode="&#x3a7;" 
d="M1188 66q0 -66 -66 -66q-36 0 -55 29l-341 512l-341 -512q-19 -29 -55 -29q-66 0 -66 66q0 20 11 37l371 557l-371 557q-11 17 -11 37q0 66 66 66q36 0 55 -29l341 -511l341 511q19 29 55 29q66 0 66 -66q0 -20 -11 -37l-371 -557l371 -557q11 -17 11 -37z" />
    <glyph glyph-name="Psi" unicode="&#x3a8;" 
d="M660 330q-164 0 -280 116t-116 280v528q0 66 66 66t66 -66v-528q0 -154 131 -229q61 -35 133 -35v792q0 66 66 66t66 -66v-792q71 0 133 35q131 75 131 229v528q0 66 66 66t66 -66v-528q0 -164 -116 -280t-280 -116v-264q0 -66 -66 -66t-66 66v264z" />
    <glyph glyph-name="Psi" unicode="&#x470;" 
d="M660 330q-164 0 -280 116t-116 280v528q0 66 66 66t66 -66v-528q0 -154 131 -229q61 -35 133 -35v792q0 66 66 66t66 -66v-792q71 0 133 35q131 75 131 229v528q0 66 66 66t66 -66v-528q0 -164 -116 -280t-280 -116v-264q0 -66 -66 -66t-66 66v264z" />
    <glyph glyph-name="Omega" unicode="&#x3a9;" 
d="M727 1188q-138 0 -234.5 -96.5t-96.5 -233.5v-132q0 -173 153 -279q26 -18 35.5 -34t9.5 -56v-291q0 -66 -66 -66h-198q-66 0 -66 66t66 66h132v215q-198 137 -198 379v132q0 192 135 327t327 135t327 -135t135 -327v-132q0 -242 -198 -379v-215h132q66 0 66 -66t-66 -66
h-198q-66 0 -66 66v291q0 38 9 55t36 35q140 97 152 263q1 9 1 148t-95.5 234.5t-233.5 95.5z" />
    <glyph glyph-name="Iotadieresis" unicode="&#x3aa;" 
d="M858 1584v66q0 66 66 66t66 -66v-66q0 -66 -66 -66t-66 66zM462 1584v66q0 66 66 66t66 -66v-66q0 -66 -66 -66t-66 66zM726 0q-66 0 -66 66v1188q0 66 66 66t66 -66v-1188q0 -66 -66 -66z" />
    <glyph glyph-name="Upsilondieresis" unicode="&#x3ab;" 
d="M792 66q0 -66 -66 -66t-66 66v594l-384 556q-12 17 -12 38q0 66 66 66q36 0 55 -28l341 -496l341 496q19 28 55 28q66 0 66 -66q0 -21 -12 -38l-384 -556v-594zM858 1584v66q0 66 66 66t66 -66v-66q0 -66 -66 -66t-66 66zM462 1584v66q0 66 66 66t66 -66v-66
q0 -66 -66 -66t-66 66z" />
    <glyph glyph-name="alphatonos" unicode="&#x3ac;" 
d="M561 1122q-66 0 -66 66q0 34 26 53l264 198q17 13 40 13q66 0 66 -66q0 -34 -26 -53l-264 -198q-17 -13 -40 -13zM1155 66q0 -45 -37 -59q-20 -7 -79 -7t-98 93l-83 198l-49 -118q-32 -77 -99.5 -125t-163.5 -48t-172.5 76.5t-76.5 187.5v396q0 111 76.5 187.5
t187.5 76.5q177 0 243 -160l54 -131l104 250q16 41 52 41t55.5 -19.5t19.5 -39.5t-160 -403l128 -305q10 -25 32 -25q66 0 66 -66zM561 792q-55 0 -93.5 -38.5t-38.5 -93.5v-396q0 -54 39 -93t93 -39q88 0 124 86l102 244l-106 253q-32 77 -120 77z" />
    <glyph glyph-name="epsilontonos" unicode="&#x3ad;" 
d="M594 1122q-66 0 -66 66q0 34 26 53l264 198q17 13 40 13q66 0 66 -66q0 -34 -26 -53l-264 -198q-17 -13 -40 -13zM528 268q0 -58 39 -97t93 -39h132q50 0 131.5 33.5t82.5 33.5q21 0 35.5 -24t14.5 -46q0 -55 -98 -92t-166 -37h-132q-111 0 -187.5 76.5t-76.5 201.5
t91 184q-91 57 -91 183t76.5 202.5t187.5 76.5h132q64 0 164 -38t100 -91q0 -23 -14 -47t-36 -24q2 0 -78.5 34t-135.5 34h-132q-55 0 -93.5 -38t-38.5 -94t36 -94t103 -38h21q14 1 40 1t45 -19.5t19 -47.5t-19 -47t-57 -19t-80 -3t-74 -35q-34 -32 -34 -90z" />
    <glyph glyph-name="etatonos" unicode="&#x3ae;" 
d="M660 1122q-66 0 -66 66q0 34 26 53l264 198q17 13 40 13q66 0 66 -66q0 -34 -26 -53l-264 -198q-17 -13 -40 -13zM330 858q0 66 66 66q110 0 167 -93q93 93 231 93t233 -95.5t95 -234.5v-924q0 -66 -66 -66t-66 66v924q0 82 -58 140t-140 58t-140 -58t-58 -140v-528
q0 -66 -66 -66t-66 66v660q0 51 -66 66t-66 66z" />
    <glyph glyph-name="iotatonos" unicode="&#x3af;" 
d="M462 1122q-66 0 -66 66q0 34 26 53l264 198q17 13 40 13q66 0 66 -66q0 -34 -26 -53l-264 -198q-17 -13 -40 -13zM799 0q-144 0 -240.5 96.5t-96.5 233.5v528q0 66 66 66t66 -66v-528q0 -83 58 -140.5t134 -57.5t130 44.5t74 44.5q66 0 66 -66q0 -24 -17 -44
q-96 -111 -240 -111z" />
    <glyph glyph-name="upsilondieresistonos" unicode="&#x3b0;" 
d="M990 858q0 27 19.5 46.5t46.5 19.5q66 0 66 -66q0 -364 -320 -736q-59 -68 -88 -95t-54 -27q-53 0 -64 50l-71 316q-63 280 -63 353t-60 73q-72 0 -72 66t66 66q114 0 172 -98q26 -46 26 -104t60 -328l43 -193q293 331 293 657zM693 1518q-66 0 -66 66q0 34 26 53
l264 198q17 13 40 13q66 0 66 -66q0 -33 -26 -53l-264 -198q-17 -13 -40 -13zM891 1188v66q0 66 66 66t66 -66v-66q0 -66 -66 -66t-66 66zM495 1188v66q0 66 66 66t66 -66v-66q0 -66 -66 -66t-66 66z" />
    <glyph glyph-name="alpha" unicode="&#x3b1;" 
d="M561 792q-55 0 -93.5 -38.5t-38.5 -93.5v-396q0 -54 39 -93t93 -39q88 0 124 86l102 244l-106 253q-32 77 -120 77zM1155 66q0 -45 -37 -59q-20 -7 -79 -7t-98 93l-83 198l-49 -118q-32 -77 -99.5 -125t-163.5 -48t-172.5 76.5t-76.5 187.5v396q0 111 76.5 187.5
t187.5 76.5q177 0 243 -160l54 -131l104 250q16 41 52 41t55.5 -19.5t19.5 -39.5t-160 -403l128 -305q10 -25 32 -25q66 0 66 -66z" />
    <glyph glyph-name="beta" unicode="&#x3b2;" 
d="M660 1188q-83 0 -140.5 -57.5t-57.5 -140.5v-1320q0 -66 -66 -66t-66 66v1320q0 137 96.5 233.5t233.5 96.5h132q111 0 187.5 -76.5t76.5 -187.5v-132q0 -113 -81 -191q147 -119 147 -337q0 -176 -125 -316q-71 -80 -205 -80q-66 0 -66 66t82 66t132 87t50 177t-50 178
q-50 86 -133 86h-15q-66 0 -66 66t66 66q53 0 92.5 39.5t39.5 92.5v132q0 56 -38 94t-94 38h-132z" />
    <glyph glyph-name="gamma" unicode="&#x3b3;" 
d="M1089 -132q0 -110 -77 -187t-187 -77t-187 77t-77 187q0 334 167 638q-141 175 -392 292q-39 18 -39 52t19.5 54t39.5 20t32 -5q230 -85 409 -290q117 169 250 279q19 16 42 16q66 0 66 -66q0 -29 -24 -51q-161 -151 -248 -287q206 -281 206 -652zM957 -132
q0 280 -143 516q-121 -252 -121 -516q0 -54 39.5 -93t93.5 -39t92.5 38.5t38.5 93.5z" />
    <glyph glyph-name="delta" unicode="&#x3b4;" 
d="M924 330v264q0 82 -58 140t-140 58t-140 -58t-58 -140v-264q0 -83 58 -140.5t140 -57.5t140 58t58 140zM1056 594v-264q0 -137 -96.5 -233.5t-233.5 -96.5t-233.5 96.5t-96.5 233.5v264q0 116 72.5 207t185.5 115l-140 120q-52 44 -52 116t48.5 120t117.5 48h296
q66 0 66 -66t-66 -66h-297q-33 0 -33 -33q0 -15 10 -24l320 -272q132 -112 132 -265z" />
    <glyph glyph-name="epsilon" unicode="&#x3b5;" 
d="M528 268q0 -58 39 -97t93 -39h132q50 0 131.5 33.5t82.5 33.5q21 0 35.5 -24t14.5 -46q0 -55 -98 -92t-166 -37h-132q-111 0 -187.5 76.5t-76.5 201.5t91 184q-91 57 -91 183t76.5 202.5t187.5 76.5h132q64 0 164 -38t100 -91q0 -23 -14 -47t-36 -24q2 0 -78.5 34
t-135.5 34h-132q-55 0 -93.5 -38t-38.5 -94t36 -94t103 -38h21q14 1 40 1t45 -19.5t19 -47.5t-19 -47t-57 -19t-80 -3t-74 -35q-34 -32 -34 -90z" />
    <glyph glyph-name="zeta" unicode="&#x3b6;" 
d="M528 250q0 -40 39 -79t93 -39h198q115 0 172 -98q26 -45 26 -100v-132q0 -82 -58 -140t-132 -58t-74 66t66 66t66 66v132q0 66 -66 66h-198q-111 0 -187.5 76.5t-76.5 187.5q0 55 22 107q153 359 364 619h-122q-111 0 -187.5 76.5t-76.5 187.5q0 66 66 66t66 -66
q0 -54 39 -93t93 -39h264q66 0 66 -66q0 -23 -26 -53q-263 -300 -414 -660q-22 -53 -22 -93z" />
    <glyph glyph-name="eta" unicode="&#x3b7;" 
d="M330 858q0 66 66 66q110 0 167 -93q93 93 231 93t233 -95.5t95 -234.5v-924q0 -66 -66 -66t-66 66v924q0 82 -58 140t-140 58t-140 -58t-58 -140v-528q0 -66 -66 -66t-66 66v660q0 51 -66 66t-66 66z" />
    <glyph glyph-name="theta" unicode="&#x3b8;" 
d="M528 594v-264q0 -83 58 -140.5t140 -57.5t140 58t58 140v264h-396zM528 726h396v264q0 82 -58 140t-140 58t-140 -58t-58 -140v-264zM396 330v660q0 137 96.5 233.5t234.5 96.5t233.5 -95.5t95.5 -234.5v-660q0 -137 -96.5 -233.5t-233.5 -96.5t-233.5 96.5t-96.5 233.5z
" />
    <glyph glyph-name="theta" unicode="&#x473;" 
d="M528 594v-264q0 -83 58 -140.5t140 -57.5t140 58t58 140v264h-396zM528 726h396v264q0 82 -58 140t-140 58t-140 -58t-58 -140v-264zM396 330v660q0 137 96.5 233.5t234.5 96.5t233.5 -95.5t95.5 -234.5v-660q0 -137 -96.5 -233.5t-233.5 -96.5t-233.5 96.5t-96.5 233.5z
" />
    <glyph glyph-name="iota" unicode="&#x3b9;" 
d="M766 0q-144 0 -240.5 96.5t-96.5 233.5v528q0 66 66 66t66 -66v-528q0 -83 57.5 -140.5t133.5 -57.5t131 44.5t74 44.5q66 0 66 -66q0 -24 -17 -44q-96 -111 -240 -111z" />
    <glyph glyph-name="kappa" unicode="&#x3ba;" 
d="M1122 66q0 -66 -76 -66h-56q-40 0 -78.5 29t-53.5 68l-139 354l-125 -145v-240q0 -66 -66 -66t-66 66v660q0 66 -66 66t-66 66t66 66q54 0 100 -26q98 -58 98 -172v-220l346 395q20 23 50 23q66 0 66 -66q0 -25 -17 -44l-222 -254l158 -399q11 -29 79 -29t68 -66z" />
    <glyph glyph-name="lambda" unicode="&#x3bb;" 
d="M1122 66q0 -66 -72 -66h-60q-43 0 -80.5 28.5t-50.5 69.5l-147 464l-256 -524q-19 -38 -53 -38t-53.5 19t-19.5 41t6 34l319 651l-109 343q-18 57 -42 78.5t-42 21.5q-66 0 -66 66q0 45 37 59q20 7 74 7q104 0 159 -175l309 -984q9 -29 78 -29t69 -66z" />
    <glyph glyph-name="mu" unicode="&#x3bc;" 
d="M672 0q-124 0 -210 66v-396q0 -66 -66 -66t-66 66v1188q0 66 66 66t66 -66v-528q0 -83 58 -140.5t140 -57.5t140 58t58 140v528q0 66 66 66t66 -66v-660q0 -66 66 -66t66 -66t-66 -66q-109 0 -167 92q-93 -92 -217 -92z" />
    <glyph glyph-name="nu" unicode="&#x3bd;" 
d="M990 858q0 27 19.5 46.5t46.5 19.5q66 0 66 -66q0 -364 -320 -736q-59 -68 -88 -95t-54 -27q-53 0 -64 50l-71 316q-63 280 -63 353t-60 73q-72 0 -72 66t66 66q114 0 172 -98q26 -46 26 -104t60 -328l43 -193q293 331 293 657z" />
    <glyph glyph-name="xi" unicode="&#x3be;" 
d="M1122 -66v-132q0 -82 -58 -140t-132 -58t-74 66q0 27 20 46.5t47 19.5q65 0 65 66v132q0 66 -66 66h-198q-164 0 -280 116t-116 280q0 232 204 346q-72 76 -72 166t37 150q-73 10 -121 66t-48 126t66 70t66 -66t66 -66h396q66 0 66 -66t-66 -66h-198q-55 0 -93.5 -39
t-38.5 -93t39 -93t93 -39h198q66 0 66 -66t-66 -66h-198q-110 0 -187 -77t-77 -187q0 -72 36 -132q77 -132 265 -132l115 2q159 0 218 -100q26 -46 26 -100z" />
    <glyph glyph-name="omicron" unicode="&#x3bf;" 
d="M924 330v264q0 82 -58 140t-140 58t-140 -58t-58 -140v-264q0 -83 58 -140.5t140 -57.5t140 58t58 140zM396 330v264q0 137 96.5 233.5t234.5 96.5t233.5 -95.5t95.5 -234.5v-264q0 -137 -96.5 -233.5t-233.5 -96.5t-233.5 96.5t-96.5 233.5z" />
    <glyph glyph-name="pi" unicode="&#x3c0;" 
d="M990 792v-594q0 -66 66 -66q26 0 46 -20t20 -46q0 -66 -74 -66t-132 57.5t-58 140.5v594h-264v-594q0 -82 -58 -140t-132 -58t-74 66q0 27 21 46.5t45 19.5q66 0 66 66v594h-132q-66 0 -66 66t66 66h792q66 0 66 -66t-66 -66h-132z" />
    <glyph glyph-name="rho" unicode="&#x3c1;" 
d="M726 -198q0 -198 -83 -198q-26 0 -46 20t-20 38q1 18 9 50q8 34 8 90q0 175 -116 310q-82 96 -82 218v264q0 137 96.5 233.5t234.5 96.5t233.5 -95.5t95.5 -234.5v-264q0 -137 -96.5 -233.5t-233.5 -96.5q-16 0 -36 6q36 -99 36 -204zM924 330v264q0 82 -58 140t-140 58
t-140 -58t-58 -140v-264q0 -83 58 -140.5t140 -57.5t140 58t58 140z" />
    <glyph glyph-name="sigma1" unicode="&#x3c2;" 
d="M759 924h198q66 0 66 -66t-66 -66h-198q-264 0 -264 -330t264 -330q145 0 171 -5q88 -16 133 -93q26 -46 26 -100v-132q0 -82 -58 -140t-132 -58t-74 66t66 66q28 0 47 19t19 47v132q0 66 -66 66h-132q-200 0 -298 128t-98 334q0 208 97 335t299 127z" />
    <glyph glyph-name="sigma" unicode="&#x3c3;" 
d="M825 330v264q0 82 -58 140t-140 58t-140 -58t-58 -140v-264q0 -83 57.5 -140.5t139.5 -57.5t140.5 58t58.5 140zM1089 1056q66 0 66 -74t-58 -132t-140 -58h-66q66 -84 66 -198v-264q0 -137 -96.5 -233.5t-233.5 -96.5t-233.5 96.5t-96.5 233.5v264q0 92 45 167
q97 163 285 163h330q66 0 66 68q0 24 19.5 44t46.5 20z" />
    <glyph glyph-name="tau" unicode="&#x3c4;" 
d="M858 0q-111 0 -187.5 76.5t-76.5 187.5v528h-198q-66 0 -66 66t66 66h660q66 0 66 -66t-66 -66h-330v-528q0 -54 39 -93t93 -39q66 0 66 -66t-66 -66z" />
    <glyph glyph-name="upsilon" unicode="&#x3c5;" 
d="M1188 396q0 -164 -116 -280t-280 -116t-280 116t-116 280v330q0 66 -66 66t-66 66t66 66q54 0 100 -26q98 -58 98 -172v-330q0 -151 132 -228q60 -36 132 -36t133 36q131 77 131 228v462q0 66 66 66t66 -66v-462z" />
    <glyph glyph-name="phi" unicode="&#x3c6;" 
d="M660 132v660q-138 0 -234 -96.5t-96 -233.5t96.5 -233.5t233.5 -96.5zM792 0v-330q0 -66 -66 -66t-66 66v330q-192 0 -327 135t-135 327t135 327t327 135v198q0 66 66 66t66 -66v-198q192 0 327 -135t135 -327t-135 -327t-327 -135zM792 132q137 0 233.5 96.5t96.5 233.5
t-96.5 233.5t-233.5 96.5v-660z" />
    <glyph glyph-name="chi" unicode="&#x3c7;" 
d="M990 924q66 0 66 -66q0 -13 -6 -27l-251 -567l221 -501q12 -27 36 -27q66 0 66 -66q0 -45 -37 -59q-20 -7 -79 -7t-100 93l-180 404l-204 -458q-17 -39 -60 -39q-66 0 -66 66q0 13 6 27l251 567l-221 501q-12 27 -36 27q-66 0 -66 66q0 45 37 59q20 7 79 7t100 -93
l180 -404l204 458q17 39 60 39z" />
    <glyph glyph-name="psi" unicode="&#x3c8;" 
d="M792 -330q0 -66 -66 -66t-66 66v335q-171 26 -283.5 155t-112.5 302v396q0 66 66 66t66 -66v-396q0 -117 74.5 -208.5t189.5 -114.5v983q0 66 66 66t66 -66v-983q116 24 190 114.5t74 208.5v396q0 66 66 66t66 -66v-396q0 -172 -113 -302t-283 -155v-335z" />
    <glyph glyph-name="psi" unicode="&#x471;" 
d="M792 -330q0 -66 -66 -66t-66 66v335q-171 26 -283.5 155t-112.5 302v396q0 66 66 66t66 -66v-396q0 -117 74.5 -208.5t189.5 -114.5v983q0 66 66 66t66 -66v-983q116 24 190 114.5t74 208.5v396q0 66 66 66t66 -66v-396q0 -172 -113 -302t-283 -155v-335z" />
    <glyph glyph-name="omega" unicode="&#x3c9;" 
d="M497 0q-139 0 -219 126t-80 270q0 304 73 487q16 41 60 41q65 0 65 -66q0 -10 -16 -68q-50 -174 -50 -394q0 -90 38 -168q46 -96 120 -96t123 48t49 152v124q0 72 66 72t66 -72v-124q0 -131 82 -178q38 -22 83 -22q81 0 127 96q38 78 38 188q0 209 -62 418q-4 13 -4 24
q0 66 65 66q45 0 60 -41q73 -190 73 -487q0 -144 -80 -270t-219 -126t-229 110q-90 -110 -229 -110z" />
    <glyph glyph-name="iotadieresis" unicode="&#x3ca;" 
d="M726 1188v66q0 66 66 66t66 -66v-66q0 -66 -66 -66t-66 66zM330 1188v66q0 66 66 66t66 -66v-66q0 -66 -66 -66t-66 66zM865 0q-144 0 -240.5 96.5t-96.5 233.5v528q0 66 66 66t66 -66v-528q0 -83 57 -140.5t133 -57.5t131.5 44.5t74.5 44.5q66 0 66 -66q0 -24 -17 -44
q-96 -111 -240 -111z" />
    <glyph glyph-name="upsilondieresis" unicode="&#x3cb;" 
d="M990 858q0 27 19.5 46.5t46.5 19.5q66 0 66 -66q0 -364 -320 -736q-59 -68 -88 -95t-54 -27q-53 0 -64 50l-71 316q-63 280 -63 353t-60 73q-72 0 -72 66t66 66q114 0 172 -98q26 -46 26 -104t60 -328l43 -193q293 331 293 657zM891 1188v66q0 66 66 66t66 -66v-66
q0 -66 -66 -66t-66 66zM495 1188v66q0 66 66 66t66 -66v-66q0 -66 -66 -66t-66 66z" />
    <glyph glyph-name="omicrontonos" unicode="&#x3cc;" 
d="M594 1122q-66 0 -66 66q0 34 26 53l264 198q17 13 40 13q66 0 66 -66q0 -34 -26 -53l-264 -198q-17 -13 -40 -13zM924 330v264q0 82 -58 140t-140 58t-140 -58t-58 -140v-264q0 -83 58 -140.5t140 -57.5t140 58t58 140zM396 330v264q0 137 96.5 233.5t234.5 96.5
t233.5 -95.5t95.5 -234.5v-264q0 -137 -96.5 -233.5t-233.5 -96.5t-233.5 96.5t-96.5 233.5z" />
    <glyph glyph-name="upsilontonos" unicode="&#x3cd;" 
d="M990 858q0 27 19.5 46.5t46.5 19.5q66 0 66 -66q0 -364 -320 -736q-59 -68 -88 -95t-54 -27q-53 0 -64 50l-71 316q-63 280 -63 353t-60 73q-72 0 -72 66t66 66q114 0 172 -98q26 -46 26 -104t60 -328l43 -193q293 331 293 657zM660 1122q-66 0 -66 66q0 34 26 53
l264 198q17 13 40 13q66 0 66 -66q0 -33 -26 -53l-264 -198q-17 -13 -40 -13z" />
    <glyph glyph-name="omegatonos" unicode="&#x3ce;" 
d="M497 0q-139 0 -219 126t-80 270q0 304 73 487q16 41 60 41q65 0 65 -66q0 -10 -16 -68q-50 -174 -50 -394q0 -90 38 -168q46 -96 120 -96t123 48t49 152v124q0 72 66 72t66 -72v-124q0 -131 82 -178q38 -22 83 -22q81 0 127 96q38 78 38 188q0 209 -62 418q-4 13 -4 24
q0 66 65 66q45 0 60 -41q73 -190 73 -487q0 -144 -80 -270t-219 -126t-229 110q-90 -110 -229 -110zM660 1122q-66 0 -66 66q0 34 26 53l264 198q17 13 40 13q66 0 66 -66q0 -33 -26 -53l-264 -198q-17 -13 -40 -13z" />
    <glyph glyph-name="betacurled" unicode="&#x3d0;" 
d="M726 924q55 0 93.5 38.5t38.5 94.5t-38 93.5t-108 37.5t-127 -57.5t-57 -140.5v-132q89 66 198 66zM924 330v264q0 83 -58 140.5t-140 57.5t-140 -58t-58 -140v-264q0 -83 57.5 -140.5t140.5 -57.5t140.5 58t57.5 140zM1056 594v-264q0 -138 -96 -234t-234 -96t-234 96.5
t-96 233.5v660q0 137 97 233.5t242 96.5t220 -131q35 -61 35 -133q0 -113 -79 -189q145 -95 145 -273z" />
    <glyph glyph-name="thetascript" unicode="&#x3d1;" 
d="M495 1023q0 124 86.5 210.5t210.5 86.5t210.5 -87t86.5 -210v-165h66q66 0 66 -66q0 -27 -19.5 -46.5t-46.5 -19.5h-66v-396q0 -138 -96.5 -234t-234.5 -96t-233.5 96.5t-95.5 233.5q0 66 -66 66h-66q-66 0 -66 66t66 66h66q83 0 140.5 -58t57.5 -140.5t57.5 -140
t140.5 -57.5t140.5 58t57.5 140v396h-66q-290 0 -366 119q-30 46 -30 112v66zM627 1023v-66q0 -99 264 -99h66v165q0 68 -49 116.5t-116 48.5t-116 -49t-49 -116z" />
    <glyph glyph-name="Upsilonhook" unicode="&#x3d2;" 
d="M1254 1122q0 -27 -20 -46.5t-46 -19.5t-46 20t-20 46q0 66 -66 66t-165 -196t-99 -398v-528q0 -66 -66 -66t-66 66v594q0 110 -60 234t-148 210q-88 84 -188 84q-22 0 -44 22t-22 44q0 66 66 66q197 0 357 -206q70 -90 105 -183q41 133 119 244q102 145 211 145
q82 0 140 -58t58 -140z" />
    <glyph glyph-name="Upsilonhooktonos" unicode="&#x3d3;" 
d="M1254 1122q0 -27 -20 -46.5t-46 -19.5t-46 20t-20 46q0 66 -66 66t-165 -196t-99 -398v-528q0 -66 -66 -66t-66 66v594q0 110 -60 234t-148 210q-88 84 -188 84q-22 0 -44 22t-22 44q0 66 66 66q197 0 357 -206q70 -90 105 -183q41 133 119 244q102 145 211 145
q82 0 140 -58t58 -140zM660 1452v198q0 66 66 66t66 -66v-198q0 -66 -66 -66t-66 66z" />
    <glyph glyph-name="Upsilonhookdieresis" unicode="&#x3d4;" 
d="M1254 1122q0 -27 -20 -46.5t-46 -19.5t-46 20t-20 46q0 66 -66 66t-165 -196t-99 -398v-528q0 -66 -66 -66t-66 66v594q0 110 -60 234t-148 210q-88 84 -188 84q-22 0 -44 22t-22 44q0 66 66 66q197 0 357 -206q70 -90 105 -183q41 133 119 244q102 145 211 145
q82 0 140 -58t58 -140zM858 1584v66q0 66 66 66t66 -66v-66q0 -66 -66 -66t-66 66zM462 1584v66q0 66 66 66t66 -66v-66q0 -66 -66 -66t-66 66z" />
    <glyph glyph-name="phiscript" unicode="&#x3d5;" 
d="M1056 660q0 56 -38 94t-94 38t-94 -38.5t-38 -93.5v-521q116 24 190 114.5t74 208.5v198zM1188 660v-198q0 -173 -113 -303t-283 -154v-335q0 -66 -66 -66t-66 66v335q-171 26 -283.5 155.5t-112.5 301.5v396q0 66 66 66t66 -66v-396q0 -118 74.5 -209t189.5 -114v521
q0 111 77 187.5t187 76.5t187 -77t77 -187z" />
    <glyph glyph-name="afii10023" unicode="&#x401;" 
d="M858 1584v66q0 66 66 66t66 -66v-66q0 -66 -66 -66t-66 66zM462 1584v66q0 66 66 66t66 -66v-66q0 -66 -66 -66t-66 66zM396 66v1188q0 66 66 66h528q66 0 66 -66t-66 -66h-462v-396h330q66 0 66 -66t-66 -66h-330v-528h462q66 0 66 -66t-66 -66h-528q-66 0 -66 66z" />
    <glyph glyph-name="afii10051" unicode="&#x402;" 
d="M951 0q-20 0 -40 20t-20 54t29 47q169 71 169 247v160q0 111 -76.5 187.5t-187.5 76.5q-73 0 -132 -34v-692q0 -66 -66 -66t-66 66v1122h-264q-66 0 -66 66t66 66h660q66 0 66 -66t-66 -66h-264v-286q64 22 132 22q165 0 280.5 -115.5t115.5 -280.5v-160
q0 -117 -63.5 -216t-170.5 -145q-16 -7 -36 -7z" />
    <glyph glyph-name="afii10052" unicode="&#x403;" 
d="M594 1518q-66 0 -66 66q0 34 26 53l264 198q17 13 40 13q66 0 66 -66q0 -34 -26 -53l-264 -198q-17 -13 -40 -13zM528 1188v-1122q0 -66 -66 -66t-66 66v1188q0 66 66 66h528q66 0 66 -66t-66 -66h-462z" />
    <glyph glyph-name="afii10053" unicode="&#x404;" 
d="M462 660v-330q0 -82 58 -140t140 -58h396q66 0 66 -66t-66 -66h-396q-137 0 -233.5 96.5t-96.5 233.5v660q0 137 96.5 233.5t233.5 96.5h396q66 0 66 -66t-66 -66h-396q-83 0 -140.5 -58t-57.5 -140v-198h330q66 0 66 -66t-66 -66h-330z" />
    <glyph glyph-name="afii10054" unicode="&#x405;" 
d="M1122 330q0 -137 -96.5 -233.5t-233.5 -96.5q-225 0 -433 144q-29 20 -29 50t20 50t42 20t61 -24t163 -80q81 -28 170 -28t146.5 57.5t57.5 140.5q0 121 -110 177l-371 190q-179 92 -179 293q0 137 96.5 233.5t233.5 96.5q220 0 357 -72q39 -20 39 -54t-19.5 -53
t-38.5 -19t-36 7q-146 59 -302 59q-83 0 -140.5 -57.5t-57.5 -140.5q0 -121 108 -176l371 -190q181 -93 181 -294z" />
    <glyph glyph-name="afii10055" unicode="&#x406;" 
d="M726 0q-66 0 -66 66v1188q0 66 66 66t66 -66v-1188q0 -66 -66 -66z" />
    <glyph glyph-name="afii10056" unicode="&#x407;" 
d="M858 1584v66q0 66 66 66t66 -66v-66q0 -66 -66 -66t-66 66zM462 1584v66q0 66 66 66t66 -66v-66q0 -66 -66 -66t-66 66zM726 0q-66 0 -66 66v1188q0 66 66 66t66 -66v-1188q0 -66 -66 -66z" />
    <glyph glyph-name="afii10057" unicode="&#x408;" 
d="M990 1254v-924q0 -138 -96.5 -234t-233.5 -96h-132q-66 0 -66 66t66 66h132q83 0 140.5 58t57.5 140v924q0 66 66 66t66 -66z" />
    <glyph glyph-name="afii10058" unicode="&#x409;" 
d="M792 132h132q111 0 187.5 76.5t76.5 187.5t-76.5 187.5t-187.5 76.5h-132v-528zM198 0q-66 0 -66 66q0 6 5 24l323 1164q18 66 66 66h200q66 0 66 -66v-462h132q175 0 285.5 -110t110.5 -280t-116 -286t-280 -116h-198q-66 0 -66 66v1122h-82l-317 -1142q-13 -46 -63 -46
z" />
    <glyph glyph-name="afii10059" unicode="&#x40a;" 
d="M792 132h132q111 0 187.5 76.5t76.5 187.5t-76.5 187.5t-187.5 76.5h-132v-528zM660 660h-396v-594q0 -66 -66 -66t-66 66v1188q0 66 66 66t66 -66v-462h396v462q0 66 66 66t66 -66v-462h132q175 0 285.5 -110t110.5 -280t-116 -286t-280 -116h-198q-66 0 -66 66v594z
" />
    <glyph glyph-name="afii10060" unicode="&#x40b;" 
d="M693 792v-726q0 -66 -66 -66t-66 66v1122h-264q-66 0 -66 66t66 66h660q66 0 66 -66t-66 -66h-264v-264h264q154 0 229 -131q35 -61 35 -128v-599q0 -66 -66 -66t-66 66v594q0 56 -38 94t-94 38h-264z" />
    <glyph glyph-name="afii10061" unicode="&#x40c;" 
d="M594 1518q-66 0 -66 66q0 34 26 53l264 198q17 13 40 13q66 0 66 -66q0 -34 -26 -53l-264 -198q-17 -13 -40 -13zM462 66q0 -66 -66 -66t-66 66v1188q0 66 66 66t66 -66v-555l544 599q20 22 48 22t48 -20t20 -46t-18 -45l-377 -415l386 -695q9 -15 9 -37t-19 -41.5
t-53 -19.5t-53 34l-364 655l-171 -188v-436z" />
    <glyph glyph-name="afii10062" unicode="&#x40e;" 
d="M990 528h-330q-188 0 -285 164q-45 74 -45 166v396q0 66 66 66t66 -66v-396q0 -82 58 -140t140 -58h330v594q0 66 66 66t66 -66v-990q0 -111 -76.5 -187.5t-187.5 -76.5h-330q-66 0 -66 66t66 66h330q55 0 93.5 38.5t38.5 93.5v264zM858 1452h-264q-66 0 -66 66t66 66
h264q66 0 66 -66t-66 -66z" />
    <glyph glyph-name="afii10145" unicode="&#x40f;" 
d="M792 0v-198q0 -66 -66 -66t-66 66v198h-264q-66 0 -66 66v1188q0 66 66 66t66 -66v-1122h528v1122q0 66 66 66t66 -66v-1188q0 -66 -66 -66h-264z" />
    <glyph glyph-name="afii10017" unicode="&#x410;" 
d="M1188 66q0 -66 -66 -66q-48 0 -63 45l-95 285h-476l-95 -285q-15 -45 -63 -45q-66 0 -66 66q0 12 3 21l393 1180q18 53 66 53t65 -51l394 -1182q3 -9 3 -21zM726 1044l-194 -582h388z" />
    <glyph glyph-name="afii10018" unicode="&#x411;" 
d="M462 660v-528h264q111 0 187.5 76.5t76.5 187.5t-76.5 187.5t-187.5 76.5h-264zM1122 396q0 -164 -116 -280t-280 -116h-330q-66 0 -66 66v1188q0 66 66 66h528q66 0 66 -66t-66 -66h-462v-396h264q165 0 280.5 -116t115.5 -280z" />
    <glyph glyph-name="afii10019" unicode="&#x412;" 
d="M462 660v-528h264q111 0 187.5 76.5t76.5 187.5t-76.5 187.5t-187.5 76.5h-264zM462 1188v-396h264q82 0 140 58t58 140t-58 140t-140 58h-264zM1122 396q0 -164 -116 -280t-280 -116h-330q-66 0 -66 66v1188q0 66 66 66h330q139 0 234.5 -96t95.5 -244t-122 -247
q188 -112 188 -337z" />
    <glyph glyph-name="afii10020" unicode="&#x413;" 
d="M528 1188v-1122q0 -66 -66 -66t-66 66v1188q0 66 66 66h528q66 0 66 -66t-66 -66h-462z" />
    <glyph glyph-name="afii10021" unicode="&#x414;" 
d="M924 132v1056h-264l-132 -1056h396zM1056 132q70 0 86 -4q46 -12 46 -62v-198q0 -66 -66 -66t-66 66v132h-660v-132q0 -66 -66 -66t-66 66v198q0 50 46 62q16 4 85 4l141 1126q8 62 58 62h396q66 0 66 -66v-1122z" />
    <glyph glyph-name="afii10022" unicode="&#x415;" 
d="M396 66v1188q0 66 66 66h528q66 0 66 -66t-66 -66h-462v-396h330q66 0 66 -66t-66 -66h-330v-528h462q66 0 66 -66t-66 -66h-528q-66 0 -66 66z" />
    <glyph glyph-name="afii10024" unicode="&#x416;" 
d="M263 0q-65 0 -65 69q0 17 11 34l371 557l-371 557q-11 17 -11 35q0 69 66 69q35 0 55 -30l341 -511v474q0 66 66 66t66 -66v-474l341 511q19 30 51 30t51 -19.5t19 -43.5t-11 -41l-371 -557l371 -557q11 -17 11 -40t-19 -43t-51 -20t-51 29l-341 512v-475q0 -66 -66 -66
t-66 66v475l-341 -512q-19 -29 -56 -29z" />
    <glyph glyph-name="afii10025" unicode="&#x417;" 
d="M957 990q0 82 -58 140t-140 58h-66q-115 0 -234 -58q-16 -8 -36 -8t-40 20t-20 52t38 53q128 73 292 73h66q137 0 233.5 -97t96.5 -247t-132 -250q95 -72 120 -177q12 -53 12 -205t-96.5 -248t-233.5 -96h-66q-160 0 -292 73q-38 21 -38 53t19.5 52t39.5 20t68 -24
q86 -42 269 -42q83 0 140.5 57.5t57.5 140.5v132q0 53 -26 99q-58 100 -197 100l-78 -2q-95 0 -95 67.5t92 67.5l83 -3q104 0 162.5 58.5t58.5 140.5z" />
    <glyph glyph-name="afii10026" unicode="&#x418;" 
d="M1056 1320q66 0 66 -66v-1188q0 -66 -66 -66t-66 66v880l-528 -814q0 -70 -4 -86q-12 -46 -62 -46q-66 0 -66 66v1188q0 66 66 66t66 -66v-880l528 814q0 70 4 86q12 46 62 46z" />
    <glyph glyph-name="afii10027" unicode="&#x419;" 
d="M858 1452h-264q-66 0 -66 66t66 66h264q66 0 66 -66t-66 -66zM1056 1320q66 0 66 -66v-1188q0 -66 -66 -66t-66 66v880l-528 -814q0 -70 -4 -86q-12 -46 -62 -46q-66 0 -66 66v1188q0 66 66 66t66 -66v-880l528 814q0 70 4 86q12 46 62 46z" />
    <glyph glyph-name="afii10028" unicode="&#x41a;" 
d="M462 66q0 -66 -66 -66t-66 66v1188q0 66 66 66t66 -66v-555l544 599q20 22 50 22q66 0 66 -66q0 -25 -18 -45l-377 -415l386 -695q9 -16 9 -37t-21 -41.5t-53 -20.5t-51 35l-364 655l-171 -188v-436z" />
    <glyph glyph-name="afii10029" unicode="&#x41b;" 
d="M724 1320h332q66 0 66 -66v-1188q0 -66 -66 -66t-66 66v1122h-214l-317 -1142q-13 -46 -63 -46q-66 0 -66 66q0 6 5 24l323 1164q18 66 66 66z" />
    <glyph glyph-name="afii10030" unicode="&#x41c;" 
d="M1122 1320q66 0 66 -66v-1188q0 -66 -66 -66t-66 66v971l-269 -403q-27 -40 -61 -40t-62 40l-268 403v-971q0 -66 -66 -66t-66 66v1188q0 66 66 66q36 0 58 -33l338 -507l340 511q19 29 56 29z" />
    <glyph glyph-name="afii10031" unicode="&#x41d;" 
d="M330 66v1188q0 66 66 66t66 -66v-462h528v462q0 66 66 66t66 -66v-1188q0 -66 -66 -66t-66 66v594h-528v-594q0 -66 -66 -66t-66 66z" />
    <glyph glyph-name="afii10032" unicode="&#x41e;" 
d="M1122 396q0 -164 -116 -280t-280 -116t-280 116t-116 280v528q0 164 116 280t280 116t280 -115.5t116 -280.5v-528zM990 396v528q0 111 -76.5 187.5t-187.5 76.5t-187.5 -76.5t-76.5 -187.5v-528q0 -111 76.5 -187.5t187.5 -76.5t187.5 76.5t76.5 187.5z" />
    <glyph glyph-name="afii10033" unicode="&#x41f;" 
d="M396 1320h660q66 0 66 -66v-1188q0 -66 -66 -66t-66 66v1122h-528v-1122q0 -66 -66 -66t-66 66v1188q0 66 66 66z" />
    <glyph glyph-name="afii10034" unicode="&#x420;" 
d="M462 1188v-528h264q111 0 187.5 76.5t76.5 187.5t-76.5 187.5t-187.5 76.5h-264zM396 1320h330q165 0 280.5 -116t115.5 -286t-110 -280t-286 -110h-264v-462q0 -66 -66 -66t-66 66v1188q0 66 66 66z" />
    <glyph glyph-name="afii10035" unicode="&#x421;" 
d="M990 1320q66 0 66 -66t-66 -66h-264q-114 0 -171 -98q-27 -46 -27 -100v-660q0 -82 58 -140t140 -58h264q66 0 66 -66t-66 -66h-264q-137 0 -233.5 96.5t-96.5 233.5v660q0 137 96.5 233.5t233.5 96.5h264z" />
    <glyph glyph-name="afii10036" unicode="&#x422;" 
d="M330 1254q0 66 66 66h660q66 0 66 -66t-66 -66h-264v-1122q0 -66 -66 -66t-66 66v1122h-264q-66 0 -66 66z" />
    <glyph glyph-name="afii10037" unicode="&#x423;" 
d="M990 528h-330q-188 0 -285 164q-45 74 -45 166v396q0 66 66 66t66 -66v-396q0 -82 58 -140t140 -58h330v594q0 66 66 66t66 -66v-990q0 -111 -76.5 -187.5t-187.5 -76.5h-330q-66 0 -66 66t66 66h330q55 0 93.5 38.5t38.5 93.5v264z" />
    <glyph glyph-name="afii10038" unicode="&#x424;" 
d="M792 264v-198q0 -66 -66 -66t-66 66v198h-66q-165 0 -280.5 116.5t-115.5 279.5v66q0 165 116.5 280.5t279.5 115.5h66v132q0 66 66 66t66 -66v-132h66q165 0 280.5 -116t115.5 -280v-66q0 -165 -116.5 -280.5t-279.5 -115.5h-66zM660 396v594h-66q-111 0 -187.5 -77
t-76.5 -187v-66q0 -111 77 -187.5t187 -76.5h66zM792 396h66q111 0 187.5 77t76.5 187v66q0 111 -77 187.5t-187 76.5h-66v-594z" />
    <glyph glyph-name="afii10039" unicode="&#x425;" 
d="M1188 66q0 -66 -66 -66q-36 0 -55 29l-341 512l-341 -512q-19 -29 -55 -29q-66 0 -66 66q0 20 11 37l371 557l-371 557q-11 17 -11 37q0 66 66 66q36 0 55 -29l341 -511l341 511q19 29 55 29q66 0 66 -66q0 -20 -11 -37l-371 -557l371 -557q11 -17 11 -37z" />
    <glyph glyph-name="afii10040" unicode="&#x426;" 
d="M1056 0h-726q-66 0 -66 66v1188q0 66 66 66t66 -66v-1122h528v1122q0 66 66 66t66 -66v-1122h66q66 0 66 -66v-264q0 -66 -66 -66t-66 66v198z" />
    <glyph glyph-name="afii10041" unicode="&#x427;" 
d="M1122 66q0 -66 -66 -66t-66 66v462h-330q-138 0 -234 96.5t-96 233.5v396q0 66 66 66t66 -66v-396q0 -82 58 -140t140 -58h330v594q0 66 66 66t66 -66v-1188z" />
    <glyph glyph-name="afii10042" unicode="&#x428;" 
d="M792 132h330v1122q0 66 66 66t66 -66v-1188q0 -66 -66 -66h-924q-66 0 -66 66v1188q0 66 66 66t66 -66v-1122h330v1122q0 66 66 66t66 -66v-1122z" />
    <glyph glyph-name="afii10043" unicode="&#x429;" 
d="M726 132h330v1122q0 66 66 66t66 -66v-1122h66q66 0 66 -66v-264q0 -66 -66 -66t-66 66v198h-990q-66 0 -66 66v1188q0 66 66 66t66 -66v-1122h330v1122q0 66 66 66t66 -66v-1122z" />
    <glyph glyph-name="afii10044" unicode="&#x42a;" 
d="M594 132h264q111 0 187.5 76.5t76.5 187.5t-76.5 187.5t-187.5 76.5h-264v-528zM462 1188h-198q-66 0 -66 66t66 66h264q66 0 66 -66v-462h264q176 0 286 -110t110 -280t-116 -286t-280 -116h-330q-66 0 -66 66v1122z" />
    <glyph glyph-name="afii10045" unicode="&#x42b;" 
d="M1122 0q-66 0 -66 66v1188q0 66 66 66t66 -66v-1188q0 -66 -66 -66zM396 132h132q111 0 187.5 76.5t76.5 187.5t-76.5 187.5t-187.5 76.5h-132v-528zM330 0q-66 0 -66 66v1188q0 66 66 66t66 -66v-462h132q176 0 286 -110t110 -280t-116 -286t-280 -116h-198z" />
    <glyph glyph-name="afii10046" unicode="&#x42c;" 
d="M462 132h264q111 0 187.5 76.5t76.5 187.5t-76.5 187.5t-187.5 76.5h-264v-528zM396 0q-66 0 -66 66v1188q0 66 66 66t66 -66v-462h264q176 0 286 -110t110 -280t-116 -286t-280 -116h-330z" />
    <glyph glyph-name="afii10047" unicode="&#x42d;" 
d="M990 660h-330q-66 0 -66 66t66 66h330v198q0 82 -57.5 140t-140.5 58h-396q-66 0 -66 66t66 66h396q139 0 234.5 -95.5t95.5 -234.5v-660q0 -137 -96.5 -233.5t-233.5 -96.5h-396q-66 0 -66 66t66 66h396q83 0 140.5 58t57.5 140v330z" />
    <glyph glyph-name="afii10048" unicode="&#x42e;" 
d="M890 132q82 0 140.5 58t58.5 140v660q0 82 -58 140t-140 58t-140 -58t-58 -140v-660q0 -83 57.5 -140.5t139.5 -57.5zM561 594h-198v-528q0 -66 -66 -66t-66 66v1188q0 66 66 66t66 -66v-528h198v264q0 153 89.5 241.5t241.5 88.5t240.5 -89t88.5 -241v-660
q0 -152 -88.5 -241t-240.5 -89t-241.5 88.5t-89.5 241.5v264z" />
    <glyph glyph-name="afii10049" unicode="&#x42f;" 
d="M990 1188h-264q-111 0 -187.5 -76.5t-76.5 -187.5t76.5 -187.5t187.5 -76.5h264v528zM330 924q0 164 116 280t280 116h330q66 0 66 -66v-1188q0 -66 -66 -66t-66 66v462h-289l-245 -491q-18 -37 -52 -37t-54 20t-20 40t8 36l230 460q-114 45 -176 144t-62 224z" />
    <glyph glyph-name="afii10065" unicode="&#x430;" 
d="M1122 66q0 -66 -66 -66q-92 0 -151 70q-73 -70 -179 -70h-132q-111 0 -187.5 76.5t-76.5 187.5v396q0 111 76.5 187.5t187.5 76.5h330q66 0 66 -66v-660q0 -66 66 -66t66 -66zM858 792h-264q-55 0 -93.5 -38.5t-38.5 -93.5v-396q0 -54 39 -93t93 -39h132q55 0 93.5 38.5
t38.5 93.5v528z" />
    <glyph glyph-name="afii10066" unicode="&#x431;" 
d="M924 330v264q0 82 -58 140t-140 58t-140 -58t-58 -140v-264q0 -83 58 -140.5t140 -57.5t140 58t58 140zM1056 594v-264q0 -137 -96 -233.5t-234 -96.5t-234 96.5t-96 233.5v264q0 199 171 292q71 38 132 38l-290 290q-13 13 -13 39q0 67 66 67h529q66 0 66 -66t-66 -66
h-375l332 -349q108 -114 108 -245z" />
    <glyph glyph-name="afii10067" unicode="&#x432;" 
d="M924 330v264q0 82 -57.5 140t-140.5 58t-140.5 -58t-57.5 -140v-264q0 -83 57.5 -140.5t140.5 -57.5t140.5 58t57.5 140zM1056 594v-264q0 -138 -96 -234t-234 -96t-234 96.5t-96 233.5v726q0 111 77 187.5t187 76.5t187 -77t77 -182t-66 -164q91 -38 144.5 -121
t53.5 -182zM682 924q42 0 76 44t34 94t-38 88t-94 38t-94 -38.5t-38 -93.5v-198q84 66 154 66z" />
    <glyph glyph-name="afii10068" unicode="&#x433;" 
d="M990 198q66 0 66 -66q0 -38 -37 -59q-127 -73 -392 -73q-96 0 -163.5 67.5t-67.5 163.5q0 145 132 209l342 165q54 25 54 77t-29 81t-70 29q-113 0 -163 -12t-82 -34q-34 -20 -56 -20t-42 20t-20 51t35 53q116 74 328 74q96 0 163.5 -67.5t67.5 -163.5q0 -145 -133 -209
l-339 -163q-56 -27 -56 -79t29 -81t70 -29q193 0 338 61q12 5 25 5z" />
    <glyph glyph-name="afii10069" unicode="&#x434;" 
d="M924 264v528h-264q-55 0 -93.5 -38.5t-38.5 -93.5v-396q0 -54 39 -93t93 -39h132q55 0 93.5 38.5t38.5 93.5zM1056 1056v-792q0 -111 -77 -187.5t-187 -76.5h-132q-111 0 -187.5 77t-76.5 187v396q0 111 77 187.5t187 76.5h264v132q0 56 -38 94t-94 38h-198q-66 0 -66 66
t66 66h198q111 0 187.5 -77t76.5 -187z" />
    <glyph glyph-name="afii10070" unicode="&#x435;" 
d="M528 396v-132q0 -54 39 -93t93 -39h330q66 0 66 -66t-66 -66h-330q-111 0 -187.5 76.5t-76.5 187.5v330q0 137 96.5 233.5t234.5 96.5t233.5 -95.5t95.5 -234.5v-198h-528zM726 792q-82 0 -140 -58t-58 -140v-66h396v66q0 82 -58 140t-140 58z" />
    <glyph glyph-name="afii10072" unicode="&#x436;" 
d="M334 0q-32 0 -51 19.5t-19 43.5t11 40l241 359l-241 359q-11 16 -11 37q0 66 66 66q36 0 55 -29l275 -412v375q0 66 66 66t66 -66v-375l275 412q19 29 55 29q66 0 66 -66q0 -21 -11 -37l-241 -359l241 -359q11 -16 11 -37q0 -66 -66 -66q-36 0 -55 29l-275 412v-375
q0 -66 -66 -66t-66 66v375l-275 -412q-19 -29 -51 -29z" />
    <glyph glyph-name="afii10073" unicode="&#x437;" 
d="M891 268q-1 58 -33 90t-78 35q-46 2 -82 4q-36 1 -54 19t-17.5 46t20 47.5t45.5 19.5h40q14 -1 21 -1q67 0 102.5 38t35.5 94t-38 94t-94 38h-66q-55 0 -135 -34l-79 -33q-20 0 -35 24t-15 46q0 53 99 91t165 38h66q111 0 187.5 -76.5t76.5 -202.5t-91 -183
q91 -59 91 -184t-76.5 -201.5t-187.5 -76.5h-66q-69 0 -167 37t-97 92q0 22 15 46t27 24t89.5 -33.5t132.5 -33.5h66q55 0 93.5 39t38.5 97z" />
    <glyph glyph-name="afii10074" unicode="&#x438;" 
d="M1056 858v-792q0 -66 -66 -66h-330q-111 0 -187.5 76.5t-76.5 187.5v594q0 66 66 66t66 -66v-594q0 -54 39 -93t93 -39h264v726q0 66 66 66t66 -66z" />
    <glyph glyph-name="afii10075" unicode="&#x439;" 
d="M857 1188h-263q-66 0 -66 66t66 66h263q66 0 66 -66t-66 -66zM1056 858v-792q0 -66 -66 -66h-330q-111 0 -187.5 76.5t-76.5 187.5v594q0 66 66 66t66 -66v-594q0 -54 39 -93t93 -39h264v726q0 66 66 66t66 -66z" />
    <glyph glyph-name="afii10076" unicode="&#x43a;" 
d="M990 924q66 0 66 -66q0 -26 -20 -46l-290 -290l297 -418q13 -18 13 -39q0 -65 -66 -65q-35 0 -55 28l-284 399l-123 -123v-238q0 -66 -66 -66t-66 66v792q0 66 66 66t66 -66v-368l415 415q19 19 47 19z" />
    <glyph glyph-name="afii10077" unicode="&#x43b;" 
d="M726 924h264q66 0 66 -66v-792q0 -66 -66 -66t-66 66v726h-151l-249 -747q-15 -45 -62 -45q-66 0 -66 67q0 11 3 20l261 783q18 54 66 54z" />
    <glyph glyph-name="afii10078" unicode="&#x43c;" 
d="M462 66q0 -66 -66 -66t-66 66v792q0 66 66 66q33 0 66 -42l264 -338l264 338q33 42 66 42q66 0 66 -66v-792q0 -66 -66 -66t-66 66v602l-264 -338l-264 338v-602z" />
    <glyph glyph-name="afii10079" unicode="&#x43d;" 
d="M528 396v-330q0 -66 -66 -66t-66 66v792q0 66 66 66t66 -66v-330h396v330q0 66 66 66t66 -66v-792q0 -66 -66 -66t-66 66v330h-396z" />
    <glyph glyph-name="afii10080" unicode="&#x43e;" 
d="M924 330v264q0 82 -58 140t-140 58t-140 -58t-58 -140v-264q0 -83 58 -140.5t140 -57.5t140 58t58 140zM396 330v264q0 137 96.5 233.5t234.5 96.5t233.5 -95.5t95.5 -234.5v-264q0 -137 -96.5 -233.5t-233.5 -96.5t-233.5 96.5t-96.5 233.5z" />
    <glyph glyph-name="afii10081" unicode="&#x43f;" 
d="M396 66v792q0 66 66 66h330q110 0 187 -77t77 -187v-594q0 -66 -66 -66t-66 66v594q0 56 -38 94t-94 38h-264v-726q0 -66 -66 -66t-66 66z" />
    <glyph glyph-name="afii10082" unicode="&#x440;" 
d="M528 792v-660h264q55 0 93.5 38.5t38.5 93.5v396q0 56 -38 94t-94 38h-264zM396 858q0 66 66 66h330q111 0 187.5 -76.5t76.5 -187.5v-396q0 -110 -76.5 -187t-187.5 -77h-264v-330q0 -66 -66 -66t-66 66v1188z" />
    <glyph glyph-name="afii10083" unicode="&#x441;" 
d="M594 660v-396q0 -54 39 -93t93 -39h198q66 0 66 -66t-66 -66h-198q-111 0 -187.5 76.5t-76.5 187.5v396q0 111 76.5 187.5t187.5 76.5h198q66 0 66 -66t-66 -66h-198q-55 0 -93.5 -38.5t-38.5 -93.5z" />
    <glyph glyph-name="afii10084" unicode="&#x442;" 
d="M330 924h594q110 0 187 -77t77 -187v-594q0 -66 -66 -66t-66 66v594q0 56 -38 94t-94 38h-132v-726q0 -66 -66 -66t-66 66v726h-264v-726q0 -66 -66 -66t-66 66v792q0 66 66 66z" />
    <glyph glyph-name="afii10085" unicode="&#x443;" 
d="M924 -134v134h-264q-111 0 -187.5 77t-76.5 187v594q0 66 66 66t66 -66v-594q0 -54 39 -93t93 -39h264v726q0 66 66 66t66 -66v-990q0 -110 -75.5 -187t-185.5 -77h-267q-66 0 -66 66q0 26 20 46t46 20h264q56 0 94 37t38 93z" />
    <glyph glyph-name="afii10086" unicode="&#x444;" 
d="M792 132h66q82 0 140 58t58 140v264q0 82 -58 140t-140 58h-66v-660zM660 0h-66q-137 0 -233.5 96.5t-96.5 233.5v264q0 137 96.5 233.5t233.5 96.5h66v198q0 66 66 66t66 -66v-198q135 0 211 -32t130.5 -114.5t54.5 -183.5v-264q0 -137 -96.5 -233.5t-233.5 -96.5h-66
v-330q0 -66 -66 -66t-66 66v330zM660 132v660h-66q-82 0 -140 -58t-58 -140v-264q0 -83 57.5 -140.5t140.5 -57.5h66z" />
    <glyph glyph-name="afii10087" unicode="&#x445;" 
d="M1056 66q0 -66 -66 -66q-36 0 -55 29l-209 314l-209 -314q-19 -29 -51 -29t-51 19t-19 43t11 41l239 359l-239 359q-11 17 -11 37q0 66 66 66q36 0 55 -29l209 -313l209 313q19 29 55 29q66 0 66 -65q0 -21 -11 -38l-239 -359l239 -359q11 -17 11 -37z" />
    <glyph glyph-name="afii10088" unicode="&#x446;" 
d="M1056 132q66 0 66 -66v-198q0 -66 -66 -66t-66 66v132h-396q-111 0 -187.5 77t-76.5 187v594q0 66 66 66t66 -66v-594q0 -54 39 -93t93 -39h264v726q0 66 66 66t66 -66v-726h66z" />
    <glyph glyph-name="afii10089" unicode="&#x447;" 
d="M1056 858v-792q0 -66 -66 -66t-66 66v330h-264q-109 0 -186.5 76t-77.5 183v203q0 66 66 66t66 -66v-198q0 -54 39 -93t93 -39h264v330q0 66 66 66t66 -66z" />
    <glyph glyph-name="afii10090" unicode="&#x448;" 
d="M1122 0h-599q-106 0 -182.5 76.5t-76.5 182.5v599q0 66 66 66t66 -66v-594q0 -54 39 -93t93 -39h132v726q0 66 66 66t66 -66v-726h264v726q0 66 66 66t66 -66v-792q0 -66 -66 -66z" />
    <glyph glyph-name="afii10091" unicode="&#x449;" 
d="M1122 0h-660q-111 0 -187.5 77t-76.5 187v594q0 66 66 66t66 -66v-594q0 -54 39 -93t93 -39h132v726q0 66 66 66t66 -66v-726h264v726q0 66 66 66t66 -66v-726h66q66 0 66 -66v-198q0 -66 -66 -66t-66 66v132z" />
    <glyph glyph-name="afii10092" unicode="&#x44a;" 
d="M1023 264q0 56 -38 94t-94 38h-264v-264h264q55 0 93.5 38t38.5 94zM1155 264q0 -110 -76.5 -187t-187.5 -77h-330q-66 0 -66 66v726h-132q-66 0 -66 66t66 66h198q66 0 66 -66v-330h264q111 0 187.5 -77t76.5 -187z" />
    <glyph glyph-name="afii10093" unicode="&#x44b;" 
d="M990 858q0 66 66 66t66 -66v-792q0 -66 -66 -66t-66 66v792zM726 264q0 56 -38 94t-94 38h-132v-264h132q55 0 93.5 38t38.5 94zM858 264q0 -111 -76.5 -187.5t-187.5 -76.5h-198q-66 0 -66 66v792q0 66 66 66t66 -66v-330h132q111 0 187.5 -76.5t76.5 -187.5z" />
    <glyph glyph-name="afii10094" unicode="&#x44c;" 
d="M924 264q0 56 -38 94t-94 38h-264v-264h264q55 0 93.5 38t38.5 94zM1056 264q0 -110 -76.5 -187t-187.5 -77h-330q-66 0 -66 66v792q0 66 66 66t66 -66v-330h264q111 0 187.5 -77t76.5 -187z" />
    <glyph glyph-name="afii10095" unicode="&#x44d;" 
d="M924 396h-330q-66 0 -66 66t66 66h330v132q0 56 -38 94t-94 38h-330q-66 0 -66 66t66 66h330q111 0 187.5 -76.5t76.5 -187.5v-396q0 -111 -76.5 -187.5t-187.5 -76.5h-330q-66 0 -66 66t66 66h330q55 0 93.5 38.5t38.5 93.5v132z" />
    <glyph glyph-name="afii10096" unicode="&#x44e;" 
d="M891 132q52 0 92 40t40 92v396q0 56 -37.5 94t-93.5 38t-94.5 -38.5t-38.5 -93.5v-396q0 -52 40 -92t92 -40zM627 396h-198v-330q0 -66 -66 -66t-66 66v792q0 66 66 66t66 -66v-330h198v132q0 111 76.5 187.5t187.5 76.5t187.5 -76.5t76.5 -187.5v-396
q0 -111 -76.5 -187.5t-187.5 -76.5t-187.5 76.5t-76.5 187.5v132z" />
    <glyph glyph-name="afii10097" unicode="&#x44f;" 
d="M528 660q0 -54 39 -93t93 -39h264v264h-264q-55 0 -93.5 -39t-38.5 -93zM396 664q0 106 76.5 183t187.5 77h330q66 0 66 -66v-792q0 -66 -66 -66t-66 66v330h-134l-275 -369q-20 -27 -53 -27q-66 0 -66 66q0 23 13 40l222 292q-102 12 -168.5 86t-66.5 180z" />
    <glyph glyph-name="afii10071" unicode="&#x451;" 
d="M858 1188v66q0 66 66 66t66 -66v-66q0 -66 -66 -66t-66 66zM462 1188v66q0 66 66 66t66 -66v-66q0 -66 -66 -66t-66 66zM528 396v-132q0 -54 39 -93t93 -39h330q66 0 66 -66t-66 -66h-330q-111 0 -187.5 76.5t-76.5 187.5v330q0 137 96.5 233.5t234.5 96.5t233.5 -95.5
t95.5 -234.5v-198h-528zM726 792q-82 0 -140 -58t-58 -140v-66h396v66q0 82 -58 140t-140 58z" />
    <glyph glyph-name="afii10099" unicode="&#x452;" 
d="M1155 126q1 -150 -91 -270t-239 -120q-66 0 -66 66q1 28 17 44t66.5 23.5t86.5 36.5q94 79 94 221v533q0 56 -38 94t-94 38h-264v-726q0 -66 -66 -66t-66 66v1122h-132q-66 0 -66 66t66 66h132v264q0 66 66 66t66 -66v-264h132q66 0 66 -66t-66 -66h-132v-264h264
q111 0 187.5 -77t76.5 -187v-534z" />
    <glyph glyph-name="afii10100" unicode="&#x453;" 
d="M990 198q66 0 66 -66q0 -38 -37 -59q-127 -73 -392 -73q-96 0 -163.5 67.5t-67.5 163.5q0 145 132 209l342 165q54 25 54 77t-29 81t-70 29q-113 0 -163 -12t-82 -34q-34 -20 -56 -20t-42 20t-20 51t35 53q116 74 328 74q96 0 163.5 -67.5t67.5 -163.5q0 -145 -133 -209
l-339 -163q-56 -27 -56 -79t29 -81t70 -29q193 0 338 61q12 5 25 5zM627 1122q-66 0 -66 66q0 34 26 53l264 198q17 13 40 13q66 0 66 -66q0 -34 -26 -53l-264 -198q-17 -13 -40 -13z" />
    <glyph glyph-name="afii10101" unicode="&#x454;" 
d="M528 396v-132q0 -54 39 -93t93 -39h330q66 0 66 -66t-66 -66h-330q-111 0 -187.5 76.5t-76.5 187.5v396q0 111 76.5 187.5t187.5 76.5h330q66 0 66 -66t-66 -66h-330q-55 0 -93.5 -38.5t-38.5 -93.5v-132h330q66 0 66 -66t-66 -66h-330z" />
    <glyph glyph-name="afii10102" unicode="&#x455;" 
d="M924 231q0 63 -56 90l-339 163q-133 64 -133 209q0 114 88 172t225 58t246 -73q35 -24 35 -54t-19.5 -50t-40.5 -20q-22 0 -68 24t-76 32q-30 9 -94 9q-164 0 -164 -98q0 -62 54 -88l342 -165q132 -64 132 -209q0 -119 -88 -175t-201 -56t-221 27q-150 38 -150 105
q0 27 19.5 46.5t40.5 19.5t68 -20q48 -20 96 -32q48 -14 136 -14q168 0 168 99z" />
    <glyph glyph-name="afii10103" unicode="&#x456;" 
d="M660 1188v66q0 66 66 66t66 -66v-66q0 -66 -66 -66t-66 66zM660 858q0 66 66 66t66 -66v-792q0 -66 -66 -66t-66 66v792z" />
    <glyph glyph-name="afii10104" unicode="&#x457;" 
d="M858 1188v66q0 66 66 66t66 -66v-66q0 -66 -66 -66t-66 66zM462 1188v66q0 66 66 66t66 -66v-66q0 -66 -66 -66t-66 66zM660 858q0 66 66 66t66 -66v-792q0 -66 -66 -66t-66 66v792z" />
    <glyph glyph-name="afii10105" unicode="&#x458;" 
d="M792 -132q0 -111 -76.5 -187.5t-187.5 -76.5h-66q-66 0 -66 66t66 66h66q56 0 94 39t38 93v990q0 66 66 66t66 -66v-990zM726 1320q66 0 66 -66v-66q0 -66 -66 -66t-66 66v66q0 66 66 66z" />
    <glyph glyph-name="afii10106" unicode="&#x459;" 
d="M1089 264q0 56 -38 94t-94 38h-132v-264h132q55 0 93.5 38t38.5 94zM759 924q66 0 66 -66v-330h132q111 0 187.5 -76.5t76.5 -187.5t-76.5 -187.5t-187.5 -76.5h-198q-66 0 -66 66v726h-85l-249 -747q-15 -45 -62 -45q-66 0 -66 67q0 11 264 803q18 54 66 54h198z" />
    <glyph glyph-name="afii10107" unicode="&#x45a;" 
d="M1089 264q0 56 -38 94t-94 38h-132v-264h132q55 0 93.5 38t38.5 94zM693 396h-330v-330q0 -66 -66 -66t-66 66v792q0 66 66 66t66 -66v-330h330v330q0 66 66 66t66 -66v-330h132q111 0 187.5 -76.5t76.5 -187.5t-76.5 -187.5t-187.5 -76.5h-198q-66 0 -66 66v330z" />
    <glyph glyph-name="afii10108" unicode="&#x45b;" 
d="M627 1188v-264h264q109 0 186.5 -76t77.5 -183v-599q0 -66 -66 -66t-66 66v594q0 56 -38 94t-94 38h-264v-726q0 -66 -66 -66t-66 66v1122h-132q-66 0 -66 66t66 66h132v264q0 66 66 66t66 -66v-264h132q66 0 66 -66t-66 -66h-132z" />
    <glyph glyph-name="afii10109" unicode="&#x45c;" 
d="M594 1122q-66 0 -66 66q0 34 26 53l264 198q17 13 40 13q66 0 66 -66q0 -34 -26 -53l-264 -198q-17 -13 -40 -13zM990 924q28 0 47 -20t19 -46t-20 -46l-290 -290l297 -418q13 -18 13 -42t-20 -43t-50 -19t-51 28l-284 399l-123 -123v-238q0 -66 -66 -66t-66 66v792
q0 66 66 66t66 -66v-368l415 415q19 19 47 19z" />
    <glyph glyph-name="afii10110" unicode="&#x45e;" 
d="M924 -134v134h-264q-154 0 -229 131q-35 61 -35 133v594q0 66 66 66t66 -66v-594q0 -54 39 -93t93 -39h264v726q0 66 66 66t66 -66v-990q0 -110 -75.5 -187t-185.5 -77h-267q-66 0 -66 66q0 26 20 46t46 20h264q56 0 94 37t38 93zM857 1188h-263q-66 0 -66 66t66 66h263
q66 0 66 -66t-66 -66z" />
    <glyph glyph-name="afii10193" unicode="&#x45f;" 
d="M792 0v-198q0 -66 -66 -66t-66 66v198h-198q-66 0 -66 66v792q0 66 66 66t66 -66v-726h396v726q0 66 66 66t66 -66v-792q0 -66 -66 -66h-198z" />
    <glyph glyph-name="afii10050" unicode="&#x490;" 
d="M1056 1254q0 -66 -66 -66h-462v-1122q0 -66 -66 -66t-66 66v1188q0 66 66 66h462v132q0 66 66 66t66 -66v-198z" />
    <glyph glyph-name="afii10098" unicode="&#x491;" 
d="M561 792v-726q0 -66 -66 -66t-66 66v792q0 66 66 66h396v132q0 66 66 66t66 -66v-198q0 -66 -66 -66h-396z" />
    <glyph glyph-name="Wgrave" unicode="&#x1e80;" 
d="M859 1518q-23 0 -40 13l-264 198q-26 19 -26 53q0 66 66 66q22 0 40 -13l264 -198q26 -19 26 -53q0 -66 -66 -66zM1254 1320q66 0 66 -66q0 -6 -2 -15l-263 -1184q-12 -55 -62 -55t-69 57l-198 593l-197 -593q-19 -57 -69 -57t-63 57l-263 1182q-2 9 -2 15q0 66 66 66
q53 0 65 -52l212 -956l186 557q17 55 65 55t66 -55l185 -555l212 954q12 52 65 52z" />
    <glyph glyph-name="wgrave" unicode="&#x1e81;" 
d="M859 1122q-23 0 -40 13l-264 198q-26 20 -26 53q0 66 66 66q22 0 40 -13l264 -198q26 -19 26 -53q0 -66 -66 -66zM927 0q-49 0 -67 48l-134 359l-134 -357q-20 -50 -68 -50t-63 62l-195 780q-2 8 -2 19q0 63 66 63q52 0 64 -50l146 -585l123 328q17 43 63 43t62 -43
l123 -329l147 586q13 50 64 50q26 0 46 -19t20 -37t-2 -26l-196 -784q-14 -58 -63 -58z" />
    <glyph glyph-name="Wacute" unicode="&#x1e82;" 
d="M594 1518q-66 0 -66 66q0 34 26 53l264 198q17 13 40 13q66 0 66 -66q0 -34 -26 -53l-264 -198q-17 -13 -40 -13zM1254 1320q66 0 66 -66q0 -6 -2 -15l-263 -1184q-12 -55 -62 -55t-69 57l-198 593l-197 -593q-19 -57 -69 -57t-63 57l-263 1182q-2 9 -2 15q0 66 66 66
q53 0 65 -52l212 -956l186 557q17 55 65 55t66 -55l185 -555l212 954q12 52 65 52z" />
    <glyph glyph-name="wacute" unicode="&#x1e83;" 
d="M594 1122q-66 0 -66 66q0 34 26 53l264 198q17 13 40 13q66 0 66 -66q0 -34 -26 -53l-264 -198q-17 -13 -40 -13zM927 0q-49 0 -67 48l-134 359l-134 -357q-20 -50 -68 -50t-63 62l-195 780q-2 8 -2 19q0 63 66 63q52 0 64 -50l146 -585l123 328q17 43 63 43t62 -43
l123 -329l147 586q13 50 64 50q26 0 46 -19t20 -37t-2 -26l-196 -784q-14 -58 -63 -58z" />
    <glyph glyph-name="Wdieresis" unicode="&#x1e84;" 
d="M858 1584v66q0 66 66 66t66 -66v-66q0 -66 -66 -66t-66 66zM462 1584v66q0 66 66 66t66 -66v-66q0 -66 -66 -66t-66 66zM1254 1320q66 0 66 -66q0 -6 -2 -15l-263 -1184q-12 -55 -62 -55t-69 57l-198 593l-197 -593q-19 -57 -69 -57t-63 57l-263 1182q-2 9 -2 15
q0 66 66 66q53 0 65 -52l212 -956l186 557q17 55 65 55t66 -55l185 -555l212 954q12 52 65 52z" />
    <glyph glyph-name="wdieresis" unicode="&#x1e85;" 
d="M858 1188v66q0 66 66 66t66 -66v-66q0 -66 -66 -66t-66 66zM462 1188v66q0 66 66 66t66 -66v-66q0 -66 -66 -66t-66 66zM927 0q-49 0 -67 48l-134 359l-134 -357q-20 -50 -68 -50t-63 62l-195 780q-2 8 -2 19q0 63 66 63q52 0 64 -50l146 -585l123 328q17 43 63 43
t62 -43l123 -329l147 586q13 50 64 50q26 0 46 -19t20 -37t-2 -26l-196 -784q-14 -58 -63 -58z" />
    <glyph glyph-name="Ygrave" unicode="&#x1ef2;" 
d="M792 66q0 -66 -66 -66t-66 66v594l-384 556q-12 17 -12 38q0 66 66 66q36 0 55 -28l341 -496l341 496q19 28 55 28q66 0 66 -66q0 -21 -12 -38l-384 -556v-594zM858 1518q-23 0 -40 13l-264 198q-26 20 -26 53q0 66 66 66q22 0 40 -13l264 -198q26 -19 26 -53
q0 -66 -66 -66z" />
    <glyph glyph-name="ygrave" unicode="&#x1ef3;" 
d="M859 1122q-22 0 -40 13l-264 198q-26 20 -26 53q0 66 66 66q23 0 40 -13l264 -198q26 -19 26 -53q0 -66 -66 -66zM397 858q0 66 66 66q48 0 63 -45l201 -603l201 603q14 45 63 45q66 0 66 -66q0 -9 -4 -21l-395 -1188q-15 -45 -63 -45h-133q-66 0 -66 66q0 53 55 64
q9 2 96 2l110 330l-256 771q-4 12 -4 21z" />
    <glyph glyph-name="endash" unicode="&#x2013;" 
d="M1056 528h-660q-66 0 -66 66t66 66h660q66 0 66 -66t-66 -66z" />
    <glyph glyph-name="emdash" unicode="&#x2014;" 
d="M1188 528h-924q-66 0 -66 66t66 66h924q66 0 66 -66t-66 -66z" />
    <glyph glyph-name="quoteleft" unicode="&#x2018;" 
d="M759 1320q66 0 66 -65q0 -9 -2 -17l-66 -264q-12 -50 -64 -50q-66 0 -66 66q0 8 68 280q12 50 64 50z" />
    <glyph glyph-name="quoteright" unicode="&#x2019;" 
d="M759 1320q66 0 66 -65q0 -9 -2 -17l-66 -264q-12 -50 -64 -50q-66 0 -66 66q0 8 68 280q12 50 64 50z" />
    <glyph glyph-name="quotesinglbase" unicode="&#x201a;" 
d="M759 132q66 0 66 -65q0 -9 -2 -17l-66 -264q-12 -50 -64 -50q-66 0 -66 66q0 8 68 280q12 50 64 50z" />
    <glyph glyph-name="quotereversed" unicode="&#x201b;" 
d="M693 1320q52 0 64 -50q68 -272 68 -280q0 -66 -66 -66q-52 0 -64 50q-68 272 -68 281q0 65 66 65z" />
    <glyph glyph-name="quotedblleft" unicode="&#x201c;" 
d="M924 1320q66 0 66 -65q0 -9 -2 -17l-66 -264q-12 -50 -64 -50q-66 0 -66 66q0 8 68 280q12 50 64 50zM594 1320q66 0 66 -65q0 -9 -2 -17l-66 -264q-12 -50 -64 -50q-66 0 -66 66q0 8 68 280q12 50 64 50z" />
    <glyph glyph-name="quotedblright" unicode="&#x201d;" 
d="M924 1320q66 0 66 -65q0 -9 -2 -17l-66 -264q-12 -50 -64 -50q-66 0 -66 66q0 8 68 280q12 50 64 50zM594 1320q66 0 66 -65q0 -9 -2 -17l-66 -264q-12 -50 -64 -50q-66 0 -66 66q0 8 68 280q12 50 64 50z" />
    <glyph glyph-name="quotedblbase" unicode="&#x201e;" 
d="M924 132q66 0 66 -65q0 -9 -2 -17l-66 -264q-12 -50 -64 -50q-66 0 -66 66q0 8 68 280q12 50 64 50zM594 132q66 0 66 -65q0 -9 -2 -17l-66 -264q-12 -50 -64 -50q-66 0 -66 66q0 8 68 280q12 50 64 50z" />
    <glyph glyph-name="dagger" unicode="&#x2020;" 
d="M726 -264q-66 0 -66 66v858h-198q-66 0 -66 66t66 66h198v198q0 66 66 66t66 -66v-198h198q66 0 66 -66t-66 -66h-198v-858q0 -66 -66 -66z" />
    <glyph glyph-name="daggerdbl" unicode="&#x2021;" 
d="M792 660v-528h198q66 0 66 -66t-66 -66h-198v-198q0 -66 -66 -66t-66 66v198h-198q-66 0 -66 66t66 66h198v528h-198q-66 0 -66 66t66 66h198v198q0 66 66 66t66 -66v-198h198q66 0 66 -66t-66 -66h-198z" />
    <glyph glyph-name="bullet" unicode="&#x2022;" 
d="M693 660h66q66 0 66 -66t-66 -66h-66q-66 0 -66 66t66 66z" />
    <glyph glyph-name="ellipsis" unicode="&#x2026;" 
d="M990 132q0 66 66 66t66 -66v-66q0 -66 -66 -66t-66 66v66zM660 132q0 66 66 66t66 -66v-66q0 -66 -66 -66t-66 66v66zM330 132q0 66 66 66t66 -66v-66q0 -66 -66 -66t-66 66v66z" />
    <glyph glyph-name="perthousand" unicode="&#x2030;" 
d="M132 398q0 28 24 49l792 660q18 15 42 15q66 0 66 -66q0 -31 -23 -50l-792 -660q-19 -16 -44 -16t-45 20t-20 48zM1089 198q-41 0 -70 -29t-29 -70t29 -70t70 -29t70 29t29 70t-29 70t-70 29zM1089 330q96 0 163.5 -67.5t67.5 -163.5t-67.5 -163.5t-163.5 -67.5
t-163.5 67.5t-67.5 163.5t67.5 163.5t163.5 67.5zM495 198q-41 0 -70 -29t-29 -70t29 -70t70 -29t70 29t29 70t-29 70t-70 29zM495 330q96 0 163.5 -67.5t67.5 -163.5t-67.5 -163.5t-163.5 -67.5t-163.5 67.5t-67.5 163.5t67.5 163.5t163.5 67.5zM363 1188q-41 0 -70 -29
t-29 -70t29 -70t70 -29t70 29t29 70t-29 70t-70 29zM363 1320q96 0 163.5 -67.5t67.5 -163.5t-67.5 -163.5t-163.5 -67.5t-163.5 67.5t-67.5 163.5t67.5 163.5t163.5 67.5z" />
    <glyph glyph-name="minute" unicode="&#x2032;" 
d="M660 1122v264q0 66 66 66t66 -66v-264q0 -66 -66 -66t-66 66z" />
    <glyph glyph-name="second" unicode="&#x2033;" 
d="M825 1122v264q0 66 66 66t66 -66v-264q0 -66 -66 -66t-66 66zM495 1122v264q0 66 66 66t66 -66v-264q0 -66 -66 -66t-66 66z" />
    <glyph glyph-name="guilsinglleft" unicode="&#x2039;" 
d="M528 464q0 24 18 45l260 325q19 24 52 24q66 0 66 -66q0 -21 -15 -40l-231 -289l231 -289q15 -19 15 -44t-19 -44.5t-49 -19.5t-50 25l-259 325q-19 24 -19 48z" />
    <glyph glyph-name="guilsinglright" unicode="&#x203a;" 
d="M596 66q-30 0 -49 20t-19 44t15 44l231 289l-231 289q-15 19 -15 40q0 66 66 66q33 0 52 -24l260 -325q18 -21 18 -45t-19 -48l-259 -325q-20 -25 -50 -25z" />
    <glyph glyph-name="radicalex" unicode="&#x203e;" 
d="M1122 1716h-792q-66 0 -66 66t66 66h792q66 0 66 -66t-66 -66z" />
    <glyph glyph-name="fraction" unicode="&#x2044;" 
d="M495 -264q-25 0 -45.5 18t-20.5 38t4 35l458 1693q17 64 66 64q66 0 66 -64q0 -13 -4 -29l-460 -1706q-14 -49 -64 -49z" />
    <glyph glyph-name="nsuperior" unicode="&#x207f;" 
d="M462 990v660q0 66 66 66h198q111 0 187.5 -76.5t76.5 -187.5v-462q0 -66 -66 -66t-66 66v462q0 56 -38 94t-94 38h-132v-594q0 -66 -66 -66t-66 66z" />
    <glyph glyph-name="twoinferior" unicode="&#x2082;" 
d="M722 329q-42 0 -79 -24.5t-51 -58.5t-39 -44.5t-51 0.5t-36.5 37.5t3.5 58.5q30 70 101 117.5t156 47.5q121 0 201.5 -93t64 -193t-69.5 -157l-227 -217h229q28 0 47.5 -19t19.5 -47t-19.5 -47.5t-47.5 -19.5h-396q-45 0 -62 42t16 73l344 327q55 66 18.5 141.5
t-122.5 75.5z" />
    <glyph glyph-name="eurocurrency" unicode="&#x20a0;" 
d="M1259 232q25 0 43 -20t18 -50q0 -31 -26 -49q-163 -113 -370 -113q-296 0 -494 223q-93 105 -136 239h-96q-66 0 -66 66t66 66h69q-3 29 -3 64t3 68h-69q-66 0 -66 66t66 66h96q66 208 240 335t398 127t407 -147q23 -19 23 -46t-19 -49t-45 -21q-26 0 -47 18
q-141 113 -315 113t-307 -90t-195 -240h729q66 0 66 -66t-66 -66h-763q-4 -28 -4 -66t4 -66h659q66 0 66 -66t-66 -66h-625q82 -202 283 -288q98 -42 207 -42q160 0 290 86q21 14 45 14z" />
    <glyph glyph-name="franc" unicode="&#x20a3;" 
d="M627 330v-264q0 -66 -66 -66t-66 66v264h-132q-66 0 -66 66t66 66h132v792q0 66 66 66h528q66 0 66 -66t-66 -66h-462v-330h462q66 0 66 -66t-66 -66h-462v-264h132q66 0 66 -66t-66 -66h-132z" />
    <glyph glyph-name="afii08941" unicode="&#x20a4;" 
d="M594 396v-132q0 -89 -56 -132h386q55 0 93.5 38.5t38.5 93.5q0 66 66 66t66 -66q0 -111 -76.5 -187.5t-187.5 -76.5h-594q-66 0 -66 66t66 66q55 0 93.5 38.5t38.5 93.5v132h-132q-66 0 -66 66t66 66h132v198h-132q-66 0 -66 66t66 66h132v132q0 137 96.5 233.5
t234.5 96.5t233.5 -95.5t95.5 -234.5q0 -66 -66 -66t-66 74t-58 132t-140 58t-140 -58t-58 -140v-132h198q66 0 66 -66t-66 -66h-198v-198h198q66 0 66 -66t-66 -66h-198z" />
    <glyph glyph-name="peseta" unicode="&#x20a7;" 
d="M990 264q-70 0 -86 4q-46 12 -46 62t46 62q16 4 86 4v198q0 66 66 66t66 -66v-198h132q66 0 66 -66t-66 -66h-132v-462q0 -66 -66 -66t-66 66v462zM264 924v-528h198q111 0 187.5 76.5t76.5 187.5t-76.5 187.5t-187.5 76.5h-198zM198 1056h264q165 0 280.5 -116
t115.5 -286t-110 -280t-286 -110h-198v-462q0 -66 -66 -66t-66 66v1188q0 66 66 66z" />
    <glyph glyph-name="u20AC" unicode="&#x20ac;" 
d="M1259 232q24 0 42.5 -19.5t18.5 -50.5t-26 -49q-163 -113 -370 -113q-296 0 -494 223q-93 105 -136 239h-96q-66 0 -66 66t66 66h69q-3 29 -3 64t3 68h-69q-66 0 -66 66t66 66h96q65 208 239.5 335t398.5 127t407 -147q23 -19 23 -46t-19 -48.5t-45 -21.5t-47 18
q-141 113 -315 113t-307 -89.5t-195 -240.5h729q66 0 66 -66t-66 -66h-763q-4 -28 -4 -66t4 -66h659q66 0 66 -66t-66 -66h-625q82 -202 283 -288q98 -42 207 -42q160 0 290 86q21 14 45 14z" />
    <glyph glyph-name="CL" unicode="&#x2104;" 
d="M726 462q70 0 86 -4q46 -12 46 -62t-46 -62q-16 -4 -86 -4v-198h330q66 0 66 -66t-66 -66h-396q-66 0 -66 66v264q-111 0 -187.5 76.5t-76.5 187.5v264q0 111 76.5 187.5t187.5 76.5h198q66 0 66 -66t-66 -66h-198q-55 0 -93.5 -38.5t-38.5 -93.5v-264q0 -54 39 -93
t93 -39v264q0 66 66 66t66 -66v-264z" />
    <glyph glyph-name="afii61352" unicode="&#x2116;" 
d="M1386 891q0 -96 -67.5 -163.5t-163.5 -67.5t-163.5 67.5t-67.5 163.5v132q0 96 67.5 163.5t163.5 67.5t163.5 -67.5t67.5 -163.5v-132zM1254 891v132q0 41 -29 70t-70 29t-70 -29t-29 -70v-132q0 -42 29 -70.5t70 -28.5t70 29t29 70zM1320 396h-330q-66 0 -66 66t66 66
h330q66 0 66 -66t-66 -66zM660 1254q0 66 66 66t66 -66v-1188q0 -66 -66 -66q-42 0 -58 33l-470 947v-914q0 -66 -66 -66t-66 66v1188q0 66 66 66q42 0 61 -39l467 -941v914z" />
    <glyph glyph-name="trademark" unicode="&#x2122;" 
d="M924 594q0 -66 -66 -66t-66 66v660q0 66 66 66q30 0 66 -42l132 -156l132 156q36 42 66 42q66 0 66 -66v-660q0 -66 -66 -66t-66 66v498l-132 -168l-132 168v-498zM198 1188q-66 0 -66 66t66 66h396q66 0 66 -66t-66 -66h-132v-594q0 -66 -66 -66t-66 66v594h-132z" />
    <glyph glyph-name="Ohm" unicode="&#x2126;" 
d="M727 1188q-138 0 -234.5 -96.5t-96.5 -233.5v-132q0 -173 153 -279q26 -18 35.5 -34t9.5 -56v-291q0 -66 -66 -66h-198q-66 0 -66 66t66 66h132v215q-198 137 -198 379v132q0 192 135 327t327 135t327 -135t135 -327v-132q0 -242 -198 -379v-215h132q66 0 66 -66t-66 -66
h-198q-66 0 -66 66v291q0 38 9 55t36 35q140 97 152 263q1 9 1 148t-95.5 234.5t-233.5 95.5z" />
    <glyph glyph-name="estimated" unicode="&#x212e;" 
d="M528 526q113 0 241 66q156 80 156 198q0 59 -54.5 95.5t-130.5 36.5t-144 -76t-68 -196v-124zM396 329v321q0 180 106 292t242 112t224 -73t88 -191q0 -168 -186 -288q-165 -108 -342 -108v-65q0 -82 58 -139.5t140 -57.5q149 0 192 85q24 47 75 47q21 0 42 -18t21 -40
q0 -80 -94 -144t-232 -63q-138 0 -236 96.5t-98 233.5z" />
    <glyph glyph-name="propertyline" unicode="&#x214a;" 
d="M593 726q0 25 16.5 43.5t41.5 22.5t46 -10t28 -39q38 22 55.5 62.5t5.5 84.5t-46.5 71t-79.5 27h-197v-262h130zM463 396q0 -28 -19.5 -47.5t-47.5 -19.5t-47.5 19.5t-19.5 47.5v659q0 28 19.5 47.5t47.5 19.5h264q100 0 175.5 -66.5t87.5 -165.5t-43.5 -181t-152.5 -108
v-468h329q28 0 47.5 -19.5t19.5 -47.5t-19.5 -47.5t-47.5 -19.5h-396q-28 0 -47.5 19.5t-19.5 47.5v526h-130v-196z" />
    <glyph glyph-name="onethird" unicode="&#x2153;" 
d="M1056 264h-66q-66 0 -66 66t66 66h66q27 0 46.5 19.5t19.5 46.5q0 66 -66 66h-132q-66 0 -66 66t66 66h132q82 0 140 -58t58 -132t-40 -127q106 -77 106 -199t-77.5 -199t-186.5 -77h-132q-66 0 -66 66t66 66h132q55 0 93.5 38t38.5 94t-38 94t-94 38zM264 65q0 19 8 33
l661 1187q19 34 57 34q66 0 66 -66q0 -18 -8 -32l-661 -1187q-19 -35 -57 -35q-66 0 -66 66zM198 1055q-66 0 -66 66q0 23 13 40l198 264q20 26 53 26q66 0 66 -66v-660q0 -66 -66 -66t-66 66v462l-79 -106q-19 -26 -53 -26z" />
    <glyph glyph-name="twothird" unicode="&#x2154;" 
d="M528 792q66 0 66 -66t-66 -66h-330q-66 0 -66 58q0 23 42 74l240 294q48 59 48 135q0 99 -110 99q-35 0 -61.5 -19.5t-26.5 -46t-20 -46.5t-46 -20t-46 20t-20 46q0 77 67 137.5t163 60.5t164 -65t68 -175t-67 -194l-181 -226h182zM1056 264h-66q-66 0 -66 66t66 66h66
q27 0 46.5 19.5t19.5 46.5q0 66 -66 66h-132q-66 0 -66 66t66 66h132q82 0 140 -58t58 -132t-40 -127q106 -77 106 -199t-77.5 -199t-186.5 -77h-132q-66 0 -66 66t66 66h132q55 0 93.5 38t38.5 94t-38 94t-94 38zM330 65q0 19 8 33l661 1187q19 34 57 34q66 0 66 -66
q0 -18 -8 -32l-661 -1187q-19 -35 -57 -35q-66 0 -66 66z" />
    <glyph glyph-name="onefifth" unicode="&#x2155;" 
d="M992 528v-132h89q111 0 175 -81t64 -187t-77 -183t-187 -77h-130q-66 0 -66 66t66 66h113q64 0 106.5 35t42.5 97q0 132 -167 132h-84q-77 0 -77 61v272q0 24 20.5 43.5t46.5 19.5h294q66 0 66 -66t-64 -66h-231zM264 65q0 19 8 33l661 1187q19 34 57 34q66 0 66 -66
q0 -18 -8 -32l-661 -1187q-19 -35 -57 -35q-66 0 -66 66zM198 1055q-66 0 -66 66q0 23 13 40l198 264q20 26 53 26q66 0 66 -66v-660q0 -66 -66 -66t-66 66v462l-79 -106q-19 -26 -53 -26z" />
    <glyph glyph-name="twofifths" unicode="&#x2156;" 
d="M528 792q66 0 66 -66t-66 -66h-330q-66 0 -66 58q0 23 42 74l240 294q48 59 48 135q0 99 -110 99q-35 0 -61.5 -19.5t-26.5 -46t-20 -46.5t-46 -20t-46 20t-20 46q0 77 67 137.5t163 60.5t164 -65t68 -175t-67 -194l-181 -226h182zM992 528v-132h89q111 0 175 -81
t64 -187t-77 -183t-187 -77h-130q-66 0 -66 66t66 66h113q64 0 106.5 35t42.5 97q0 132 -167 132h-84q-77 0 -77 61v272q0 24 20.5 43.5t46.5 19.5h294q66 0 66 -66t-64 -66h-231zM330 65q0 19 8 33l661 1187q19 34 57 34q66 0 66 -66q0 -18 -8 -32l-661 -1187
q-19 -35 -57 -35q-66 0 -66 66z" />
    <glyph glyph-name="threefifths" unicode="&#x2157;" 
d="M330 1056h-66q-66 0 -66 66t66 66h66q27 0 46.5 19.5t19.5 46.5q0 66 -66 66h-132q-66 0 -66 66t66 66h132q82 0 140 -58t58 -132t-40 -127q106 -77 106 -199t-77.5 -199t-186.5 -77h-132q-66 0 -66 66t66 66h132q55 0 93.5 38t38.5 94t-38 94t-94 38zM992 528v-132h89
q111 0 175 -81t64 -187t-77 -183t-187 -77h-130q-66 0 -66 66t66 66h113q64 0 106.5 35t42.5 97q0 132 -167 132h-84q-77 0 -77 61v272q0 24 20.5 43.5t46.5 19.5h294q66 0 66 -66t-64 -66h-231zM297 65q0 19 8 33l661 1187q19 34 57 34q66 0 66 -66q0 -18 -8 -32
l-661 -1187q-19 -35 -57 -35q-66 0 -66 66z" />
    <glyph glyph-name="fourfifths" unicode="&#x2158;" 
d="M396 1452q66 0 66 -66q0 -14 -5 -26l-159 -370h131q0 70 4 86q12 46 62 46t62 -46q4 -16 4 -86q58 0 69 -4q30 -11 30 -62t-30 -62q-11 -4 -69 -4v-132q0 -66 -66 -66t-66 66v132h-231q-66 0 -66 66q0 14 5 26l198 462q17 40 61 40zM992 528v-132h89q111 0 175 -81
t64 -187t-77 -183t-187 -77h-130q-66 0 -66 66t66 66h113q64 0 106.5 35t42.5 97q0 132 -167 132h-84q-77 0 -77 61v272q0 24 20.5 43.5t46.5 19.5h294q66 0 66 -66t-64 -66h-231zM330 65q0 19 8 33l661 1187q19 34 57 34q66 0 66 -66q0 -18 -8 -32l-661 -1187
q-19 -35 -57 -35q-66 0 -66 66z" />
    <glyph glyph-name="onesixth" unicode="&#x2159;" 
d="M1188 124q0 54 -38 89t-93 35h-133v-124q0 -54 38 -89t94 -35t94 35t38 89zM1320 126q0 -106 -78 -182t-186 -76t-186 77t-78 179v256q0 116 92 198t265 82q75 0 75 -66t-75 -66q-225 0 -225 -148h132q111 0 187.5 -74t76.5 -180zM1056 1254q0 -18 -8 -32l-661 -1187
q-19 -35 -57 -35q-66 0 -66 66q0 19 8 33l661 1187q19 34 57 34q66 0 66 -66zM462 726q0 -66 -66 -66t-66 66v462l-79 -106q-19 -26 -53 -26q-66 0 -66 66q0 23 13 40l198 264q20 26 53 26q66 0 66 -66v-660z" />
    <glyph glyph-name="fivesixths" unicode="&#x215a;" 
d="M264 1320v-132h89q111 0 175 -81t64 -187t-77 -183t-187 -77h-130q-66 0 -66 66t66 66h113q64 0 106.5 35t42.5 97q0 132 -167 132h-84q-77 0 -77 61v272q0 24 20.5 43.5t46.5 19.5h294q66 0 66 -66t-64 -66h-231zM1188 124q0 54 -38 89t-93 35h-133v-124q0 -54 38 -89
t94 -35t94 35t38 89zM1320 126q0 -106 -78 -182t-186 -76t-186 77t-78 179v256q0 116 92 198t265 82q75 0 75 -66t-75 -66q-225 0 -225 -148h132q111 0 187.5 -74t76.5 -180zM1089 1254q0 -18 -8 -32l-661 -1187q-19 -35 -57 -35q-66 0 -66 66q0 19 8 33l661 1187
q19 34 57 34q66 0 66 -66z" />
    <glyph glyph-name="oneeighth" unicode="&#x215b;" 
d="M1189 99q-1 99 -133 99t-132 -99t132 -99t133 99zM1188 429q0 99 -132 99t-132 -99t132 -99t132 99zM1320 99q0 -106 -75.5 -168.5t-188 -62.5t-188.5 62t-76 169q0 41 18 93t47 72q-31 18 -48 70t-17 95q0 107 76 169t188 62t188 -62t76 -169q0 -41 -18 -93t-47 -72
q31 -18 48 -70t17 -95zM1056 1254q0 -18 -8 -32l-661 -1187q-19 -35 -57 -35q-66 0 -66 66q0 19 8 33l661 1187q19 34 57 34q66 0 66 -66zM462 726q0 -66 -66 -66t-66 66v462l-79 -106q-19 -26 -53 -26q-66 0 -66 66q0 23 13 40l198 264q20 26 53 26q66 0 66 -66v-660z" />
    <glyph glyph-name="threeeighths" unicode="&#x215c;" 
d="M330 1056h-66q-66 0 -66 66t66 66h66q27 0 46.5 19.5t19.5 46.5q0 66 -66 66h-132q-66 0 -66 66t66 66h132q82 0 140 -58t58 -132t-40 -127q106 -77 106 -199t-77.5 -199t-186.5 -77h-132q-66 0 -66 66t66 66h132q55 0 93.5 38t38.5 94t-38 94t-94 38zM1189 99
q-1 99 -133 99t-132 -99t132 -99t133 99zM1188 429q0 99 -132 99t-132 -99t132 -99t132 99zM1320 99q0 -106 -75.5 -168.5t-188 -62.5t-188.5 62t-76 169q0 41 18 93t47 72q-31 18 -48 70t-17 95q0 107 76 169t188 62t188 -62t76 -169q0 -41 -18 -93t-47 -72q31 -18 48 -70
t17 -95zM1089 1254q0 -18 -8 -32l-661 -1187q-19 -35 -57 -35q-66 0 -66 66q0 19 8 33l661 1187q19 34 57 34q66 0 66 -66z" />
    <glyph glyph-name="fiveeighths" unicode="&#x215d;" 
d="M264 1320v-132h89q111 0 175 -81t64 -187t-77 -183t-187 -77h-130q-66 0 -66 66t66 66h113q64 0 106.5 35t42.5 97q0 132 -167 132h-84q-77 0 -77 61v272q0 24 20.5 43.5t46.5 19.5h294q66 0 66 -66t-64 -66h-231zM1189 99q-1 99 -133 99t-132 -99t132 -99t133 99z
M1188 429q0 99 -132 99t-132 -99t132 -99t132 99zM1320 99q0 -106 -75.5 -168.5t-188 -62.5t-188.5 62t-76 169q0 41 18 93t47 72q-31 18 -48 70t-17 95q0 107 76 169t188 62t188 -62t76 -169q0 -41 -18 -93t-47 -72q31 -18 48 -70t17 -95zM1089 1254q0 -18 -8 -32
l-661 -1187q-19 -35 -57 -35q-66 0 -66 66q0 19 8 33l661 1187q19 34 57 34q66 0 66 -66z" />
    <glyph glyph-name="seveneighths" unicode="&#x215e;" 
d="M1189 99q-1 99 -133 99t-132 -99t132 -99t133 99zM1188 429q0 99 -132 99t-132 -99t132 -99t132 99zM1320 99q0 -106 -75.5 -168.5t-188 -62.5t-188.5 62t-76 169q0 41 18 93t47 72q-31 18 -48 70t-17 95q0 107 76 169t188 62t188 -62t76 -169q0 -41 -18 -93t-47 -72
q31 -18 48 -70t17 -95zM1056 1254q0 -18 -8 -32l-661 -1187q-19 -35 -68 -35q-55 0 -55 66q0 19 8 33l661 1187q19 34 57 34q66 0 66 -66zM264 1260q0 -26 -19 -50t-47 -22q-66 2 -66 72v130q0 26 20.5 44t45.5 18h377q49 0 28 -68l-208 -679q-14 -45 -84 -45q-16 0 -31 19
t-15 37t4 29l177 575h-182v-60z" />
    <glyph glyph-name="arrowloopright" unicode="&#x21ac;" 
d="M858 132v-132l396 66zM792 0h-363q-123 0 -210 87.5t-87 209.5t87.5 209.5t209.5 87.5t209.5 -87t87.5 -193t-49 -182h115q0 66 66 66q6 0 12 -1l396 -66q54 -9 54 -65t-54 -65l-396 -66q-6 -1 -12 -1q-66 0 -66 66zM430 462q-68 0 -117 -49t-49 -117t48 -116t116 -48
t117 49t49 117t-48 116t-116 48z" />
    <glyph glyph-name="arrowsemclockw" unicode="&#x21b7;" 
d="M660 462q-164 0 -280 -116t-116 -280q0 -27 -20 -46.5t-46 -19.5t-46 20t-20 46q0 219 154.5 373.5t373.5 154.5q150 0 277 -78t195 -212l59 178q15 46 63 46q66 0 66 -66q0 -9 -136 -417q-15 -45 -62 -45q-17 0 -32 8l-362 198q-35 19 -35 52t19.5 52.5t41.5 19.5t37 -8
l246 -135q-40 124 -143.5 199.5t-233.5 75.5z" />
    <glyph glyph-name="emptyset" unicode="&#x2205;" 
d="M726 990q-137 0 -233.5 -96.5t-96.5 -233.5q0 -188 165 -286l205 614q-26 2 -40 2zM528 0q-66 0 -66 66q0 9 57 181q-118 59 -186.5 170t-68.5 243q0 192 135 327t327 135q35 0 82 -7l53 160q15 45 63 45q66 0 66 -66q0 -9 -57 -181q117 -59 186 -170.5t69 -242.5
q0 -192 -135 -327t-327 -135q-43 0 -82 7l-53 -160q-15 -45 -63 -45zM726 330q137 0 233.5 96.5t96.5 233.5q0 195 -165 286l-205 -614q24 -2 40 -2z" />
    <glyph glyph-name="product" unicode="&#x220f;" 
d="M396 1320h660q66 0 66 -66v-1188q0 -66 -66 -66t-66 66v1122h-528v-1122q0 -66 -66 -66t-66 66v1188q0 66 66 66z" />
    <glyph glyph-name="summation" unicode="&#x2211;" 
d="M297 0q-66 0 -66 66q0 20 9 33l375 561l-375 561q-9 13 -9 33q0 66 66 66h660q66 0 66 -66t-66 -66h-535l326 -490q11 -17 11 -38t-11 -38l-326 -490h535q60 0 96 22t36 46q0 25 20.5 44.5t45.5 19.5q66 0 66 -74t-78 -132t-186 -58h-660z" />
    <glyph glyph-name="minus" unicode="&#x2212;" 
d="M990 396h-528q-66 0 -66 66t66 66h528q66 0 66 -66t-66 -66z" />
    <glyph glyph-name="periodcentered" unicode="&#x2219;" 
d="M693 528h66q66 0 66 -66t-66 -66h-66q-66 0 -66 66t66 66z" />
    <glyph glyph-name="radical" unicode="&#x221a;" 
d="M825 1848h528q66 0 66 -66t-66 -66h-476l-450 -1667q-13 -49 -63 -49t-64 46l-263 792q-4 12 -4 20q0 66 66 66q48 0 63 -44l195 -586l402 1490q17 64 66 64z" />
    <glyph glyph-name="infinity" unicode="&#x221e;" 
d="M958 825q-68 0 -117 -48.5t-49 -116.5t48 -116.5t116 -48.5t117 48.5t49 116.5t-48 116.5t-116 48.5zM948 957q131 0 218.5 -87.5t87.5 -209.5t-87 -209.5t-219 -87.5t-222 110q-90 -110 -222 -110t-219 87.5t-87 209.5t88 209.5t220 87.5t220 -110q91 110 222 110z
M496 825q-68 0 -117 -48.5t-49 -116.5t48 -116.5t116 -48.5t117 48.5t49 116.5t-48 116.5t-116 48.5z" />
    <glyph glyph-name="orthogonal" unicode="&#x221f;" 
d="M462 132h594q66 0 66 -66t-66 -66h-660q-66 0 -66 66v661q0 66 66 66t66 -66v-595z" />
    <glyph glyph-name="angle" unicode="&#x2220;" 
d="M1121 133q29 0 48.5 -19.5t19.5 -47.5t-19.5 -47.5t-48.5 -19.5h-791q-38 0 -57 31t-3 65l560 1187q12 25 38 34.5t51 -2.5t34.5 -37.5t-2.5 -51.5l-516 -1092h686z" />
    <glyph glyph-name="sphericalangle" unicode="&#x2222;" 
d="M792 306v313l-313 -157zM858 0q-55 0 -65 59q-1 5 -1 99l-480 240q-48 24 -48 64t48 64l480 240q0 94 1 99q10 59 65 59q66 0 66 -92l168 84q16 8 30 8q66 0 66 -66q0 -42 -37 -60l-227 -113v-445l227 -114q37 -19 37 -60q0 -66 -66 -66q-14 0 -30 8l-168 84
q0 -92 -66 -92z" />
    <glyph glyph-name="intersection" unicode="&#x2229;" 
d="M1056 66q0 -66 -66 -66t-66 66v858q0 82 -58 140t-140 58t-140 -58t-58 -140v-858q0 -66 -66 -66t-66 66v858q0 137 96.5 233.5t234.5 96.5t233.5 -95.5t95.5 -234.5v-858z" />
    <glyph glyph-name="integral" unicode="&#x222b;" 
d="M993 1715l-58 1q-65 0 -104 -38t-39 -94v-1716q0 -111 -76.5 -187.5t-187.5 -76.5h-66q-66 0 -66 66q0 28 20 47.5t44 19.5l58 -1q66 0 104 39t38 93v1716q0 111 76.5 187.5t187.5 76.5h66q66 0 66 -66q0 -28 -19.5 -47.5t-43.5 -19.5z" />
    <glyph glyph-name="approxequal" unicode="&#x2248;" 
d="M854 528q-68 0 -151 66t-109 66t-66 -33t-66 -33t-46 20t-20 50t27 49q63 47 92 63t89 16t144 -66t110 -66t66.5 33t65.5 33q66 0 66 -66q0 -30 -27 -54q-26 -18 -66 -48q-41 -30 -109 -30zM854 132q-68 0 -151 66t-109 66t-66 -33t-66 -33t-46 20t-20 50t27 49
q63 47 92 63t89 16t144 -66t110 -66t66.5 33t65.5 33q66 0 66 -66q0 -30 -27 -54q-26 -18 -66 -48q-41 -30 -109 -30z" />
    <glyph glyph-name="approxequal" unicode="&#x22f2;" 
d="M854 528q-68 0 -151 66t-109 66t-66 -33t-66 -33t-46 20t-20 50t27 49q63 47 92 63t89 16t144 -66t110 -66t66.5 33t65.5 33q66 0 66 -66q0 -30 -27 -54q-26 -18 -66 -48q-41 -30 -109 -30zM854 132q-68 0 -151 66t-109 66t-66 -33t-66 -33t-46 20t-20 50t27 49
q63 47 92 63t89 16t144 -66t110 -66t66.5 33t65.5 33q66 0 66 -66q0 -30 -27 -54q-26 -18 -66 -48q-41 -30 -109 -30z" />
    <glyph glyph-name="estimates" unicode="&#x2259;" 
d="M1056 991q0 -25 -21 -46t-47 -21t-46 20l-216 217l-217 -217q-20 -20 -47 -20t-46.5 19.5t-19.5 46.5t20 47l253 253q31 30 57 30t56 -30l253 -253q21 -21 21 -46zM990 132h-528q-66 0 -66 66t66 66h528q66 0 66 -66t-66 -66zM990 528h-528q-66 0 -66 66t66 66h528
q66 0 66 -66t-66 -66z" />
    <glyph glyph-name="notequal" unicode="&#x2260;" 
d="M396 264q0 66 66 66h105l110 264h-215q-66 0 -66 66t66 66h270l65 157q17 41 60 41q67 0 67 -66q0 -13 -50 -132h116q66 0 66 -66t-66 -66h-171l-110 -264h281q66 0 66 -66t-66 -66h-336l-65 -157q-17 -41 -53 -41t-55 19.5t-19 39.5t50 139q-58 0 -77 6q-39 14 -39 60z
" />
    <glyph glyph-name="equivalence" unicode="&#x2261;" 
d="M990 396h-528q-66 0 -66 66t66 66h528q66 0 66 -66t-66 -66zM990 66h-528q-66 0 -66 66t66 66h528q66 0 66 -66t-66 -66zM990 726h-528q-66 0 -66 66t66 66h528q66 0 66 -66t-66 -66z" />
    <glyph glyph-name="lessequal" unicode="&#x2264;" 
d="M990 66h-528q-66 0 -66 66t66 66h528q66 0 66 -66t-66 -66zM1056 462q0 -66 -66 -66q-12 0 -23 4l-528 198q-43 16 -43 62t43 62l528 198q11 4 23 4q66 0 66 -66q0 -46 -43 -62l-363 -136l363 -136q43 -16 43 -62z" />
    <glyph glyph-name="greaterequal" unicode="&#x2265;" 
d="M990 66h-528q-66 0 -66 66t66 66h528q66 0 66 -66t-66 -66zM396 858q0 66 66 66q12 0 23 -4l528 -198q43 -16 43 -62t-43 -62l-528 -198q-11 -4 -31 -4t-39 20t-19 56t43 52l363 136l-363 136q-43 16 -43 62z" />
    <glyph glyph-name="u2300" unicode="&#x2300;" 
d="M726 990q-137 0 -233.5 -96.5t-96.5 -233.5q0 -188 165 -286l205 614q-26 2 -40 2zM528 0q-66 0 -66 66q0 9 57 181q-118 59 -186.5 170t-68.5 243q0 192 135 327t327 135q35 0 82 -7l53 160q15 45 63 45q66 0 66 -66q0 -9 -57 -181q117 -59 186 -170.5t69 -242.5
q0 -192 -135 -327t-327 -135q-43 0 -82 7l-53 -160q-15 -45 -63 -45zM726 330q137 0 233.5 96.5t96.5 233.5q0 195 -165 286l-205 -614q24 -2 40 -2z" />
    <glyph glyph-name="revlogicalnot" unicode="&#x2310;" 
d="M462 660v-330q0 -66 -66 -66t-66 66v396q0 66 66 66h660q66 0 66 -66t-66 -66h-594z" />
    <glyph glyph-name="integraltp" unicode="&#x2320;" 
d="M924 1782q0 -46 -45 -59q-22 -7 -84 -7q-135 0 -135 -132v-1980h-132v1980q0 111 76.5 187.5t187.5 76.5h66q66 0 66 -66z" />
    <glyph glyph-name="integralbt" unicode="&#x2321;" 
d="M592 -263l58 -1q66 0 104 39t38 93v1980h132v-1980q0 -111 -76.5 -187.5t-187.5 -76.5h-66q-66 0 -66 66q0 28 20 47.5t44 19.5z" />
    <glyph glyph-name="u2333" unicode="&#x2333;" 
d="M1320 66q0 -66 -66 -66h-1056q-66 0 -66 66v528q0 66 66 66q17 0 29 -6l1056 -529q37 -19 37 -59zM264 132h711l-711 356v-356z" />
    <glyph glyph-name="u24C7" unicode="&#x24c7;" 
d="M660 924v-132h66q66 0 66 66t-66 66h-66zM594 1056h132q82 0 140 -58t58 -127t-28 -119t-79 -68l101 -195q6 -12 6 -27q0 -66 -66 -66q-41 0 -60 39l-112 225h-26v-198q0 -66 -66 -66t-66 66v528q0 66 66 66zM726 1188q-192 0 -327 -135t-135 -326t136 -327t327 -136
t326 135t135 327t-135 327t-327 135zM726 1320q246 0 420 -174t174 -420t-174 -420t-420 -174t-420 174t-174 420t174 420t420 174z" />
    <glyph glyph-name="H22073" unicode="&#x25a1;" 
d="M1056 132v660h-660v-660h660zM1122 0h-792q-66 0 -66 66v792q0 66 66 66h792q66 0 66 -66v-792q0 -66 -66 -66z" />
    <glyph glyph-name="triangleright1" unicode="&#x25b7;" 
d="M264 66v792q0 66 66 66q14 0 30 -8l780 -390q48 -24 48 -64t-48 -64l-780 -390q-16 -8 -30 -8q-66 0 -66 66zM396 174l577 288l-577 289v-577z" />
    <glyph glyph-name="triagrtopen" unicode="&#x25bb;" 
d="M198 0q-66 0 -66 66v792q0 66 66 66q12 0 23 -4l1056 -397q43 -16 43 -61t-43 -61l-1056 -397q-11 -4 -23 -4zM1067 462l-803 302v-604z" />
    <glyph glyph-name="triangleleft1" unicode="&#x25c1;" 
d="M1188 66q0 -66 -66 -66q-14 0 -30 8l-780 390q-48 24 -48 64t48 64l780 390q16 8 30 8q66 0 66 -66v-792zM1056 174v577l-577 -289z" />
    <glyph glyph-name="boundaryline" unicode="&#xe100;" 
d="M727 484q48 33 48 92t-48 94v-186zM593 462v230h-130v-230h130zM463 825h197q34 0 58 24t24 58t-24 57.5t-58 23.5h-197v-163zM1056 133q28 0 47.5 -19.5t19.5 -47.5t-19.5 -47.5t-47.5 -19.5h-396q-28 0 -47.5 19.5t-19.5 47.5v263h-197q-28 0 -47.5 19.5t-19.5 47.5
v659q0 28 19.5 47.5t47.5 19.5h264q64 0 117 -34t79 -92t17 -120.5t-51 -110.5q53 -45 73.5 -109t6.5 -132t-61.5 -117.5t-113.5 -68.5v-205h329z" />
    <glyph glyph-name="flowline" unicode="&#xe101;" 
d="M661 858q39 0 57 -33h74q28 0 47.5 -19.5t19.5 -47.5t-19.5 -47t-47.5 -19h-65v-559h329q28 0 47.5 -19.5t19.5 -47.5t-19.5 -47.5t-47.5 -19.5h-396q-28 0 -47.5 19.5t-19.5 47.5v626h-130v-296q0 -28 -19.5 -47.5t-47.5 -19.5t-47.5 19.5t-19.5 47.5v659
q0 28 19.5 47.5t47.5 19.5h396q28 0 47.5 -19.5t19.5 -47.5t-19.5 -47.5t-47.5 -19.5h-329v-163h139q20 33 59 33z" />
    <glyph glyph-name="monumentline" unicode="&#xe102;" 
d="M660 924q51 0 64 -47l144 215q29 42 75 27q48 -13 48 -64v-659q0 -28 -19.5 -47.5t-47.5 -19.5t-47.5 19.5t-19.5 47.5v438l-130 -195v-506h329q28 0 47.5 -19.5t19.5 -47.5t-19.5 -47.5t-47.5 -19.5h-396q-28 0 -47.5 19.5t-19.5 47.5v573l-130 195v-438
q0 -28 -19.5 -47.5t-47.5 -19.5t-47.5 19.5t-19.5 47.5v659q0 50 47 64q47 15 76 -27l144 -215q13 47 64 47z" />
  </font>
</defs>
</svg>
